<svg xmlns="http://www.w3.org/2000/svg" xmlns:xlink="http://www.w3.org/1999/xlink" width="126.614" height="122" viewBox="0 0 126.614 122"><defs><filter id="a" x="0" y="0" width="126.614" height="122" filterUnits="userSpaceOnUse"><feOffset dy="3" input="SourceAlpha"/><feGaussianBlur stdDeviation="3" result="b"/><feFlood flood-color="#1d1d1b" flood-opacity="0.161"/><feComposite operator="in" in2="b"/><feComposite in="SourceGraphic"/></filter><filter id="c" x="22.499" y="43.501" width="82" height="39" filterUnits="userSpaceOnUse"><feOffset dy="1" input="SourceAlpha"/><feGaussianBlur stdDeviation="0.5" result="d"/><feFlood flood-opacity="0.161"/><feComposite operator="in" in2="d"/><feComposite in="SourceGraphic"/></filter></defs><g transform="translate(-628 -3974.999)"><g transform="translate(-135)"><g transform="matrix(1, 0, 0, 1, 763, 3975)" filter="url(#a)"><path d="M86.891,104V0h21.723V104Zm-21.723,0V29H86.891v75Zm-21.723,0V14H65.168v90Zm-21.722,0V29H43.445v75ZM0,104V50H21.723v54Z" transform="translate(9 6)" fill="#92e8c3"/></g><rect width="21.723" height="63" transform="translate(772 4022)" fill="#92e8c3"/><rect width="21.723" height="75" transform="translate(793.723 4010)" fill="#71e5bd"/><rect width="21.723" height="90" transform="translate(815.446 3995)" fill="#a7f9d8"/><rect width="21.723" height="82" transform="translate(837.169 4003)" fill="#92e8c3"/><rect width="21.723" height="104" transform="translate(858.892 3981)" fill="#71e5bd"/></g><g transform="matrix(1, 0, 0, 1, 628, 3975)" filter="url(#c)"><text transform="translate(24 72)" fill="#fff" font-size="28" font-family="plus jakarta extra bold, plus jakarta" font-weight="800"><tspan x="0" y="0">14.8%</tspan></text></g></g></svg>