<svg id="Layer_1" data-name="Layer 1" xmlns="http://www.w3.org/2000/svg" viewBox="0 0 150 150"><defs><style>.cls-1{fill:#f4f4f4;}.cls-2,.cls-4{fill:#fff;}.cls-3{fill:#d0d0d0;}.cls-3,.cls-4{stroke:#1d1d1b;}.cls-3,.cls-4,.cls-6{stroke-linecap:round;stroke-linejoin:round;stroke-width:2.6px;}.cls-5{fill:#70e4bc;}.cls-6{fill:none;stroke:#fff;}</style></defs><title>Artboard 1 copy 12</title><path id="Path_4" data-name="Path 4" class="cls-1" d="M79.32,13.32a67.43,67.43,0,1,0,.14,0h-.14"/><polygon class="cls-2" points="55.9 91.51 51.73 108.32 55.45 112.33 56.88 110.07 79.56 110.72 89.08 88.88 67.63 84.94 55.9 91.51"/><path class="cls-3" d="M58.91,35.06H40.38a3.13,3.13,0,0,0-3.13,3.12v26a3.13,3.13,0,0,0,3.13,3.13H51.27l7.64,7.64V67.27H62s1.52,0,2.09-.69"/><path class="cls-4" d="M91.89,92.23l17.06-17a4.94,4.94,0,0,1,.75-.62c1.43-1,6-3.5,9.87-.16,4.27,3.64.18,9.3-.63,10.34l-.25.29L95.31,108.56s-3.36,3-5.71,3H54.74"/><polygon class="cls-4" points="28.51 105.48 38.82 94.93 58.05 115.05 47.9 125.21 28.51 105.48"/><path class="cls-4" d="M53.87,110.72l-12.34-13L54.28,84.84a16,16,0,0,1,6.88-3.48,15,15,0,0,1,4-.54c4,0,13.85,0,18,0a13,13,0,0,1,6.83,1.89c1.72,1.07,3.28,2.62,3.25,4.74a6.25,6.25,0,0,1-2.8,5.94,8.93,8.93,0,0,1-5.06,1.55L68.69,95"/><path class="cls-4" d="M93.2,65.35,83.58,75V65.35H64.09a3.94,3.94,0,0,1-3.94-3.94V28.73a3.94,3.94,0,0,1,3.94-3.94h42.82a3.93,3.93,0,0,1,3.94,3.94V61.41a3.93,3.93,0,0,1-3.94,3.94Z"/><path class="cls-5" d="M79.67,43.56a8,8,0,0,1-.72-3.3c0-3.27,2.64-6,6.47-6,4.91,0,6.48,3.21,6.57,5.76l-3.45.56a2.88,2.88,0,0,0-3.05-3.17,2.78,2.78,0,0,0-2.93,2.89,8.29,8.29,0,0,0,.85,3.24h5.91v3h-5a6.71,6.71,0,0,1,.07.76,5.09,5.09,0,0,1-2.61,4.59h5.56a2.71,2.71,0,0,0,2.77-3l3.39.38c0,3.36-2.1,5.82-5.44,5.82H77.5V51.86a4.67,4.67,0,0,0,3.36-4.18,7.35,7.35,0,0,0-.12-1.14H77.66v-3Z"/><line class="cls-6" x1="42.14" y1="41.15" x2="52.78" y2="41.15"/><line class="cls-6" x1="42.14" y1="47.22" x2="52.78" y2="47.22"/><line class="cls-6" x1="42.14" y1="53.29" x2="47.46" y2="53.29"/></svg>