<svg viewBox="0 0 150 150" xmlns="http://www.w3.org/2000/svg"><path d="m60.72 140.53-20 8.08a4.69 4.69 0 0 1 -6.15-2.5v-.12l-28.37-69.99a54.72 54.72 0 1 1 101.44-41.09l28.36 70a5.15 5.15 0 0 1 -2.63 6.2z" fill="#f4f4f4"/><g fill="#fff" stroke-linecap="round" stroke-linejoin="round" stroke-width="2.6"><path d="m82.08 111.24-4.41-2.76-34.45-20.24c-.77-.09-2.1-1.55-3-2.62a11.87 11.87 0 0 1 -1.41-2.17l-1.23-2.4 15.77-26.37a25.21 25.21 0 0 1 11.37 0l38.79 22 2.32 10.21-8.62 8.11z" stroke="#70e4bc"/><path d="m21.5 78.54 12.92 7.86 21.43-35.93-12.91-7.86z" stroke="#70e4bc"/><path d="m64.72 54.7 38.79 22 5 3.36c2 1.31 2.37 4.54 1.06 6.54l-.61.93a4.32 4.32 0 0 1 -6 1.24l-3.69-2.27" stroke="#70e4bc"/><path d="m83.89 100.77 3.44 2.23a4.32 4.32 0 0 1 1.25 6l-.61.93a4.33 4.33 0 0 1 -5.89 1.3l-1.64-1" stroke="#70e4bc"/><path d="m95.67 84.14 5 3.37c2 1.31 2.36 4.54 1.06 6.53l-.61.93a4.32 4.32 0 0 1 -6 1.25l-3.69-2.22" stroke="#70e4bc"/><path d="m88 91.69 5.61 3.67a4.32 4.32 0 0 1 1.24 6l-.6.93a4.32 4.32 0 0 1 -6 1.24l-4.36-2.74" stroke="#70e4bc"/><path d="m99.11 46.88-3.2 1.33a6.91 6.91 0 0 1 -2 .5l-22.49 2.29a6.79 6.79 0 0 0 -3.37 1.3l-5.11 3.76a6.88 6.88 0 0 0 -1.94 2.24l-3.15 5.78c-2 4.13 3 8.46 6.51 5l2.56-2.72a10.5 10.5 0 0 1 13.08-1.81l24.8 14.91a3.62 3.62 0 0 0 2.2.54l6.16-.62" stroke="#1d1d1b"/><rect height="16.06" rx="4.87" stroke="#1d1d1b" transform="matrix(.83638184 .54814726 -.54814726 .83638184 57.95 -10.39)" width="9.75" x="41.51" y="83.85"/><rect height="16.06" rx="4.87" stroke="#1d1d1b" transform="matrix(.83638184 .54814726 -.54814726 .83638184 66.03 -18.34)" width="9.75" x="58.87" y="93.41"/><rect height="11.78" rx="4.87" stroke="#1d1d1b" transform="matrix(.83638184 .54814726 -.54814726 .83638184 70.07 -22.29)" width="9.75" x="67.5" y="100.33"/><rect height="18.69" rx="4.87" stroke="#1d1d1b" transform="matrix(.84 .55 -.55 .84 62.15 -14.15)" width="9.75" x="49.9" y="87.69"/><path d="m105.61 39.35h15.2v41.84h-15.2z" stroke="#1d1d1b" transform="matrix(.9174077 -.39794863 .39794863 .9174077 -14.63 50.03)"/></g></svg>