<svg viewBox="0 0 150 150" xmlns="http://www.w3.org/2000/svg"><path d="m123 32.24 19.62 8.76a4.7 4.7 0 0 1 2.46 6.17l-.05.11-30.78 69a54.72 54.72 0 0 1 -99.94-44.63l30.78-69a5.14 5.14 0 0 1 6.29-2.36z" fill="#f4f4f4"/><path d="m47.26 101.22 1.81 1.89 12.27 7.65 3.39.42 3.79-1.73 5-8.47 14-23.43-2.44-1.23-6.24-.64-1.32 2.82z" fill="#d0d0d0"/><path d="m71.11 82.94-24.72 18.24 2.81 2.06 13 7.6 3.91.33 3.68-2.5 17-29.46.53-1.89-4.85-1.55-2.47.72z" fill="none"/><path d="m112.79 84-11 8.15 8.11 10.39 19.45-14.47-8.22-10.27z" fill="#fff"/><path d="m68.43 110.54a7.41 7.41 0 0 1 -8.25.45l-13.74-8.61a.93.93 0 0 1 -.25-1.3.92.92 0 0 1 1.24-.28l13.72 8.6a5.56 5.56 0 0 0 7.59-2l17.71-29.67a.93.93 0 0 1 1.61 1l-17.72 29.68a7.34 7.34 0 0 1 -1.91 2.13z" fill="#1d1d1b"/><path d="m91.68 62.73-12.88-17.67 19.2 2.52 23 29.06-1.31 2.07-15.36 12.05-10.48-4.93-6.31-9.26-13.93-2.21-6.11-2.9-.85-2.67 1.26-5.37 4.63-1.42 12.13 1.62 7.33.9" fill="#fff"/><path d="m81.35 76.28-33.7 25.39a7.43 7.43 0 0 1 -10.39-1.46l-15.11-20.06a.93.93 0 0 1 1.49-1.15l15.11 20.09a5.57 5.57 0 0 0 7.78 1.09l33.69-25.39a.94.94 0 0 1 1.13 1.49z" fill="#646363"/><path d="m92.39 65.3a.93.93 0 0 1 -1.49-.84 5.54 5.54 0 0 0 -1.1-3.83l-15.8-20.94a5.56 5.56 0 0 0 -7.77-1.09l-33.67 25.4a.94.94 0 0 1 -1.13-1.49l33.7-25.39a7.43 7.43 0 0 1 10.39 1.46l15.77 20.93a7.4 7.4 0 0 1 1.47 5.12 1 1 0 0 1 -.37.67z" fill="#1d1d1b"/><path d="m80.79 75.54-33.7 25.39a6.48 6.48 0 0 1 -9.09-1.28l-15.76-20.93a6.48 6.48 0 0 1 1.27-9.08l42.19-31.79a6.49 6.49 0 0 1 9.08 1.28l15.11 20.06" fill="#fff"/><path d="m81.35 76.29-33.7 25.39a7.44 7.44 0 0 1 -10.39-1.46l-15.77-20.94a7.43 7.43 0 0 1 1.51-10.39l42.14-31.78a7.41 7.41 0 0 1 10.38 1.46l15.12 20.06a.94.94 0 0 1 -1.49 1.13l-15.15-20.07a5.56 5.56 0 0 0 -7.77-1.09l-42.15 31.79a5.55 5.55 0 0 0 -1.08 7.77l15.76 20.93a5.54 5.54 0 0 0 7.77 1.09l33.7-25.39a.94.94 0 0 1 1.17 1.46z" fill="#1d1d1b"/><g fill="#70e4bc"><rect height="11.05" rx="5.53" transform="matrix(.79863551 -.60181502 .60181502 .79863551 -38.33 36.18)" width="11.05" x="29.38" y="69.85"/><path d="m46.88 92.05-4 3a.94.94 0 1 1 -1.13-1.49l4-3a.93.93 0 1 1 1.12 1.49z"/><path d="m63.19 79.76-4 3a.94.94 0 0 1 -1.19-1.44l4-3a.94.94 0 0 1 1.13 1.49z"/><path d="m57.16 56.19a.94.94 0 0 1 -1.31-.19l-1.6-2.13a.92.92 0 0 1 .23-1.3.91.91 0 0 1 1.26.18l1.61 2.12a.93.93 0 0 1 -.19 1.32z"/><path d="m61.58 52.87a.94.94 0 0 1 -1.31-.19l-1.6-2.12a.94.94 0 0 1 1.49-1.13l1.6 2.13a.94.94 0 0 1 -.18 1.31z"/><path d="m66 49.54a.93.93 0 0 1 -1.3-.18l-1.61-2.13a.94.94 0 0 1 1.5-1.12l1.6 2.12a.93.93 0 0 1 -.19 1.31z"/><path d="m70.41 46.21a.94.94 0 0 1 -1.31-.21l-1.6-2.1a.93.93 0 0 1 1.5-1.12l1.6 2.12a.94.94 0 0 1 -.18 1.31z"/></g><path d="m98.76 47-19.44-3.35 1.68 2.17 17.12 2.92 22.29 29.58a.94.94 0 0 0 1.49-1.13l-22.55-29.87a.92.92 0 0 0 -.59-.32z" fill="#1d1d1b"/><path d="m129.63 89-19.36 14.59a.94.94 0 0 1 -1.31-.19l-8-10.56a.93.93 0 0 1 .19-1.31l19.39-14.53a.94.94 0 0 1 1.31.19l8 10.56a.94.94 0 0 1 -.18 1.31zm-19.74 12.53 17.87-13.46-6.84-9.07-17.86 13.5z" fill="#1d1d1b"/><path d="m104 91.81a.91.91 0 0 1 -1 .08l-9.26-4.81a.86.86 0 0 1 -.31-.26l-7-9.26-16.43-3.14h-.13a6.71 6.71 0 0 1 -4.1-7.83 6.42 6.42 0 0 1 6.86-5.69l26.43 3.79a.94.94 0 0 1 -.23 1.86l-26.4-3.78c-.48 0-4.07-.19-4.82 4.15-.69 4.08 2.39 5.49 2.85 5.68l16.71 3.19a.93.93 0 0 1 .57.35l7.07 9.38 9.06 4.71a.93.93 0 0 1 .4 1.26.82.82 0 0 1 -.26.32z" fill="#1d1d1b"/></svg>