<svg viewBox="0 0 150 150" xmlns="http://www.w3.org/2000/svg"><path d="m78.84 8 20.7-6a4.69 4.69 0 0 1 5.85 3.14.65.65 0 0 0 0 .13l20.74 72.61a54.72 54.72 0 1 1 -105.19 30.12l-20.75-72.63a5.15 5.15 0 0 1 3.27-5.89z" fill="#f4f4f4"/><g stroke-linecap="round" stroke-linejoin="round" stroke-width="2.6"><path d="m96.86 41.24 8.5 4.9" fill="none" stroke="#70e4bc"/><circle cx="75" cy="83.13" fill="#fff" r="40.2" stroke="#1d1d1b"/><path d="m101.29 92.55a27.91 27.91 0 1 1 -45.44-29.72" fill="none" stroke="#d0d0d0"/><path d="m62.93 56.34 9.87 21.68" fill="none" stroke="#70e4bc"/><circle cx="75.01" cy="83.13" fill="none" r="5.57" stroke="#70e4bc"/><rect fill="#d0d0d0" height="10.2" rx="5.1" stroke="#1d1d1b" width="23.82" x="63.09" y="26.67"/></g></svg>