<svg viewBox="0 0 150 150" xmlns="http://www.w3.org/2000/svg"><path d="m135.46 76.07 11.88 9.58-86.74-69.95-.07-.06-11.88-9.58a3.36 3.36 0 0 0 -4.72.44v.08l-33.8 41.9a38.92 38.92 0 0 0 5.73 54.73l.15.13a39.41 39.41 0 0 0 29.24 8.32 39.42 39.42 0 0 0 14.33 26.81 38.92 38.92 0 0 0 54.74-5.74l.11-.14 33.8-41.91a4.51 4.51 0 0 0 -.84-5" fill="#f4f4f4"/><g stroke-linecap="round" stroke-linejoin="round" stroke-width="2.6"><path d="m29.32 76.22v41.62h91.36v-41.62" fill="#d0d0d0" stroke="#1d1d1b"/><path d="m65.51 87.65c-11.22-2.05-29.86-7.87-41.07-14v-15.36a8.64 8.64 0 0 1 8.64-8.64h83.84a8.64 8.64 0 0 1 8.64 8.64v15.36c-11.43 6.25-30.18 12-41.61 14" fill="#fff" stroke="#1d1d1b"/><path d="m65.51 77.17h18.44v18.44h-18.44z" fill="#fff" stroke="#70e4bc"/><path d="m74.73 85.12v2.53" fill="#fff" stroke="#70e4bc"/><path d="m93.44 49.54v-11.54c0-7.77-37.55-7.77-37.55 0v11.54h5.11v-8.42c0-5.66 27.53-5.66 27.53 0v8.42z" fill="#d0d0d0" stroke="#1d1d1b"/></g></svg>