<svg xmlns="http://www.w3.org/2000/svg" width="90.174" height="80.813" viewBox="0 0 90.174 80.813"><path d="M1030.089-112.693A45.087,45.087,0,0,0,985-157.78a45.087,45.087,0,0,0-45.087,45.087A45.01,45.01,0,0,0,957.5-76.966l10.929-4.939a15.131,15.131,0,0,1,1.853-6.794,9.057,9.057,0,0,0,2.985-1.338,40.537,40.537,0,0,0,.515-7,28.818,28.818,0,0,1-3.757-9.985c-.7.165-1.107-.051-1.6-.875a28.213,28.213,0,0,1-2.213-9.007c0-2.367,1.39-1.853,1.39-1.853l-1.081-11.632c-.489-6.356,3.551-7.154,3.551-7.154s.695-7.772,14.669-7.772H985.9c13.974,0,14.669,7.772,14.669,7.772s4.04.8,3.551,7.154l-1.081,11.632s1.39-.515,1.39,1.853a28.219,28.219,0,0,1-2.213,9.007c-.489.824-.892,1.04-1.6.875a28.818,28.818,0,0,1-3.757,9.985,40.573,40.573,0,0,0,.515,7,9.058,9.058,0,0,0,2.985,1.338,15.133,15.133,0,0,1,1.853,6.794l10.523,4.756A45.008,45.008,0,0,0,1030.089-112.693Z" transform="translate(-939.915 157.78)" fill="#71e5bd"/></svg>