<svg xmlns="http://www.w3.org/2000/svg" width="59.849" height="54.99" viewBox="0 0 59.849 54.99"><path d="M1622.1-127.855a29.925,29.925,0,0,0-29.925-29.925,29.925,29.925,0,0,0-29.925,29.925,29.9,29.9,0,0,0,13.576,25.065l-.016-.135c12.421-3.623,10.371-11.48,10.371-11.48a15.6,15.6,0,0,1-9.7-1.64c5.629-6.7-1.047-32.414,16.087-32.587v0h.173v0c17.134.173,10.458,25.892,16.087,32.587a15.6,15.6,0,0,1-9.7,1.64s-1.99,7.632,9.844,11.321A29.893,29.893,0,0,0,1622.1-127.855Z" transform="translate(-1562.254 157.78)" fill="#71e5bd"/></svg>