<svg viewBox="0 0 150 150" xmlns="http://www.w3.org/2000/svg"><path d="m81.5 1.11a67.43 67.43 0 1 0 .14 0z" fill="#f4f4f4"/><g stroke-linecap="round" stroke-linejoin="round" stroke-width="2.6"><path d="m129.12 61.23v13a90.83 90.83 0 0 0 -24.6-13.1v-11.33a101.81 101.81 0 0 1 24.6 11.43z" fill="none" stroke="#70e4bc"/><path d="m44.43 49.37v11.5a90.43 90.43 0 0 0 -24.43 13.06v-13.33a101.37 101.37 0 0 1 24.43-11.23z" fill="none" stroke="#70e4bc"/><path d="m44.43 49.37v-8.45" fill="none" stroke="#70e4bc"/><path d="m104.52 49.47v-8.55" fill="none" stroke="#70e4bc"/><path d="m20 60.6v-7.3" fill="none" stroke="#70e4bc"/><path d="m129.12 60.9v-7.6" fill="none" stroke="#70e4bc"/><path d="m74.56 45.25v10.84h-2.26-.81-.76-.75-.63-.33a90.26 90.26 0 0 0 -24.59 5.11v-11.5a102.07 102.07 0 0 1 29.89-4.45z" fill="none" stroke="#70e4bc"/><path d="m104.52 49.47v11.35a89.86 89.86 0 0 0 -22.92-4.82h-.84l-.88-.06-1.5-.07c-.25 0-.5 0-.75 0h-.81-2.26v-10.95a101.87 101.87 0 0 1 29.96 4.55z" fill="none" stroke="#70e4bc"/><path d="m129.12 74.06v40h-28.23v-12.4s.66-25.59-26.33-25.59-27.16 25.75-27.16 25.75v12.18h-27.4v-40s9-7.64 24.43-13a91.26 91.26 0 0 1 24.59-5h.33.63.75.76.81 4.52.81.75l1.5.07.88.06.84.06a91.67 91.67 0 0 1 22.92 4.85c15.48 5.26 24.6 13.02 24.6 13.02z" fill="#fff" stroke="#1d1d1b"/><path d="m74.56 44.92v-8.96" fill="none" stroke="#70e4bc"/><path d="m111.09 85.73h-4.46" fill="none" stroke="#d0d0d0"/><path d="m33.13 79.91h-4.46" fill="none" stroke="#d0d0d0"/><path d="m40.8 91.59h-4.46" fill="none" stroke="#d0d0d0"/><path d="m120.41 78.79h-4.46" fill="none" stroke="#d0d0d0"/><path d="m34.4 105.35h-4.46" fill="none" stroke="#d0d0d0"/><path d="m121.68 105.35h-4.46" fill="none" stroke="#d0d0d0"/></g></svg>