<svg viewBox="0 0 150 150" xmlns="http://www.w3.org/2000/svg"><path d="m93.43 16.14 12.47-8.8-91.06 64.21-.08.06-12.47 8.79a3.36 3.36 0 0 0 -.87 4.66l.05.07 31 44a38.91 38.91 0 0 0 54.2 9.51l.16-.12a39.44 39.44 0 0 0 16-25.82 39.45 39.45 0 0 0 29.71-6.43 38.92 38.92 0 0 0 9.5-54.21l-.1-.15-31-44a4.5 4.5 0 0 0 -5.07-.57" fill="#f4f4f4"/><g stroke-linejoin="round" stroke-width="2.6"><path d="m73.73 37.19-11.08 11.09v-6.99h-13.71v20.69l-7.62 7.62v57.3h75.61v-48.3z" fill="#d0d0d0" stroke="#1d1d1b" stroke-linecap="round"/><path d="m70.98 23.1-16.59 16.59v-9.71h-13.7v23.41l-7.62 7.62v57.3h75.61v-56.82z" fill="#fff" stroke="#1d1d1b" stroke-linecap="round"/><path d="m42.29 65.15h15.08v15.08h-15.08z" fill="#fff" stroke="#70e4bc" stroke-linecap="round"/><path d="m98.88 116.94v-28.62a.81.81 0 0 0 -.81-.81h-18.32a.62.62 0 0 0 -.62.62v28.81" fill="#fff" stroke="#70e4bc"/></g></svg>