<svg xmlns="http://www.w3.org/2000/svg" xmlns:xlink="http://www.w3.org/1999/xlink" width="411.304" height="659.303" viewBox="0 0 411.304 659.303">
  <defs>
    <filter id="Union_30" x="0" y="0" width="411.304" height="659.303" filterUnits="userSpaceOnUse">
      <feOffset dy="3" input="SourceAlpha"/>
      <feGaussianBlur stdDeviation="11" result="blur"/>
      <feFlood flood-color="#646363" flood-opacity="0.341"/>
      <feComposite operator="in" in2="blur"/>
      <feComposite in="SourceGraphic"/>
    </filter>
  </defs>
  <g id="Group_501" data-name="Group 501" transform="translate(289 -2617)">
    <g transform="matrix(1, 0, 0, 1, -289, 2617)" filter="url(#Union_30)">
      <path id="Union_30-2" data-name="Union 30" d="M193,517.152a76.672,76.672,0,0,1,.991-12.318l-.21.327s2.144-7.488,1.978-21.866c-.1-9.014-9.292-18.686-16.132-24.647l-6.814-5.323-7.34-5.735c-7.438-5.195-19.048-11.772-27.821-9.692a62.341,62.341,0,0,0-12.147,4.21,76.115,76.115,0,0,1-7.3,4.175,23.744,23.744,0,0,0-1.927,1.471l.822-.928a76.15,76.15,0,1,1-2.013-138.278,114.4,114.4,0,0,0,17.1,4.443c13.42,2.448,32.03-15.216,33.9-17.034l-.009-.01.113-.092.049-.049,0,0c2.058-1.7,22.6-18.955,21.59-31.2a106.652,106.652,0,0,0-2.048-10.99,76.54,76.54,0,0,1-5.548-45.226l-.187.279s2.642-8.885,2.977-23.26c.319-13.638-20.04-29.255-22.128-30.82l-.008.009-.109-.1-.055-.041,0,0c-2-1.769-22.258-19.359-34.19-16.445a125.26,125.26,0,0,0-16.155,6.173q-1.886.951-3.83,1.8c-1.445.7-2.292,1.14-2.292,1.14l.293-.3a76.07,76.07,0,1,1,43.527-45.622,84.87,84.87,0,0,0-1.173,12.537c-.211,9.013,8.634,19,15.261,25.2L168.8,144.5l7.135,5.988c7.253,5.451,18.626,12.429,27.466,10.657a63.042,63.042,0,0,0,10.671-3.121,75.935,75.935,0,0,1,10.679-5.709c.235-.177.353-.274.353-.274l-.2.206a76.149,76.149,0,1,1,3.631,141.282l1.174,1.121s-6.942-3.533-21.087-6.114c-8.869-1.617-20.115,5.556-27.272,11.132l-6.526,5.673-7.03,6.111c-6.519,6.312-15.19,16.453-14.823,25.461a62.336,62.336,0,0,0,1.827,12.773,75.6,75.6,0,0,1,2.694,7.913,23.75,23.75,0,0,0,1.077,2.175l-.754-.984a76.743,76.743,0,0,1,.3,37.561,115.792,115.792,0,0,0-.953,16.578c.158,13.64,21.048,28.538,23.19,30.029l.008-.01.112.093.057.04,0,0c2.058,1.7,22.919,18.571,34.744,15.241a113.2,113.2,0,0,0,12.321-4.992A76.158,76.158,0,1,1,193,517.152Z" transform="translate(33 30)" fill="#fff"/>
    </g>
    <g id="Group_424" data-name="Group 424" transform="translate(-207 2687)">
      <g id="Group_423" data-name="Group 423">
        <path id="Path_293" data-name="Path 293" d="M6846.288,2616.1h-29.981a24.818,24.818,0,0,1,24.7-23.2h.049a24.689,24.689,0,0,1,17.078,6.877,14.94,14.94,0,0,1,3-.3c.372,0,.74.018,1.106.045a28.039,28.039,0,0,0-12.46-8.377,22.667,22.667,0,1,0-17.5,0,28,28,0,0,0-19.188,26.534,1.58,1.58,0,0,0,1.581,1.581H6847A14.836,14.836,0,0,1,6846.288,2616.1Zm-24.762-45.859a19.5,19.5,0,1,1,19.53,19.5.324.324,0,0,1-.049,0A19.535,19.535,0,0,1,6821.526,2570.237Z" transform="translate(-6813.094 -2547.571)" fill="#646363"/>
      </g>
      <path id="Path_294" data-name="Path 294" d="M6925.147,2726.082a13.153,13.153,0,1,1,13.153-13.153A13.168,13.168,0,0,1,6925.147,2726.082Zm0-23.46a10.308,10.308,0,1,0,10.307,10.308A10.319,10.319,0,0,0,6925.147,2702.621Z" transform="translate(-6877.104 -2646.082)" fill="#71e5bd"/>
    </g>
    <g id="Group_425" data-name="Group 425" transform="translate(-165.86 2748.709)">
      <path id="Path_295" data-name="Path 295" d="M6943.42,2725.03l-6.8,6.8-3.529-3.53-.843.843,3.529,3.53.843.843.843-.843,6.8-6.8Z" transform="translate(-6931.351 -2724.135)" fill="#71e5bd"/>
      <path id="Path_296" data-name="Path 296" d="M6934.977,2732.771l-5.267-5.267,1.737-1.737,3.529,3.53,6.8-6.8,1.736,1.737Z" transform="translate(-6929.71 -2722.495)" fill="#71e5bd"/>
    </g>
    <path id="Path_302" data-name="Path 302" d="M7142.892,2954.378h-23.405a1.445,1.445,0,0,1-1.445-1.445v-72.815a1.445,1.445,0,0,1,1.445-1.445H7147.6a1.447,1.447,0,0,1,.785.231l16.091,10.4a1.445,1.445,0,0,1,.66,1.213v18.2a1.445,1.445,0,1,1-2.89,0v-17.417l-15.073-9.744h-26.248v69.926h21.961a1.445,1.445,0,0,1,0,2.89Z" transform="translate(-7154.041 -49.673)" fill="#646363"/>
    <path id="Path_303" data-name="Path 303" d="M7142.892,2913.662h-23.405a1.445,1.445,0,1,1,0-2.89h21.96v-4.912h-21.96a1.445,1.445,0,1,1,0-2.89h23.405a1.445,1.445,0,0,1,1.445,1.445v7.8A1.445,1.445,0,0,1,7142.892,2913.662Z" transform="translate(-7154.041 -66.168)" fill="#646363"/>
    <path id="Path_304" data-name="Path 304" d="M7142.892,2962.256h-23.405a1.445,1.445,0,1,1,0-2.89h21.96v-4.912h-21.96a1.445,1.445,0,1,1,0-2.89h23.405a1.445,1.445,0,0,1,1.445,1.445v7.8A1.445,1.445,0,0,1,7142.892,2962.256Z" transform="translate(-7154.041 -99.159)" fill="#646363"/>
    <g id="Group_434" data-name="Group 434" transform="translate(15.561 2892.352)">
      <path id="Path_305" data-name="Path 305" d="M7283.412,3085.324l-4.793-4.794,1.581-1.581,3.213,3.212,6.191-6.191,1.581,1.581Z" transform="translate(-7278.619 -3075.971)" fill="#71e5bd"/>
    </g>
    <g id="Group_435" data-name="Group 435" transform="translate(-5.85 2865.408)">
      <path id="Path_306" data-name="Path 306" d="M7226.7,3028.467h-11.87v-33.518h25.229V3009.9a13.722,13.722,0,0,1,2.89.395V2993.5a1.444,1.444,0,0,0-1.444-1.445h-28.119a1.445,1.445,0,0,0-1.445,1.445v36.408a1.445,1.445,0,0,0,1.445,1.445h14.8A13.737,13.737,0,0,1,7226.7,3028.467Z" transform="translate(-7211.939 -2992.059)" fill="#646363"/>
    </g>
    <g id="Group_436" data-name="Group 436" transform="translate(9.872 2885.057)">
      <path id="Path_307" data-name="Path 307" d="M7272.874,3077.2a11.972,11.972,0,1,1,11.972-11.972A11.985,11.985,0,0,1,7272.874,3077.2Zm0-21.354a9.382,9.382,0,1,0,9.382,9.382A9.393,9.393,0,0,0,7272.874,3055.841Z" transform="translate(-7260.902 -3053.252)" fill="#71e5bd"/>
    </g>
    <path id="Path_308" data-name="Path 308" d="M7129.889,3075.344a1.445,1.445,0,0,1-1.445-1.445v-14.158h-8.957a1.445,1.445,0,1,1,0-2.89h10.4a1.445,1.445,0,0,1,1.445,1.445v15.6A1.445,1.445,0,0,1,7129.889,3075.344Z" transform="translate(-7154.041 -170.639)" fill="#646363"/>
    <path id="Path_309" data-name="Path 309" d="M7137.69,3010.85h-18.2a1.445,1.445,0,0,1-1.445-1.445v-7.8a1.445,1.445,0,0,1,1.445-1.445h19.735a1.445,1.445,0,0,1,1.339,1.989,19.191,19.191,0,0,0-1.426,7.258A1.445,1.445,0,0,1,7137.69,3010.85Zm-16.759-2.89h15.361a22.023,22.023,0,0,1,.889-4.912h-16.25Z" transform="translate(-7154.041 -132.15)" fill="#646363"/>
    <path id="Path_310" data-name="Path 310" d="M7226.129,3023h-12.745a1.445,1.445,0,0,1-1.445-1.445v-7.8a1.445,1.445,0,0,1,1.445-1.445h14.277a1.445,1.445,0,0,1,1.338,1.989,19.2,19.2,0,0,0-1.425,7.258A1.445,1.445,0,0,1,7226.129,3023Zm-11.3-2.89h9.9a21.975,21.975,0,0,1,.889-4.912h-10.791Z" transform="translate(-7217.789 -140.397)" fill="#646363"/>
    <g id="Group_442" data-name="Group 442" transform="translate(-185.721 2978)">
      <path id="Path_311" data-name="Path 311" d="M6636.565,3660.264a9.986,9.986,0,1,1,9.986-9.985A10,10,0,0,1,6636.565,3660.264Zm0-16.867a6.882,6.882,0,1,0,6.882,6.882A6.89,6.89,0,0,0,6636.565,3643.4Z" transform="translate(-6626.58 -3640.293)" fill="#71e5bd"/>
    </g>
    <path id="Path_312" data-name="Path 312" d="M6632.657,3724.729h-7.882a23.977,23.977,0,0,0-9.078-8.024v-6.28a1.632,1.632,0,0,0-.873-1.432,1.666,1.666,0,0,0-1.658.092l-7.563,5.029h-19.438a24.2,24.2,0,0,0-16.242,42.138v7.3a1.653,1.653,0,0,0,1.633,1.629h10.621a1.652,1.652,0,0,0,1.63-1.634v-1.145c.778.079,1.564.119,2.345.121h18.595c.779,0,1.566-.042,2.343-.121v1.149a1.653,1.653,0,0,0,1.634,1.629h10.624a1.7,1.7,0,0,0,1.667-1.634v-7.3a24.3,24.3,0,0,0,7.282-12.318h4.364a1.651,1.651,0,0,0,1.629-1.634v-15.939A1.651,1.651,0,0,0,6632.657,3724.729Zm-22.343,35.528a1.643,1.643,0,0,0-1.9-1.337,22.428,22.428,0,0,1-3.707.337h-18.6a20.541,20.541,0,0,1-3.7-.338,1.662,1.662,0,0,0-1.32.35,1.585,1.585,0,0,0-.6,1.257v1.391h-7.349v-6.4a1.643,1.643,0,0,0-.568-1.249,20.927,20.927,0,0,1,13.539-36.884h19.927a1.642,1.642,0,0,0,.894-.27l5.427-3.624v4.258a1.654,1.654,0,0,0,.974,1.478,20.727,20.727,0,0,1,9.113,8.006,1.647,1.647,0,0,0,1.392.769h7.135v12.667h-4.053a1.626,1.626,0,0,0-1.6,1.339,21.105,21.105,0,0,1-7.063,12.272,1.68,1.68,0,0,0-.558,1.238v6.4h-7.349v-1.4A1.529,1.529,0,0,0,6610.313,3760.257Z" transform="translate(-6769.977 -707.185)" fill="#646363"/>
    <g id="Group_500" data-name="Group 500" transform="translate(14 2)">
      <g id="Group_453" data-name="Group 453" transform="translate(-27.756 3145.042)">
        <g id="Group_445" data-name="Group 445">
          <rect id="Rectangle_334" data-name="Rectangle 334" width="8.165" height="8.165" fill="#646363"/>
        </g>
        <g id="Group_446" data-name="Group 446" transform="translate(18.113)">
          <rect id="Rectangle_335" data-name="Rectangle 335" width="8.165" height="8.165" fill="#646363"/>
        </g>
        <g id="Group_447" data-name="Group 447" transform="translate(36.226)">
          <rect id="Rectangle_336" data-name="Rectangle 336" width="8.165" height="8.165" fill="#646363"/>
        </g>
        <g id="Group_448" data-name="Group 448" transform="translate(0 13.249)">
          <rect id="Rectangle_337" data-name="Rectangle 337" width="8.165" height="8.165" fill="#646363"/>
        </g>
        <g id="Group_449" data-name="Group 449" transform="translate(18.113 13.249)">
          <rect id="Rectangle_338" data-name="Rectangle 338" width="8.165" height="8.165" fill="#646363"/>
        </g>
        <g id="Group_450" data-name="Group 450" transform="translate(36.226 13.249)">
          <rect id="Rectangle_339" data-name="Rectangle 339" width="8.165" height="8.165" fill="#646363"/>
        </g>
        <g id="Group_451" data-name="Group 451" transform="translate(0 26.498)">
          <rect id="Rectangle_340" data-name="Rectangle 340" width="8.165" height="8.165" fill="#71e5bd"/>
        </g>
        <g id="Group_452" data-name="Group 452" transform="translate(18.113 26.498)">
          <rect id="Rectangle_341" data-name="Rectangle 341" width="8.165" height="8.165" fill="#646363"/>
        </g>
      </g>
      <g id="Group_454" data-name="Group 454" transform="translate(-25.203 3124)">
        <rect id="Rectangle_342" data-name="Rectangle 342" width="3.059" height="10.925" rx="1.529" fill="#71e5bd"/>
      </g>
      <g id="Group_455" data-name="Group 455" transform="translate(-7.09 3124)">
        <rect id="Rectangle_343" data-name="Rectangle 343" width="3.059" height="10.925" rx="1.529" fill="#71e5bd"/>
      </g>
      <g id="Group_456" data-name="Group 456" transform="translate(11.023 3124)">
        <rect id="Rectangle_344" data-name="Rectangle 344" width="3.059" height="10.925" rx="1.529" fill="#71e5bd"/>
      </g>
      <g id="Group_499" data-name="Group 499">
        <g id="Group_460" data-name="Group 460" transform="translate(-41 3128.011)">
          <g id="Group_459" data-name="Group 459">
            <g id="Group_458" data-name="Group 458">
              <path id="Path_313" data-name="Path 313" d="M6608.111,4630.743h-51.271v-57.857h65.073v42.88h0a13.835,13.835,0,0,1,2.9.309v-44.067a2.024,2.024,0,0,0-2.024-2.024h-66.829a2.024,2.024,0,0,0-2.024,2.024v59.614a2.024,2.024,0,0,0,2.024,2.024h52.7A13.7,13.7,0,0,1,6608.111,4630.743Z" transform="translate(-6553.938 -4569.983)" fill="#646363"/>
            </g>
            <path id="Path_314" data-name="Path 314" d="M6715.494,4711.854v-6.9h-8.166v8.165h7.166A13.94,13.94,0,0,1,6715.494,4711.854Z" transform="translate(-6657.858 -4661.423)" fill="#646363"/>
            <path id="Path_315" data-name="Path 315" d="M6739.45,4741.658a12.024,12.024,0,1,1,12.024-12.024A12.037,12.037,0,0,1,6739.45,4741.658Zm0-21.448a9.424,9.424,0,1,0,9.423,9.423A9.434,9.434,0,0,0,6739.45,4720.21Z" transform="translate(-6671.475 -4669.999)" fill="#71e5bd"/>
          </g>
        </g>
        <g id="Group_461" data-name="Group 461" transform="translate(23.38 3182.236)">
          <path id="Path_316" data-name="Path 316" d="M6754.44,4742.239a3.819,3.819,0,0,1-.19-1.232,3,3,0,0,1,3.227-2.89,2.843,2.843,0,0,1,3.139,2.831l-1.936.279c-.015-.777-.411-1.291-1.174-1.291a1.073,1.073,0,0,0-1.129,1.145,3.039,3.039,0,0,0,.249,1.159h2.582v1.614h-2.068a1.6,1.6,0,0,1,.015.264,2.12,2.12,0,0,1-.909,1.834h1.921a1.04,1.04,0,0,0,1.085-1.086l1.937.117a2.69,2.69,0,0,1-2.729,2.875h-4.9v-1.731a1.94,1.94,0,0,0,1.525-1.79,2.734,2.734,0,0,0-.059-.484H6753.6v-1.614Z" transform="translate(-6753.561 -4738.117)" fill="#71e5bd"/>
        </g>
      </g>
    </g>
  </g>
</svg>
