<svg xmlns="http://www.w3.org/2000/svg" width="70" height="70" viewBox="0 0 70 70">
  <g id="Group_617" data-name="Group 617" transform="translate(-1698.87 -2880.928)">
    <circle id="Ellipse_207" data-name="Ellipse 207" cx="35" cy="35" r="35" transform="translate(1698.87 2880.928)" fill="#71e5bd"/>
    <g id="Group_616" data-name="Group 616" transform="translate(1717.13 2905.294)">
      <g id="Group_613" data-name="Group 613" transform="translate(2.424 16.695)">
        <path id="Path_393" data-name="Path 393" d="M1845.4,3163.627h-5.823a.6.6,0,0,1-.6-.6v-3.371a.6.6,0,1,1,1.2,0v2.77h5.025l4.436-3.255a.6.6,0,0,1,.711.969l-4.6,3.372A.6.6,0,0,1,1845.4,3163.627Z" transform="translate(-1838.973 -3159.053)" fill="#fff"/>
      </g>
      <g id="Group_614" data-name="Group 614" transform="translate(0 0)">
        <path id="Path_394" data-name="Path 394" d="M1854.32,3063.865h-30.051a1.716,1.716,0,0,1-1.714-1.714,16.187,16.187,0,0,1,24.524-13.872l.018.011a2.275,2.275,0,0,1,.924,2.614,15.131,15.131,0,0,1,5.913,9.533h.386a1.714,1.714,0,0,1,0,3.428Zm-15.582-16.7a15,15,0,0,0-14.981,14.982.512.512,0,0,0,.512.512h30.051a.512.512,0,1,0,0-1.024h-.9a.6.6,0,0,1-.593-.5l-.04-.237a13.923,13.923,0,0,0-5.868-9.3.6.6,0,0,1-.164-.823,1.07,1.07,0,0,0-.308-1.472A15.04,15.04,0,0,0,1838.738,3047.169Z" transform="translate(-1822.555 -3045.967)" fill="#1d1d1b"/>
      </g>
      <g id="Group_615" data-name="Group 615" transform="translate(7.064 2.644)">
        <path id="Path_395" data-name="Path 395" d="M1871,3068.055a.6.6,0,0,1-.366-1.078,15.09,15.09,0,0,1,15.02-1.913.6.6,0,1,1-.468,1.107,13.888,13.888,0,0,0-13.821,1.76A.6.6,0,0,1,1871,3068.055Z" transform="translate(-1870.402 -3063.879)" fill="#fff"/>
      </g>
    </g>
  </g>
</svg>
