<svg viewBox="0 0 150 150" xmlns="http://www.w3.org/2000/svg"><path d="m76.08 10.36 19.45-9.23a4.71 4.71 0 0 1 6.29 2.14l.05.12 32.39 68.22a54.73 54.73 0 0 1 -98.88 46.93l-32.38-68.23a5.14 5.14 0 0 1 2.26-6.31z" fill="#f4f4f4"/><g stroke-linecap="round" stroke-linejoin="round" stroke-width="2.6"><path d="m21.43 96.47h20.31v26.39h-20.31z" fill="#fff" stroke="#1d1d1b"/><path d="m108.25 65.05h20.31v57.97h-20.31z" fill="#d0d0d0" stroke="#1d1d1b"/><path d="m79.1 86.3h20.31v36.9h-20.31z" fill="#fff" stroke="#1d1d1b"/><path d="m50.79 78.77h20.31v44.26h-20.31z" fill="#d0d0d0" stroke="#1d1d1b"/><path d="m31.47 82.25 29.16-21.52 29.15 9.6 29.16-37.43" fill="none" stroke="#70e4bc"/></g><circle cx="30.3" cy="82.81" fill="#70e4bc" r="5.64"/><circle cx="60.95" cy="61.34" fill="#70e4bc" r="5.64"/><circle cx="88.7" cy="68.04" fill="#70e4bc" r="5.64"/><circle cx="120.04" cy="32.45" fill="#70e4bc" r="5.64"/></svg>