<svg viewBox="0 0 150 150" xmlns="http://www.w3.org/2000/svg"><path d="m80.46 15a67.43 67.43 0 1 0 .14 0z" fill="#f4f4f4"/><g stroke-linecap="round" stroke-linejoin="round" stroke-width="2.6"><path d="m19.34 27.26h111.33v33.65h-111.33z" fill="#d0d0d0" stroke="#1d1d1b"/><path d="m35.25 27.26h79.67v95.47h-79.67z" fill="#fff" stroke="#1d1d1b"/><path d="m42.41 101.69s14.08-2.26 13.74 13.74" fill="#fff" stroke="#70e4bc"/><path d="m106.82 101.69s-14.08-2.26-13.74 13.74" fill="#fff" stroke="#70e4bc"/><circle cx="75.09" cy="56.13" fill="#fff" r="20.48" stroke="#70e4bc"/></g><path d="m70.57 55.24a6.16 6.16 0 0 1 -.57-2.56 4.72 4.72 0 0 1 5-4.63c3.8 0 5 2.48 5.09 4.46l-2.65.49a2.23 2.23 0 0 0 -2.37-2.46 2.15 2.15 0 0 0 -2.26 2.24 6.45 6.45 0 0 0 .66 2.51h4.58v2.31h-3.88a4.06 4.06 0 0 1 -2 4.15h4.31a2.1 2.1 0 0 0 2.15-2.29l2.63.29c0 2.61-1.63 4.51-4.22 4.51h-8.16v-2.59a3.62 3.62 0 0 0 2.61-3.24 5.39 5.39 0 0 0 -.1-.88h-2.39v-2.31z" fill="#1d1d1b"/></svg>