<svg viewBox="0 0 150 150" xmlns="http://www.w3.org/2000/svg"><path d="m66.59 14.68a67.43 67.43 0 1 0 .14 0z" fill="#f4f4f4"/><g stroke-linecap="round" stroke-linejoin="round" stroke-width="2.6"><path d="m82.25 35.28s8 10.14.22 22.62-6.26 18-6.26 18" fill="none" stroke="#70e4bc"/><path d="m65.32 49.89s-.79 15.18 13.68 13.56c0 0 1.46-13.36-13.68-13.56z" fill="#fff" stroke="#70e4bc"/><path d="m93.93 20s-15.15 1.17-11.68 15.28c0 0 13.44-.28 11.68-15.28z" fill="#fff" stroke="#70e4bc"/><path d="m103.93 75.61a.49.49 0 0 1 .48.49v14.72a.49.49 0 0 1 -.48.48h-3.65a.49.49 0 0 0 -.48.42l-5 37.86a.48.48 0 0 1 -.47.42h-38.71a.48.48 0 0 1 -.47-.42l-4.95-37.86a.49.49 0 0 0 -.48-.42h-3.65a.49.49 0 0 1 -.48-.48v-14.72a.49.49 0 0 1 .48-.49z" fill="#fff" stroke="#1d1d1b"/><path d="m46.07 75.61h57.86v15.68h-57.86z" fill="#d0d0d0" stroke="#1d1d1b"/></g></svg>