<svg viewBox="0 0 150 150" xmlns="http://www.w3.org/2000/svg"><path d="m124.22 26.31 20.45 6.75a4.69 4.69 0 0 1 3.07 5.94.56.56 0 0 1 0 .12l-23.64 71.72a54.72 54.72 0 0 1 -103.98-34.32l23.65-71.72a5.13 5.13 0 0 1 6-3z" fill="#f4f4f4"/><g stroke-linecap="round" stroke-linejoin="round" stroke-width="2.6"><path d="m35.13 26.17h-.13c-1 .09-13.5 1.46-13.5 13.55v48.28s0 .07 0 .11c.07 1 1.33 14.58 14.63 14.58h26.59a1.55 1.55 0 0 1 1.39.87l9.5 19.44a1.55 1.55 0 0 0 2.78 0l9.5-19.43a1.55 1.55 0 0 1 1.39-.87h26.58c13.3 0 14.56-13.56 14.63-14.58 0 0 0-.07 0-.11v-48.28c0-12.09-12.45-13.46-13.5-13.55h-79.86z" fill="#fff" stroke="#1d1d1b"/><circle cx="44.44" cy="64.7" fill="#d0d0d0" r="7.66" stroke="#1d1d1b"/><circle cx="75" cy="64.7" fill="#fff" r="7.66" stroke="#70e4bc"/><circle cx="105.56" cy="64.7" fill="#d0d0d0" r="7.66" stroke="#1d1d1b"/></g></svg>