<svg viewBox="0 0 150 150" xmlns="http://www.w3.org/2000/svg"><path d="m107.76 18 14.24-5.51-104 39.94h-.09l-14.26 5.5a3.35 3.35 0 0 0 -2 4.3v.08l19.35 50.26a38.92 38.92 0 0 0 50.22 22.51l.17-.07a39.47 39.47 0 0 0 21.88-21.11 39.48 39.48 0 0 0 30.38 1 38.92 38.92 0 0 0 22.5-50.22l-.07-.18-19.29-50.21a4.53 4.53 0 0 0 -4.78-1.8" fill="#f4f4f4"/><g stroke-linecap="round" stroke-linejoin="round" stroke-width="2.6"><rect fill="#fff" height="63.76" rx="2.03" stroke="#1d1d1b" width="87.91" x="31.04" y="66.31"/><path d="m66.91 80.56h16.18" fill="none" stroke="#70e4bc"/><path d="m66.91 92.52h16.18" fill="none" stroke="#70e4bc"/><path d="m66.91 104.47h16.18" fill="none" stroke="#70e4bc"/><path d="m66.91 116.43h16.18" fill="none" stroke="#70e4bc"/><path d="m99.73 55.62v10.69h-49.46v-10.69a24.73 24.73 0 0 1 49.46 0z" fill="none" stroke="#1d1d1b"/><path d="m111.26 57.37v8.94h-11.53v-10.69a24.73 24.73 0 0 0 -49.46 0v10.69h-11.53v-8.94c0-20.68 16.26-37.44 36.26-37.44s36.26 16.76 36.26 37.44z" fill="#d0d0d0" stroke="#1d1d1b"/><path d="m99.73 55.62v10.69h-49.46v-10.69a24.73 24.73 0 0 1 49.46 0z" fill="none" stroke="#1d1d1b"/></g></svg>