<svg viewBox="0 0 150 150" xmlns="http://www.w3.org/2000/svg"><path d="m97.7 11.11 13.07-7.89-95.4 57.58-.08.05-13.07 7.88a3.36 3.36 0 0 0 -1.22 4.58l.05.08 27.82 46.09a38.91 38.91 0 0 0 53.39 13.34l.16-.1a39.39 39.39 0 0 0 17.83-24.62 39.4 39.4 0 0 0 30.09-4.3 38.91 38.91 0 0 0 13.36-53.39l-.1-.16-27.82-46.09a4.51 4.51 0 0 0 -5-.94" fill="#f4f4f4"/><g stroke-linecap="round" stroke-linejoin="round" stroke-width="2.6"><path d="m93.8 69.5 20.12 19.71c6.1 4.91 10.71 0 10.71 0 4.61-4.95 0-11.49 0-11.49s-20.86-21.17-26-25.94c-4.56-4.25-8.88-4.22-8.88-4.22h-38.81l-16 14.34 2.06 1.34 13.65 14.35s2.84 3.93 9.59 3.93h27.46s7.56 0 7.56-7.17a8.07 8.07 0 0 0 -7.37-8.28l-19.89.05" fill="#fff" stroke="#000"/><path d="m44.79 33.71 10.45 10.46-21.51 21.51-10.41-10.41z" fill="#d0d0d0" stroke="#1d1d1b"/><path d="m119.61 29.23v25.56" fill="#d0d0d0" stroke="#1d1d1b"/><path d="m108.41 29.23.11 14.26" fill="#d0d0d0" stroke="#1d1d1b"/><path d="m104.53 120.77a14.77 14.77 0 1 0 -19 0" fill="#fff" stroke="#70e4bc"/><path d="m114.24 120.77h-38.44" fill="#fff" stroke="#70e4bc"/></g><path d="m91.8 108.51a4.4 4.4 0 0 1 -.4-1.81 3.34 3.34 0 0 1 3.53-3.29c2.69 0 3.56 1.74 3.62 3.14l-1.9.32a1.57 1.57 0 0 0 -1.65-1.73 1.51 1.51 0 0 0 -1.59 1.59 4.52 4.52 0 0 0 .47 1.77h3.24v1.64h-2.74a2.71 2.71 0 0 1 0 .41 2.79 2.79 0 0 1 -1.38 2.52h3a1.49 1.49 0 0 0 1.51-1.63l1.86.2a2.93 2.93 0 0 1 -3 3.2h-5.79v-1.79a2.58 2.58 0 0 0 1.83-2.3 4.2 4.2 0 0 0 -.07-.62h-1.63v-1.63z" fill="#1d1d1b"/></svg>