<svg viewBox="0 0 150 150" xmlns="http://www.w3.org/2000/svg"><path d="m67.5 2.11a67.43 67.43 0 1 0 .14 0z" fill="#f4f4f4"/><g stroke-linecap="round" stroke-linejoin="round" stroke-width="2.6"><path d="m79.22 73.57 25.15-25 25 25h-14.1s1.75 21.1-19.47 34.12c0 0-18.81 12.9-41.83-.77l15.18-15.08s9.08 2.74 16.38-3.15c.24-.19 7.34-5.73 7.86-15.1z" fill="#fff" stroke="#1d1d1b"/><path d="m69.6 73.77-25.09 25.1-25.1-25h14.11s-1.8-21.1 19.38-34.17c0 0 18.79-12.94 41.83.67l-15.1 15.11s-9.63-3.13-17.84 3.64c-1.91 1.57-5.86 5.29-6.36 14.67z" fill="#d0d0d0" stroke="#000"/><circle cx="74.03" cy="73.43" fill="#fff" r="13.47" stroke="#70e4bc"/></g><path d="m70 72.64a5.43 5.43 0 0 1 -.49-2.26 4.16 4.16 0 0 1 4.49-4.08c3.36 0 4.43 2.19 4.5 3.93l-2.37.39a2 2 0 0 0 -2.13-2.17 1.9 1.9 0 0 0 -2 2 5.66 5.66 0 0 0 .58 2.21h4v2h-3.36a4.8 4.8 0 0 1 0 .52 3.5 3.5 0 0 1 -1.79 3.14h3.81a1.86 1.86 0 0 0 1.89-2l2.32.25a3.66 3.66 0 0 1 -3.72 4h-7.17v-2.25a3.2 3.2 0 0 0 2.3-2.86 5.18 5.18 0 0 0 -.09-.78h-2.11v-2z" fill="#1d1d1b"/></svg>