<svg viewBox="0 0 150 150" xmlns="http://www.w3.org/2000/svg"><path d="m87.1 11.38 11.56-10-84.39 72.78-.07.06-11.56 10a3.34 3.34 0 0 0 -.42 4.71l.06.07 35.15 40.78a38.92 38.92 0 0 0 54.87 4.22l.15-.13a39.4 39.4 0 0 0 13.44-27.26 39.43 39.43 0 0 0 29-9.28 38.92 38.92 0 0 0 4.11-54.92l-.12-.14-35.11-40.78a4.52 4.52 0 0 0 -5.11-.08" fill="#f4f4f4"/><g stroke-linecap="round" stroke-linejoin="round" stroke-width="2.6"><path d="m33.4 78.19v-25.66s.52-7.38 7.52-7.38h68s7.13.26 7.39 6.22 0 26.82 0 26.82z" fill="#fff" stroke="#70e4bc"/><path d="m41.82 71.58v-6.22a4.63 4.63 0 0 1 4.8-3.61c4.15 0 20-.08 20-.08s4.38 0 4.38 4.33v5.54" fill="#d0d0d0" stroke="#1d1d1b"/><path d="m79.07 71.55v-6.22a4.63 4.63 0 0 1 4.8-3.61c4.15 0 20-.08 20-.08s4.37 0 4.37 4.37v5.54" fill="#d0d0d0" stroke="#1d1d1b"/><path d="m38.43 96.43h73a1.82 1.82 0 0 1 1.27.52l7.37 7.38a1.82 1.82 0 0 0 1.27.52h5.66a1.78 1.78 0 0 0 1.78-1.78v-24.07a1.27 1.27 0 0 0 0-.2c-.1-.91-1-7.19-7.28-7.19h-91.73s-8.55.1-8.55 7.35v24.14a1.78 1.78 0 0 0 1.78 1.75h5.76a1.78 1.78 0 0 0 1.28-.54l7.11-7.31a1.82 1.82 0 0 1 1.28-.57z" fill="#fff" stroke="#1d1d1b"/></g></svg>