<svg viewBox="0 0 150 150" xmlns="http://www.w3.org/2000/svg"><path d="m31 119.82-20-8a4.7 4.7 0 0 1 -2.7-6.07s0-.08 0-.12l28-70.13a54.72 54.72 0 1 1 101.7 40.63l-28 70.12a5.15 5.15 0 0 1 -6.19 2.66z" fill="#f4f4f4"/><g stroke-linecap="round" stroke-linejoin="round" stroke-width="2.6"><path d="m124.06 125.71h-20.27-6.5-52.15v-102.18h78.92v75.61z" fill="#fff" stroke="#1d1d1b"/><path d="m63.22 40.58h48.84" fill="#fff" stroke="#000"/><path d="m72.48 57.6h39.58" fill="#fff" stroke="#000"/><path d="m77.09 74.62h34.97" fill="#fff" stroke="#000"/><path d="m52.89 80a19.34 19.34 0 1 0 -26.95-17.81 19 19 0 0 0 11.27 17.81v38.67l7.85 7.84 7.85-7.86v-4l-3.83-3.83 3.81-3.82v-3.9l-3.89-3.89 3.91-3.91z" fill="#fff" stroke="#70e4bc"/><circle cx="45.27" cy="58.38" fill="#d0d0d0" r="4.53" stroke="#1d1d1b" transform="matrix(.92387953 -.38268343 .38268343 .92387953 -18.89 21.77)"/></g></svg>