<svg viewBox="0 0 150 150" xmlns="http://www.w3.org/2000/svg"><path d="m125.42 28.76 20.18 7.53a4.7 4.7 0 0 1 2.84 6l-.05.12-26.39 70.76a54.72 54.72 0 0 1 -102.53-38.23l26.38-70.76a5.13 5.13 0 0 1 6.15-2.8z" fill="#f4f4f4"/><g stroke-linecap="round" stroke-linejoin="round" stroke-width="2.6"><path d="m48.42 111.21h80v-57.76h-68.89v50.14" fill="#fff" stroke="#1d1d1b"/><path d="m71.15 65.48h38.39" fill="none" stroke="#70e4bc"/><path d="m71.15 73.8h31.11" fill="none" stroke="#70e4bc"/><path d="m91.08 99.78h3.81" fill="none" stroke="#70e4bc"/><path d="m101.07 99.78h16.92" fill="none" stroke="#70e4bc"/><path d="m50.65 111.21s8.88.36 8.88-7.62-8.76-8.26-8.76-8.26h-29.19v-56.58h29.07s8.88-.35 8.88 6.79v58" fill="#fff" stroke="#1d1d1b"/><path d="m37.22 95.43v15.82h13.52s8.88.32 8.88-7.66-8.44-8.16-8.44-8.16z" fill="#d0d0d0" stroke="#1d1d1b"/></g></svg>