<svg viewBox="0 0 150 150" xmlns="http://www.w3.org/2000/svg"><path d="m69.17 2.63a67.43 67.43 0 1 0 .14 0z" fill="#f4f4f4"/><g fill="#fff" stroke-linecap="round" stroke-linejoin="round" stroke-width="2.6"><path d="m114.45 113.43h-17.88-5.72-45.99v-89.73h69.59v66.39z" stroke="#1d1d1b"/><path d="m55.44 38.67h48.43" stroke="#000"/><path d="m55.44 53.62h48.43" stroke="#000"/><path d="m55.44 68.56h48.43" stroke="#000"/><circle cx="58.07" cy="103.77" r="22.53" stroke="#70e4bc"/></g><path d="m51.7 93a5 5 0 1 1 0 10 5 5 0 1 1 0-10zm-2.3 20.39 14.34-20.16h3.26l-14.3 20.11zm2.3-13.1a2.17 2.17 0 0 0 2.17-2.29 2.14 2.14 0 0 0 -2.17-2.27 2.17 2.17 0 0 0 -2.21 2.27 2.19 2.19 0 0 0 2.21 2.24zm13 3.42a5 5 0 1 1 -5.09 5 5.07 5.07 0 0 1 5.06-5.05zm0 7.29a2.17 2.17 0 0 0 2.17-2.3 2.14 2.14 0 0 0 -2.17-2.26 2.17 2.17 0 0 0 -2.21 2.26 2.2 2.2 0 0 0 2.18 2.3z" fill="#70e4bc"/></svg>