<svg viewBox="0 0 150 150" xmlns="http://www.w3.org/2000/svg"><path d="m134.05 55 13.31 7.47-97.18-54.47h-.08l-13.31-7.55a3.35 3.35 0 0 0 -4.58 1.22s0 .05 0 .08l-26.37 46.95a38.92 38.92 0 0 0 14.77 53l.17.09a39.41 39.41 0 0 0 30.22 3.36 39.45 39.45 0 0 0 18.6 24 38.91 38.91 0 0 0 53-14.78 1.4 1.4 0 0 1 .1-.16l26.33-47a4.5 4.5 0 0 0 -1.67-4.82" fill="#f4f4f4"/><g stroke-linecap="round" stroke-linejoin="round" stroke-width="2.6"><path d="m101.63 56.37s3-3.69-1.18-7.39-22-10.93-39.74-6.5-27 14.76-33.6 25-7.11 23.1-7.18 26.86 5 3.4 5 3.4h102.38a4.09 4.09 0 0 0 2.4-4.11c-.37-2.92-2.29-3.66-3.4-3.8h-3.55s-3.29-21.45-21.13-33.46z" fill="#fff" stroke="#1d1d1b"/><path d="m43.72 60.07s20.39-17.59 49.2-6.07" fill="none" stroke="#70e4bc"/><path d="m28.2 97.74v11.38h19.65l15.52-11.38z" fill="#d0d0d0" stroke="#1d1d1b"/></g></svg>