<svg id="Layer_1" data-name="Layer 1" xmlns="http://www.w3.org/2000/svg" viewBox="0 0 150 150"><defs><style>.cls-1{fill:#f4f4f4;}.cls-2,.cls-3,.cls-4{fill:#fff;stroke-linejoin:round;stroke-width:2.6px;}.cls-2,.cls-4{stroke:#1d1d1b;}.cls-2,.cls-3{stroke-linecap:round;}.cls-3{stroke:#70e4bc;}</style></defs><title>Artboard 1 copy 20</title><path id="Path_2" data-name="Path 2" class="cls-1" d="M125.45,33.09l19.61,8.79A4.68,4.68,0,0,1,147.5,48a.61.61,0,0,1-.05.12l-30.82,68.77A54.61,54.61,0,1,1,17,72.25L47.79,3.48a5.14,5.14,0,0,1,6.28-2.39Z"/><rect class="cls-2" x="58.33" y="118.59" width="33.33" height="11.98"/><path class="cls-3" d="M106.81,72.67a32.34,32.34,0,1,0-48.48,28v11.49H91.67V100.06A32.32,32.32,0,0,0,106.81,72.67Z"/><polyline class="cls-4" points="80.03 110.88 80.03 77.52 78.77 76.26 75 80.03 71.24 76.26 69.97 77.53 69.97 110.88"/><polyline class="cls-2" points="63.69 76.26 67.47 80.03 71.24 76.26 75 80.02 75 80.03 78.77 76.26 82.55 80.03 86.31 76.27"/><path class="cls-2" d="M49.62,63.8A26.41,26.41,0,0,1,74.47,46.29"/><line class="cls-2" x1="74.47" y1="33.92" x2="74.47" y2="20"/><line class="cls-2" x1="93.87" y1="39.12" x2="100.83" y2="27.07"/><line class="cls-2" x1="108.06" y1="53.33" x2="120.12" y2="46.38"/><line class="cls-2" x1="113.23" y1="72.73" x2="127.14" y2="72.75"/><line class="cls-2" x1="108" y1="92.12" x2="120.03" y2="99.1"/><line class="cls-2" x1="40.83" y1="91.91" x2="28.75" y2="98.82"/><line class="cls-2" x1="35.72" y1="72.49" x2="21.8" y2="72.43"/><line class="cls-2" x1="41.01" y1="53.12" x2="28.99" y2="46.1"/><line class="cls-2" x1="55.29" y1="39" x2="48.4" y2="26.91"/></svg>