<svg id="Layer_1" data-name="Layer 1" xmlns="http://www.w3.org/2000/svg" viewBox="0 0 150 150"><defs><style>.cls-1{fill:#f4f4f4;}.cls-2,.cls-3{fill:#fff;stroke-linecap:round;stroke-linejoin:round;stroke-width:2.6px;}.cls-2{stroke:#1d1d1b;}.cls-3{stroke:#70e4bc;}.cls-4{fill:#1d1d1b;}</style></defs><title>Artboard 1 copy 19</title><path id="Path_1" data-name="Path 1" class="cls-1" d="M85.27,13.63,96.54,3.34,14.27,78.48l-.07.06L2.93,88.83a3.35,3.35,0,0,0-.28,4.73l.06.07L39,133.38A38.91,38.91,0,0,0,94,136l.14-.13a39.46,39.46,0,0,0,12.66-27.64,39.44,39.44,0,0,0,28.67-10.1,38.92,38.92,0,0,0,2.62-55L138,43,101.64,3.27a4.49,4.49,0,0,0-5.1.07"/><line class="cls-2" x1="116.47" y1="75.11" x2="94.83" y2="75.11"/><line class="cls-2" x1="33.53" y1="75.11" x2="56.27" y2="75.11"/><line class="cls-2" x1="75" y1="33.64" x2="75" y2="52.81"/><line class="cls-2" x1="75" y1="116.59" x2="75" y2="94.94"/><circle class="cls-2" cx="123.12" cy="72.25" r="6.65"/><circle class="cls-2" cx="26.88" cy="75.11" r="6.65"/><circle class="cls-2" cx="75" cy="123.23" r="6.65"/><circle class="cls-3" cx="106.81" cy="43.27" r="9.63"/><circle class="cls-3" cx="43.15" cy="106.95" r="9.63"/><circle class="cls-3" cx="106.82" cy="106.95" r="9.63"/><circle class="cls-3" cx="43.14" cy="43.28" r="9.63"/><circle class="cls-2" cx="75" cy="26.77" r="6.65"/><circle class="cls-3" cx="75" cy="75" r="22.19"/><path class="cls-4" d="M69.11,73.68a7.54,7.54,0,0,1-.69-3.14c0-3.12,2.52-5.69,6.17-5.69,4.68,0,6.18,3.05,6.26,5.48l-3.29.54a2.74,2.74,0,0,0-2.91-3,2.64,2.64,0,0,0-2.78,2.76,7.94,7.94,0,0,0,.8,3.08h5.64v2.85H73.54a5.83,5.83,0,0,1,.06.72,4.87,4.87,0,0,1-2.48,4.38h5.3a2.58,2.58,0,0,0,2.64-2.82l3.23.36c0,3.2-2,5.54-5.18,5.54H67V81.6a4.46,4.46,0,0,0,3.21-4,6.61,6.61,0,0,0-.12-1.08H67.19V73.68Z"/></svg>