<svg viewBox="0 0 150 150" xmlns="http://www.w3.org/2000/svg"><path d="m125.45 33.09 19.61 8.79a4.68 4.68 0 0 1 2.44 6.12.61.61 0 0 1 -.05.12l-30.82 68.77a54.61 54.61 0 1 1 -99.63-44.64l30.79-68.77a5.14 5.14 0 0 1 6.28-2.39z" fill="#70e4bc"/><g stroke="#1d1d1b" stroke-linecap="round" stroke-linejoin="round" stroke-width="2.6"><path d="m106.81 72.67a32.34 32.34 0 1 0 -48.48 28v11.49h33.34v-12.1a32.32 32.32 0 0 0 15.14-27.39z" fill="#fff"/><path d="m58.33 118.59h33.33v11.98h-33.33z" fill="#d0d0d0"/><path d="m80.03 77.52-1.26-1.26-3.77 3.77-3.76-3.77-1.27 1.27v34.65h10.06z" fill="#d0d0d0"/><path d="m63.69 76.26 3.78 3.77 3.77-3.77 3.76 3.76v.01l3.77-3.77 3.78 3.77 3.76-3.76" fill="#fff"/><path d="m49.62 63.8a26.41 26.41 0 0 1 24.85-17.51" fill="#fff"/><path d="m74.47 33.92v-13.92" fill="#fff"/><path d="m93.87 39.12 6.96-12.05" fill="#fff"/><path d="m108.06 53.33 12.06-6.95" fill="#fff"/><path d="m113.23 72.73 13.91.02" fill="#fff"/><path d="m108 92.12 12.03 6.98" fill="#fff"/><path d="m40.83 91.91-12.08 6.91" fill="#fff"/><path d="m35.72 72.49-13.92-.06" fill="#fff"/><path d="m41.01 53.12-12.02-7.02" fill="#fff"/><path d="m55.29 39-6.89-12.09" fill="#fff"/></g></svg>