<svg width="44" height="41" viewBox="0 0 44 41" fill="none" xmlns="http://www.w3.org/2000/svg">
<path d="M9.72041 1.40445L4.32352 2.14363L1.4591 5.42069L1.37305 22.2125L2.19672 28.6927L5.71269 31.477L18.1784 31.3168L22.432 40.1624L26.9315 31.2306L37.6761 31.2676L41.6469 29.8754L43.1099 25.4526L43.0361 14.796L43.1591 5.95044L40.3807 1.89724L37.2704 1.28125L9.72041 1.40445Z" fill="white"/>
<path d="M22.3825 40.9531C22.2579 40.9531 22.1357 40.9186 22.0294 40.8533C21.923 40.7881 21.8368 40.6947 21.7802 40.5835L17.4774 31.9719H7.3966C5.64673 31.9687 3.96945 31.2706 2.7321 30.0306C1.49475 28.7907 0.798171 27.1098 0.794922 25.3562V7.30774C0.794919 5.552 1.49006 3.86799 2.72776 2.62535C3.96546 1.3827 5.6446 0.682951 7.3966 0.679688H37.3562C39.1103 0.679688 40.7926 1.378 42.033 2.621C43.2733 3.864 43.9701 5.54987 43.9701 7.30774V25.3562C43.9669 27.1119 43.2686 28.7946 42.0286 30.035C40.7886 31.2753 39.1082 31.9719 37.3562 31.9719H27.2754L22.9849 40.5835C22.9283 40.6947 22.842 40.7881 22.7357 40.8533C22.6294 40.9186 22.5072 40.9531 22.3825 40.9531ZM7.3966 2.03486C6.00325 2.03813 4.66808 2.5951 3.68398 3.5836C2.69989 4.5721 2.14722 5.91142 2.14722 7.30774V25.3562C2.15047 26.7504 2.70457 28.0865 3.68832 29.0724C4.67207 30.0582 6.00538 30.6135 7.3966 30.6168H17.8954C18.0212 30.6185 18.1444 30.6536 18.2524 30.7185C18.3604 30.7834 18.4493 30.8759 18.51 30.9864L22.3825 38.7601L26.255 30.9864C26.3117 30.8751 26.3979 30.7817 26.5042 30.7165C26.6105 30.6513 26.7328 30.6167 26.8574 30.6168H37.3562C38.7495 30.6168 40.086 30.0629 41.0724 29.0767C42.0588 28.0905 42.6146 26.7525 42.6178 25.3562V7.30774C42.6178 5.90928 42.0635 4.56811 41.0767 3.57926C40.09 2.5904 38.7517 2.03486 37.3562 2.03486H7.3966Z" fill="white"/>
</svg>
