<svg width="59" height="46" viewBox="0 0 59 46" fill="none" xmlns="http://www.w3.org/2000/svg">
<path d="M54.0372 46H4.94493C3.63346 46 2.37569 45.4878 1.44834 44.5761C0.520985 43.6644 1.03992e-10 42.4278 1.04012e-10 41.1385V8.86302C-8.49537e-06 7.57205 0.520405 6.3337 1.44725 5.4192C2.3741 4.5047 3.63182 3.98861 4.94493 3.98396H6.64085L10.479 0.263258C10.6449 0.0994896 10.8688 0.00515459 11.1038 0H21.315C21.55 0.00515459 21.7739 0.0994896 21.9398 0.263258L25.7779 3.98396H54.0372C55.3534 3.98396 56.6157 4.49801 57.5464 5.41301C58.4771 6.32801 59 7.56902 59 8.86302V41.1385C59 41.7784 58.8715 42.412 58.6219 43.0029C58.3723 43.5939 58.0064 44.1306 57.5454 44.5823C57.0843 45.034 56.5371 45.3917 55.935 45.635C55.333 45.8782 54.6881 46.0023 54.0372 46ZM4.94493 5.72147C4.10054 5.72611 3.29235 6.05915 2.69694 6.6478C2.10153 7.23646 1.76731 8.03287 1.76733 8.86302V41.1385C1.76733 41.967 2.10211 42.7616 2.69803 43.3475C3.29394 43.9333 4.10218 44.2625 4.94493 44.2625H54.0372C54.8816 44.2625 55.6917 43.9339 56.2905 43.3486C56.8892 42.7632 57.228 41.9686 57.2327 41.1385V8.86302C57.2327 8.02983 56.896 7.23077 56.2967 6.64161C55.6975 6.05246 54.8847 5.72147 54.0372 5.72147H25.403C25.2904 5.72174 25.1788 5.7002 25.0747 5.65804C24.9705 5.61588 24.8759 5.55392 24.7961 5.47576L20.9579 1.73751H11.4608L7.6227 5.47576C7.54291 5.55392 7.44825 5.61588 7.3441 5.65804C7.23995 5.7002 7.12837 5.72174 7.01574 5.72147H4.94493Z" fill="white"/>
<path d="M12.0144 1L21.2615 1.38306L25.9386 5.40522L53.8763 5.31816L57.036 6.62406L58 11.7258L57.9107 42.3011L53.9477 45H26.492H3.37426L1 41.448L1.08926 7.32054L3.46351 5.16146H7.49796L12.0144 1Z" fill="white"/>
</svg>
