<svg viewBox="0 0 150 150" xmlns="http://www.w3.org/2000/svg"><path d="m85.27 13.63 11.27-10.29-82.27 75.14-.07.06-11.27 10.29a3.35 3.35 0 0 0 -.28 4.73l.06.07 36.29 39.75a38.91 38.91 0 0 0 55 2.62l.14-.13a39.46 39.46 0 0 0 12.66-27.64 39.44 39.44 0 0 0 28.67-10.1 38.92 38.92 0 0 0 2.62-55l-.09-.13-36.36-39.73a4.49 4.49 0 0 0 -5.1.07" fill="#70e4bc"/><g stroke="#1d1d1b" stroke-linecap="round" stroke-linejoin="round" stroke-width="2.6"><g fill="#fff"><path d="m116.47 75.11h-21.64"/><path d="m33.53 75.11h22.74"/><path d="m75 33.64v19.17"/><path d="m75 116.59v-21.65"/><circle cx="123.12" cy="72.25" r="6.65"/><circle cx="26.88" cy="75.11" r="6.65"/><circle cx="75" cy="123.23" r="6.65"/></g><circle cx="106.81" cy="43.27" fill="#d0d0d0" r="9.63"/><circle cx="43.15" cy="106.95" fill="#d0d0d0" r="9.63"/><circle cx="106.82" cy="106.95" fill="#d0d0d0" r="9.63"/><circle cx="43.14" cy="43.28" fill="#d0d0d0" r="9.63"/><circle cx="75" cy="26.77" fill="#fff" r="6.65"/><circle cx="75" cy="75" fill="#fff" r="22.19"/></g><path d="m69.11 73.68a7.54 7.54 0 0 1 -.69-3.14c0-3.12 2.52-5.69 6.17-5.69 4.68 0 6.18 3.05 6.26 5.48l-3.29.54a2.74 2.74 0 0 0 -2.91-3 2.64 2.64 0 0 0 -2.78 2.76 7.94 7.94 0 0 0 .8 3.08h5.64v2.85h-4.77a5.83 5.83 0 0 1 .06.72 4.87 4.87 0 0 1 -2.48 4.38h5.3a2.58 2.58 0 0 0 2.64-2.82l3.23.36c0 3.2-2 5.54-5.18 5.54h-10.11v-3.14a4.46 4.46 0 0 0 3.21-4 6.61 6.61 0 0 0 -.12-1.08h-2.9v-2.84z" fill="#1d1d1b"/></svg>