<svg width="34" height="43" viewBox="0 0 34 43" fill="none" xmlns="http://www.w3.org/2000/svg">
<path d="M7.93546 0.757812H26.6965C27.026 0.842554 27.3585 0.915402 27.6834 1.01352C29.3205 1.50903 30.752 2.50195 31.7688 3.84713C32.7856 5.19232 33.3342 6.81924 33.3346 8.49007C33.3468 15.4121 33.3468 22.3341 33.3346 29.2561C33.3346 31.4862 31.5713 33.1958 29.2849 33.2285C29.1583 33.2285 29.0317 33.2538 28.8487 33.2732C28.9646 33.453 29.0333 33.5705 29.111 33.679L33.6076 40.0272C34.1384 40.7705 34.1277 41.3102 33.5588 42.0134H31.73C31.1366 41.1675 30.5326 40.329 29.9561 39.4712C29.8709 39.3305 29.7466 39.2162 29.5977 39.1415C29.4487 39.0668 29.281 39.0347 29.1141 39.0489C21.4643 39.0608 13.8149 39.0638 6.16613 39.0578C5.86107 39.0578 5.55601 39.0415 5.25095 39.0668C5.10457 39.0746 4.96668 39.1362 4.86506 39.2392C4.20003 40.1565 3.55331 41.0872 2.90048 42.0134H1.07167C0.502733 41.3042 0.492056 40.7765 1.02438 40.0272C2.53137 37.9012 4.03733 35.7747 5.54228 33.6478C5.61702 33.5422 5.67804 33.4278 5.78633 33.2538C5.57432 33.2404 5.44009 33.2434 5.30892 33.2241C4.90777 33.1661 4.48831 33.1587 4.11309 33.0293C2.26292 32.3901 1.29588 31.0223 1.29436 29.1075C1.29436 22.2964 1.29436 15.4859 1.29436 8.67591C1.29274 8.16928 1.33561 7.66345 1.42248 7.16395C1.82973 4.84918 3.1003 3.0934 5.11826 1.83417C5.98157 1.29451 6.9425 0.998656 7.93546 0.757812ZM17.2962 18.2323C20.8165 18.2323 24.3364 18.2323 27.8557 18.2323C28.7602 18.2323 29.3246 17.7179 29.3307 16.8378C29.3444 14.6955 29.3536 12.5532 29.3307 10.4109C29.322 9.73332 29.0423 9.08584 28.5512 8.60629C28.06 8.12673 27.3962 7.853 26.7011 7.84336C20.4484 7.83643 14.1947 7.8389 7.94004 7.8508C7.58547 7.85842 7.2362 7.93632 6.91352 8.07975C5.84582 8.54657 5.31807 9.39695 5.30587 10.5209C5.28299 12.5755 5.30587 14.6331 5.29061 16.6877C5.28299 17.5217 5.77108 18.2561 6.89064 18.2442C10.3515 18.2115 13.82 18.2308 17.2885 18.2323H17.2962ZM6.88912 36.416H27.6864C27.6739 36.3427 27.6518 36.2713 27.6208 36.2034C26.9695 35.2742 26.3228 34.3406 25.6502 33.4278C25.5864 33.3651 25.5103 33.3156 25.4264 33.2824C25.3425 33.2492 25.2526 33.2329 25.1621 33.2345C19.9263 33.2236 14.6894 33.2196 9.4516 33.2226C9.33852 33.2151 9.22557 33.239 9.12592 33.2917C9.02627 33.3443 8.94402 33.4235 8.88877 33.5199C8.29543 34.3822 7.68379 35.2341 7.0813 36.0904C7.02029 36.1677 6.97758 36.2629 6.88912 36.416ZM17.3099 5.87796C18.4279 5.87796 19.546 5.88837 20.6655 5.87796C20.866 5.87594 21.0634 5.82904 21.2424 5.74087C21.4213 5.6527 21.5771 5.52562 21.6977 5.36945C21.8183 5.21328 21.9004 5.03218 21.9378 4.84015C21.9751 4.64812 21.9667 4.4503 21.9132 4.26194C21.7515 3.64793 21.2726 3.30748 20.513 3.30005C19.4072 3.28816 18.3013 3.30005 17.1955 3.30005C16.0897 3.30005 15.0098 3.28072 13.9176 3.31938C13.7453 3.32198 13.5752 3.35831 13.4175 3.4262C13.2598 3.49409 13.1177 3.59216 12.9996 3.7146C12.8815 3.83704 12.7899 3.98134 12.7301 4.13895C12.6704 4.29656 12.6437 4.46427 12.6517 4.63212C12.6644 4.97521 12.8159 5.29945 13.0731 5.534C13.3303 5.76855 13.6723 5.89435 14.0244 5.88391C15.1241 5.88391 16.2163 5.87945 17.3099 5.87796ZM8.00562 22.8262C7.29915 22.8159 6.61738 23.0794 6.11025 23.559C5.60311 24.0385 5.31213 24.6947 5.30129 25.3833C5.30509 26.072 5.58434 26.7321 6.07967 27.2232C6.57501 27.7143 7.24736 27.9978 7.95377 28.0133C8.64757 28.0109 9.31333 27.7461 9.81071 27.2746C10.3081 26.8031 10.5982 26.1618 10.62 25.4859C10.6348 25.1414 10.578 24.7976 10.4531 24.475C10.3283 24.1525 10.1378 23.8578 9.89324 23.6087C9.64867 23.3596 9.355 23.1613 9.02985 23.0255C8.7047 22.8898 8.35477 22.8195 8.00105 22.8188L8.00562 22.8262ZM24.0013 25.3997C24.0008 26.0817 24.2745 26.7367 24.7639 27.2243C25.2532 27.7118 25.9191 27.9929 26.6187 28.0073C27.3254 28.0055 28.0033 27.7344 28.5075 27.2518C29.0117 26.7692 29.3022 26.1135 29.317 25.4249C29.3207 24.7429 29.0485 24.0869 28.5595 23.599C28.0704 23.1112 27.4038 22.8309 26.7041 22.8188C26.3511 22.809 25.9997 22.8686 25.6708 22.9942C25.342 23.1197 25.0424 23.3086 24.7902 23.5495C24.5379 23.7904 24.338 24.0784 24.2025 24.3963C24.0669 24.7142 23.9985 25.0554 24.0013 25.3997Z" fill="white"/>
</svg>
