<svg viewBox="0 0 150 150" xmlns="http://www.w3.org/2000/svg"><path d="m68.59 14.68a67.43 67.43 0 1 0 .14 0z" fill="#f4f4f4"/><circle cx="84.78" cy="59.04" fill="#fff" r="32.5" stroke="#70e4bc" stroke-linecap="round" stroke-linejoin="round" stroke-width="2.6"/><path d="m77.6 57.58a9.83 9.83 0 0 1 -.87-4.08c0-4 3.3-7.34 8-7.32 6 0 8 4 8.06 7.15l-4.24.67c0-2.56-1.49-3.92-3.74-3.94a3.42 3.42 0 0 0 -3.62 3.55 10.29 10.29 0 0 0 1 4h7.29v3.68h-6.17a5.82 5.82 0 0 1 .07.93 6.27 6.27 0 0 1 -3.25 5.64h6.86a3.35 3.35 0 0 0 3.44-3.63l4.18.5c0 4.14-2.64 7.15-6.75 7.13l-13-.08v-4c2.56-1 4.17-2.93 4.18-5.14a8.21 8.21 0 0 0 -.15-1.39h-3.8v-3.69z" fill="#1d1d1b"/><g stroke="#1d1d1b" stroke-linecap="round" stroke-linejoin="round" stroke-width="2.6"><path d="m21.05 100.48 12.02-12.15 22.13 23.44-11.83 11.7z" fill="#d0d0d0"/><path d="m67.67 88.59 19.4.07a10.3 10.3 0 0 0 5.93-1.75 7.25 7.25 0 0 0 3.23-6.91c.06-2.45-1.74-4.26-3.73-5.51a15 15 0 0 0 -7.9-2.23c-4.82 0-16.19-.09-20.86-.13a17.32 17.32 0 0 0 -4.7.6c-3 .81-6 2.06-8 4l-14.86 14.89 15.21 16.11 40.39.25c2.72 0 6.63-3.46 6.63-3.46l27.25-27q.16-.16.3-.33c.94-1.2 5.73-7.73.8-12-4.51-3.89-9.78-1-11.44.12a5.9 5.9 0 0 0 -.86.71l-19.9 19.55" fill="#fff"/></g></svg>