<svg viewBox="0 0 150 150" xmlns="http://www.w3.org/2000/svg"><path d="m137 79.07 11.28 10.28-82.28-75.07-.06-.07-11.33-10.28a3.36 3.36 0 0 0 -4.73.15l-.07.07-36.27 39.78a38.92 38.92 0 0 0 2.4 55l.15.13a39.44 39.44 0 0 0 28.67 10.09 39.4 39.4 0 0 0 12.69 27.62 38.91 38.91 0 0 0 55-2.4l.13-.14 36.27-39.78a4.51 4.51 0 0 0 -.53-5.08" fill="#70e4bc"/><g stroke="#1d1d1b" stroke-linecap="round" stroke-linejoin="round" stroke-width="2.6"><path d="m20.08 96.49h20.79v27.01h-20.79z" fill="#d0d0d0" transform="matrix(.99998134 .00610861 -.00610861 .99998134 .67 -.18)"/><path d="m109.03 64.87h20.79v59.33h-20.79z" fill="#fff" transform="matrix(.99998134 .00610861 -.00610861 .99998134 .58 -.72)"/><path d="m79.12 86.43h20.79v37.76h-20.79z" fill="#d0d0d0" transform="matrix(.99998134 .00610861 -.00610861 .99998134 .64 -.54)"/><path d="m50.18 78.55h20.79v45.3h-20.79z" fill="#fff" transform="matrix(.99998134 .00610861 -.00610861 .99998134 .62 -.37)"/><path d="m30.52 81.93 29.97-21.84 29.79 10.01 30.07-38.13" fill="none"/><circle cx="29.32" cy="82.5" fill="#fff" r="5.77"/><circle cx="60.82" cy="60.72" fill="#fff" r="5.77"/><circle cx="89.18" cy="67.75" fill="#fff" r="5.77"/><circle cx="121.48" cy="31.51" fill="#fff" r="5.77"/></g></svg>