<svg viewBox="0 0 150 150" xmlns="http://www.w3.org/2000/svg"><path d="m69.49 12a67.43 67.43 0 1 0 .15 0z" fill="#70e4bc"/><g stroke-linecap="round" stroke-linejoin="round" stroke-width="2.6"><path d="m27.59 43.82 64.5-17.66a8 8 0 0 1 7.31 1.58 8 8 0 0 1 2.51 4l8.93 32a5.75 5.75 0 0 1 .16.65 8.23 8.23 0 0 1 -5.92 9.5l-64.39 17.77a8 8 0 0 1 -10.1-5.61l-8.81-32.35a7.92 7.92 0 0 1 -.18-3.49 7.73 7.73 0 0 1 5.99-6.39z" fill="#d0d0d0" stroke="#1d1d1b"/><path d="m36.29 25.62 66.87.3a8.09 8.09 0 0 1 6.63 3.49 8 8 0 0 1 1.34 4.51v33.2a4.25 4.25 0 0 1 0 .67 8.22 8.22 0 0 1 -8.25 7.56l-66.81-.13a8.07 8.07 0 0 1 -8.22-8.12l.15-33.53a8.23 8.23 0 0 1 .76-3.41 7.75 7.75 0 0 1 7.53-4.54z" fill="#fff" stroke="#1d1d1b"/><path d="m97.72 107.38 30.56.36-.11 16.64-30.56-.18z" fill="#d0d0d0" stroke="#1d1d1b"/><path d="m111.17 42.3 16.23 16.82a4 4 0 0 1 1.12 2.79l-.24 45.66-28.08-.38-3.15-6.43a24.16 24.16 0 0 1 -2.47-10.76l.06-9.51-14.4-16.2s-3.4-4.57 1.81-9.5a6.92 6.92 0 0 1 9.65-.32l17.3 17.61 6.36 6.46-6.36-6.46.66-1.78a21.54 21.54 0 0 0 1.37-7.49z" fill="#fff" stroke="#1d1d1b"/><path d="m36.86 35.01h8.19v7.72h-8.19z" fill="#fff" stroke="#70e4bc" transform="matrix(.00610861 -.99998134 .99998134 .00610861 1.84 79.59)"/><path d="m91.11 35.08-.03 5.05" fill="#fff" stroke="#70e4bc"/><path d="m94.98 35.1-.03 5.05" fill="#fff" stroke="#70e4bc"/><path d="m98.69 35.12-.03 5.05" fill="#fff" stroke="#70e4bc"/><path d="m102.36 35.15-.03 5.05" fill="#fff" stroke="#70e4bc"/><path d="m36.44 68.89 8.19.05" fill="#fff" stroke="#70e4bc"/><path d="m54.13 68.99 8.19.05" fill="#fff" stroke="#70e4bc"/></g></svg>