<svg viewBox="0 0 150 150" xmlns="http://www.w3.org/2000/svg"><path d="m21.18 103.59-17.52-12.52a4.69 4.69 0 0 1 -1.18-6.53l.08-.1 43.9-61.44a54.72 54.72 0 1 1 89 63.63l-43.86 61.43a5.14 5.14 0 0 1 -6.6 1.11z" fill="#70e4bc"/><path d="m99.42 72.4-57.55-.35-12.21-21.37a8.24 8.24 0 0 1 3.34-11.18l30.1-16.38a8.23 8.23 0 0 1 11.17 3.3z" fill="#fff"/><path d="m69.57 37a1.1 1.1 0 0 0 1-1.62l-3.14-5.76a1.1 1.1 0 1 0 -1.93 1.05l3.14 5.76a1.08 1.08 0 0 0 .93.57z" fill="#70e4bc"/><path d="m121.28 72.53.06-10.46-27.59-.17 6 10.77 21.58-.14" fill="#fff"/><path d="m106.48 61.83 14.75.09-.06 11-22.06-.13-5.24-11.04z" fill="#d0d0d0"/><path d="m98.73 73.21-5.94-10.78a1 1 0 0 1 -.14-.54 1.1 1.1 0 0 1 1.11-1.09l27.59.17a1.1 1.1 0 0 1 1.09 1.1l-.06 10.47a1.1 1.1 0 0 1 -1.1 1.09l-21.57.14a1.1 1.1 0 0 1 -.98-.56zm21.51-10-24.62-.21 4.72 8.56 19.85-.13z" fill="#1d1d1b"/><path d="m28.7 51.2a9.33 9.33 0 0 1 3.74-12.66l30.09-16.38a9.34 9.34 0 0 1 12.67 3.73l26.08 47.62-60-.36zm44.57-24.26a7.14 7.14 0 0 0 -9.69-2.85l-30.1 16.38a7.15 7.15 0 0 0 -2.87 9.67l11.9 20.86 55.05.33z" fill="#1d1d1b"/><path d="m37.75 92.15.12-20.15 83.41.5-.34 55.35-83.41-.5.11-18.44" fill="#fff"/><path d="m37.53 128.48 83.41.5a1.09 1.09 0 0 0 1.1-1.09l.34-55.35a1.09 1.09 0 0 0 -1.09-1.1l-83.41-.51a1.1 1.1 0 0 0 -1.11 1.07l-.12 20.12a1.1 1.1 0 0 0 2.2 0l.11-19 81.22.49-.33 53.15-81.21-.49.11-17.34a1.1 1.1 0 0 0 -1.1-1.1 1.09 1.09 0 0 0 -1.1 1.09l-.11 18.44a1.1 1.1 0 0 0 1.09 1.11z" fill="#1d1d1b"/><path d="m44.11 92.19-13.11-.08-.1 16.79 13.1.1a8.39 8.39 0 0 0 8.44-8.34 8.39 8.39 0 0 0 -8.33-8.47z" fill="#d0d0d0"/><path d="m30.89 110a1.1 1.1 0 0 1 -1.09-1.11l.1-16.79a1.11 1.11 0 0 1 1.1-1.1l13.89.09a8.72 8.72 0 0 1 8.66 8.76v1.56a8.73 8.73 0 0 1 -8.77 8.66zm1.2-16.79-.09 14.6 12.79.07a6.53 6.53 0 0 0 6.56-6.47v-1.56a6.53 6.53 0 0 0 -6.48-6.56z" fill="#1d1d1b"/><g fill="#70e4bc"><path d="m38.87 55.54-2.93-5.37a2.88 2.88 0 0 1 1.15-3.91l5.37-2.93a2.88 2.88 0 0 1 3.9 1.15l2.94 5.38a2.89 2.89 0 0 1 -1.15 3.9l-5.38 2.93a2.9 2.9 0 0 1 -1.39.35 2.86 2.86 0 0 1 -2.51-1.5zm5-11a1.22 1.22 0 0 0 -.62.16l-5.38 2.93a1.3 1.3 0 0 0 -.52 1.76l2.93 5.38a1.31 1.31 0 0 0 1.77.52l5.37-2.94a1.3 1.3 0 0 0 .52-1.76l-2.94-5.35a1.33 1.33 0 0 0 -1.14-.68zm4.76 5.67"/><path d="m75.24 47.45a1.09 1.09 0 0 0 1.1-1.09 1 1 0 0 0 -.13-.54l-3.14-5.75a1.1 1.1 0 0 0 -1.93 1l3.14 5.75a1.1 1.1 0 0 0 .96.63z"/><path d="m72.5 54a1.09 1.09 0 0 0 1.11-1.09 1 1 0 0 0 -.14-.54l-10.67-19.58a1.1 1.1 0 1 0 -1.93 1.05l10.68 19.58a1.08 1.08 0 0 0 .95.58z"/><path d="m48.58 52.25v-2.64l-4.2-5.88-7.29 3.8-1 1.4 4.42 7.07h2.83z"/></g></svg>