<svg viewBox="0 0 150 150" xmlns="http://www.w3.org/2000/svg"><path d="m125.25 29.32 20.12 7.68a4.7 4.7 0 0 1 2.79 6 .61.61 0 0 1 0 .12l-27 70.54a54.72 54.72 0 1 1 -102.24-39.05l27-70.54a5.14 5.14 0 0 1 6.08-2.74z" fill="#70e4bc"/><g stroke="#1d1d1b" stroke-linecap="round" stroke-linejoin="round" stroke-width="2.6"><path d="m26.73 26.09-.41 67.03 66.9.41.37-60.45.04-6.59z" fill="#fff"/><circle cx="74.28" cy="74.96" fill="#d0d0d0" r="38.99"/><path d="m56.4 56.64h67.07v67.07h-67.07z" fill="#fff" transform="matrix(.99998134 .00610861 -.00610861 .99998134 .55 -.54)"/></g></svg>