<svg viewBox="0 0 150 150" xmlns="http://www.w3.org/2000/svg"><path d="m130.6 51.4 16.58 13.74a4.71 4.71 0 0 1 .7 6.61l-.08.09-48.21 58.16a54.72 54.72 0 1 1 -84.23-69.9l48.21-58.1a5.14 5.14 0 0 1 6.7-.62z" fill="#70e4bc"/><g stroke="#1d1d1b" stroke-linecap="round" stroke-linejoin="round" stroke-width="2.6"><path d="m66.55 118a16.73 16.73 0 0 1 -16.62-16.82v-3l.1-15.62 19.39.44-.17 15.28c-.39 4.14 3.16 4.06 3.16 4.06h23.93l13.84-.06.06-9.68 17.4 17.78-17.64 17.45.06-9.57-42.84-.26" fill="#d0d0d0"/><path d="m83.45 32a16.73 16.73 0 0 1 16.62 16.82v3l-.07 15.66-19.42-.48.17-15.28c.39-4.14-3.16-4.06-3.16-4.06h-23.93l-13.84.06-.06 9.68-17.4-17.71 17.64-17.52-.06 9.57 42.84.26" fill="#d0d0d0"/><circle cx="75.5" cy="75.07" fill="#fff" r="27.96"/></g><path d="m68.1 72.49a10.17 10.17 0 0 1 -.9-4.2c0-4.16 3.41-7.58 8.29-7.55 6.23 0 8.21 4.13 8.31 7.37l-4.4.69c0-2.64-1.54-4-3.86-4.06a3.54 3.54 0 0 0 -3.74 3.66 10.3 10.3 0 0 0 1.06 4.12h7.51v3.8h-6.36a7.77 7.77 0 0 1 .08 1 6.49 6.49 0 0 1 -3.36 5.82h7.08a3.44 3.44 0 0 0 3.54-3.74l4.32.51c0 4.28-2.73 7.38-7 7.35l-13.43-.08v-4.16c2.65-1 4.3-3 4.32-5.29a8.82 8.82 0 0 0 -.16-1.44h-3.91v-3.8z" fill="#1d1d1b"/></svg>