<svg viewBox="0 0 150 150" xmlns="http://www.w3.org/2000/svg"><path d="m81.59 1a67.43 67.43 0 1 0 .14 0z" fill="#70e4bc"/><g stroke-linecap="round" stroke-linejoin="round" stroke-width="2.6"><path d="m34.06 40.42h95.07v56.21h-95.07z" fill="#d0d0d0" stroke="#000" transform="matrix(.99998134 .00610861 -.00610861 .99998134 .42 -.49)"/><path d="m27.71 46.33h95.07v56.21h-95.07z" fill="#d0d0d0" stroke="#000" transform="matrix(.99998134 .00610861 -.00610861 .99998134 .45 -.46)"/><path d="m20.88 53.37h95.07v56.21h-95.07z" fill="#fff" stroke="#000" transform="matrix(.99998134 .00610861 -.00610861 .99998134 .5 -.41)"/><circle cx="68.41" cy="81.47" fill="#fff" r="16.23" stroke="#70e4bc"/><path d="m27.23 65.74a6 6 0 0 0 6-5.92" fill="#fff" stroke="#000"/><path d="m104.56 60.25a6 6 0 0 0 5.92 6" fill="#fff" stroke="#000"/><path d="m110.28 98.3a6 6 0 0 0 -6 5.92" fill="#fff" stroke="#000"/><path d="m33 103.79a6 6 0 0 0 -5.92-6" fill="#fff" stroke="#000"/></g><path d="m63.47 80.47a6.73 6.73 0 0 1 -.6-2.8 5.18 5.18 0 0 1 5.53-5c4.16 0 5.47 2.76 5.54 4.92l-2.94.41a2.44 2.44 0 0 0 -2.57-2.71 2.35 2.35 0 0 0 -2.49 2.44 6.9 6.9 0 0 0 .7 2.75h5v2.53l-4.24-.01a4.48 4.48 0 0 1 0 .64 4.32 4.32 0 0 1 -2.24 3.88h4.72a2.31 2.31 0 0 0 2.37-2.5l2.87.34c0 2.86-1.81 4.93-4.64 4.91l-9-.06v-2.71a4 4 0 0 0 2.98-3.5 6.25 6.25 0 0 0 -.1-1h-2.61v-2.54z" fill="#1d1d1b"/></svg>