<svg viewBox="0 0 150 150" xmlns="http://www.w3.org/2000/svg"><path d="m133.13 86.18 10.48 11.1-76.47-81-.06-.06-10.47-11.16a3.35 3.35 0 0 0 -4.73-.2l-.07.06-39.16 36.95a38.92 38.92 0 0 0 -1.74 55l.14.14a39.39 39.39 0 0 0 27.84 12.21 39.37 39.37 0 0 0 10.57 28.5 38.9 38.9 0 0 0 55 1.73l.14-.12 39.15-37a4.49 4.49 0 0 0 -.14-5.1" fill="#70e4bc"/><g stroke="#1d1d1b" stroke-linecap="round" stroke-linejoin="round" stroke-width="2.6"><path d="m115.07 47.15 8.16 7.24.17-27.48-26.34 3.09 7.56 7.17c-22.85 27.67-48.13 44.52-76.62 47.14-.06 0-.06.1 0 .1 31.1-.32 60.37-11.31 87.07-37.26z" fill="#d0d0d0"/><path d="m28 94.43h-1.23l-.17 28.07 16.36.1.18-29.14a138 138 0 0 1 -15 1z" fill="#fff"/><path d="m53.22 122.66 16.36.1.22-35.43a128.43 128.43 0 0 1 -16.39 4.47z" fill="#d0d0d0"/><path d="m79.84 122.83 16.36.09.29-48.4a133.57 133.57 0 0 1 -16.41 8.75z" fill="#fff"/><path d="m106.79 67.44-.34 55.56 16.37.1.33-55.38-8-7.06q-4.1 3.58-8.36 6.78z" fill="#d0d0d0"/></g></svg>