<svg xmlns="http://www.w3.org/2000/svg" width="40.475" height="21.024" viewBox="0 0 40.475 21.024"><g transform="translate(-16.658 -19)"><path d="M17.042,12.5A8.521,8.521,0,1,1,0,12.5V.741A.8.8,0,0,1,.741,0H4.075a.731.731,0,0,1,.741.741V12.5A3.714,3.714,0,0,0,5.928,15.1a3.638,3.638,0,0,0,2.593,1.019A3.638,3.638,0,0,0,11.114,15.1,3.714,3.714,0,0,0,12.226,12.5V.741A.731.731,0,0,1,12.966,0H16.3a.731.731,0,0,1,.741.741Z" transform="translate(16.658 19)" fill="#71e5bd"/><path d="M34.437,15.745a5.933,5.933,0,0,1-5.742,0,5.887,5.887,0,0,1-3.056-5.187,6.02,6.02,0,1,1,12.04,0,6.252,6.252,0,0,1-3.242,5.187M31.566,0A10.466,10.466,0,1,0,42.032,10.466,10.455,10.455,0,0,0,31.566,0" transform="translate(15.1 19)" fill="#1d1d1b"/></g></svg>