<svg xmlns="http://www.w3.org/2000/svg" viewBox="0 0 99.74 22.84"><defs><style>.cls-1{fill:#fff;}.cls-2{fill:#71e5bd;}</style></defs><title>Middel 1</title><g id="Laag_2" data-name="Laag 2"><g id="Layer_1" data-name="Layer 1"><path class="cls-1" d="M77.68,0H74.11a.85.85,0,0,0-.85.84V13.58a4,4,0,0,1-8,.18V.84A.85.85,0,0,0,64.42,0H60.87A.86.86,0,0,0,60,.84V13.76a4,4,0,0,1-8-.18V.84A.85.85,0,0,0,51.17,0H47.59a.86.86,0,0,0-.84.84V13.58A9.26,9.26,0,0,0,62.63,20a9.26,9.26,0,0,0,15.88-6.46V.84A.84.84,0,0,0,77.68,0Z"/><path class="cls-2" d="M18.51,13.59A9.26,9.26,0,0,1,0,13.59V.85A.85.85,0,0,1,.84,0H4.41a.85.85,0,0,1,.84.84h0V13.59a4,4,0,0,0,8,0V.85A.85.85,0,0,1,14.09,0h3.58a.83.83,0,0,1,.84.82V13.59Z"/><path class="cls-1" d="M81.23,9.26a9.26,9.26,0,0,1,18.51,0V22a.85.85,0,0,1-.84.84H95.33a.85.85,0,0,1-.84-.84V9.26a4,4,0,0,0-8,0V22a.83.83,0,0,1-.82.84h-3.6a.85.85,0,0,1-.85-.83h0Z"/><path class="cls-1" d="M32.63,0A11.43,11.43,0,0,0,21.21,11.42h0a11.42,11.42,0,1,0,22.84,0h0A11.41,11.41,0,0,0,32.64,0Zm3.15,17.1a6.5,6.5,0,1,1,2.54-2.54A6.46,6.46,0,0,1,35.78,17.11Z"/></g></g></svg>