<svg xmlns="http://www.w3.org/2000/svg" xmlns:xlink="http://www.w3.org/1999/xlink" width="91.783" height="21.024" viewBox="0 0 91.783 21.024">
  <defs>
    <clipPath id="clip-path">
      <rect width="91.783" height="21.024" fill="none"/>
    </clipPath>
  </defs>
  <g id="Repeat_Grid_1" data-name="Repeat Grid 1" clip-path="url(#clip-path)">
    <g transform="translate(-44.658 -29)">
      <path id="Path_1" data-name="Path 1" d="M74.934,0H71.6a.731.731,0,0,0-.741.741V12.5A3.714,3.714,0,0,1,69.747,15.1a3.81,3.81,0,0,1-5.187,0,3.892,3.892,0,0,1-1.111-2.408V.741A.731.731,0,0,0,62.708,0H59.466a.731.731,0,0,0-.741.741V12.689A3.29,3.29,0,0,1,57.614,15.1a3.81,3.81,0,0,1-5.187,0A3.714,3.714,0,0,1,51.316,12.5V.741A.731.731,0,0,0,50.575,0H47.241A.731.731,0,0,0,46.5.741V12.5a8.5,8.5,0,0,0,8.521,8.521,8.611,8.611,0,0,0,6.113-2.593,8.611,8.611,0,0,0,6.113,2.593A8.5,8.5,0,0,0,75.767,12.5V.741A.984.984,0,0,0,74.934,0" transform="translate(41.225 29)" fill="#1d1d1b"/>
      <path id="Path_2" data-name="Path 2" d="M17.042,12.5A8.521,8.521,0,1,1,0,12.5V.741A.8.8,0,0,1,.741,0H4.075a.731.731,0,0,1,.741.741V12.5A3.714,3.714,0,0,0,5.928,15.1a3.638,3.638,0,0,0,2.593,1.019A3.638,3.638,0,0,0,11.114,15.1,3.714,3.714,0,0,0,12.226,12.5V.741A.731.731,0,0,1,12.966,0H16.3a.731.731,0,0,1,.741.741Z" transform="translate(44.658 29)" fill="#71e5bd"/>
      <path id="Path_3" data-name="Path 3" d="M80.7,8.521a8.521,8.521,0,1,1,17.042,0V20.283a.731.731,0,0,1-.741.741H93.666a.731.731,0,0,1-.741-.741V8.521a3.8,3.8,0,0,0-3.7-3.7,3.638,3.638,0,0,0-2.593,1.019,3.714,3.714,0,0,0-1.111,2.593V20.191a.731.731,0,0,1-.741.741H81.441a.731.731,0,0,1-.741-.741Z" transform="translate(38.699 29)" fill="#1d1d1b"/>
      <path id="Path_4" data-name="Path 4" d="M34.437,15.745a5.933,5.933,0,0,1-5.742,0,5.887,5.887,0,0,1-3.056-5.187,6.02,6.02,0,1,1,12.04,0,6.252,6.252,0,0,1-3.242,5.187M31.566,0A10.466,10.466,0,1,0,42.032,10.466,10.455,10.455,0,0,0,31.566,0" transform="translate(43.1 29)" fill="#1d1d1b"/>
    </g>
  </g>
</svg>
