<svg width="227" height="154" viewBox="0 0 227 154" fill="none" xmlns="http://www.w3.org/2000/svg">
<path d="M75.3552 33.2732C76.8064 18.1102 66.1123 4.59988 51.4695 3.09711C36.8267 1.59433 23.7801 12.6682 22.3288 27.8312C20.8776 42.9942 31.5714 56.5044 46.2142 58.0071C60.857 59.5099 73.9039 48.4362 75.3552 33.2732Z" fill="#1D1D1B"/>
<path d="M48.7483 60.6232C42.9592 60.622 37.3004 58.8433 32.4874 55.5119C27.6745 52.1805 23.9235 47.4461 21.7089 41.9073C19.4943 36.3685 18.9155 30.2739 20.0456 24.3944C21.1757 18.5149 23.964 13.1143 28.058 8.87579C32.1519 4.63725 37.3677 1.75112 43.0457 0.582032C48.7237 -0.587057 54.6089 0.0134414 59.9572 2.30783C65.3056 4.60222 69.8769 8.48733 73.093 13.4719C76.3092 18.4565 78.0259 24.3169 78.0259 30.3117C78.0166 38.3489 74.9288 46.054 69.4401 51.7366C63.9513 57.4192 56.5098 60.6152 48.7483 60.6232ZM48.7483 5.44398C43.999 5.44518 39.3567 6.90492 35.4083 9.63812C31.4599 12.3713 28.3828 16.2555 26.5661 20.7995C24.7494 25.3436 24.2747 30.3434 25.202 35.1668C26.1292 39.9902 28.4168 44.4206 31.7755 47.8978C35.1342 51.375 39.4132 53.7427 44.0714 54.7018C48.7296 55.6608 53.5577 55.1678 57.9454 53.2855C62.3331 51.4032 66.0833 48.2159 68.7217 44.1266C71.3602 40.0373 72.7686 35.2297 72.7686 30.3117C72.7701 23.7121 70.2406 17.382 65.7362 12.7131C61.2319 8.04425 55.1215 5.41867 48.7483 5.41386V5.44398Z" fill="#1D1D1B"/>
<path d="M3.24778 131.221C2.38908 125.233 0.741681 107.817 11.6127 91.5214C16.7766 83.7787 27.262 72.5455 37.619 71.4023C38.7873 71.2753 42.9406 70.9426 47.8883 70.7974C53.0581 70.6341 57.702 70.7127 59.1274 70.7974C71.3361 71.5354 82.6918 87.1297 84.4852 89.6763C96.1682 106.22 95.0349 124.519 94.258 131.233L3.24778 131.221Z" fill="#1D1D1B"/>
<path d="M96.5969 133.944H0.983529L0.650525 131.621C-0.605394 122.874 -1.10188 105.834 9.45368 89.9736C12.73 85.1102 16.6088 80.7133 20.9906 76.8956C26.6568 72.0563 32.1537 69.2679 37.3468 68.6993C38.6027 68.5601 42.8143 68.2212 47.8205 68.0639C52.9376 67.9006 57.6868 67.9732 59.2874 68.0639C72.0861 68.8322 83.4419 83.5555 86.6197 88.0257C98.0515 104.207 97.9522 122.221 96.8774 131.518L96.5969 133.944ZM5.5633 128.5H91.8829C92.5722 119.541 91.8361 104.667 82.3671 91.2682C79.8691 87.7686 77.0502 84.5274 73.9496 81.5897C68.6221 76.5872 63.4348 73.7986 58.9778 73.5264C57.6751 73.4477 53.1362 73.3691 47.9724 73.5264C43.1648 73.6776 39.0408 74.0042 37.8958 74.1313C33.2986 74.6394 23.0411 79.2004 13.7765 93.0829C5.08434 106.1 4.70461 120.098 5.5633 128.5Z" fill="#1D1D1B"/>
<path d="M205.031 33.2903C206.482 18.1273 195.788 4.61697 181.145 3.11419C166.503 1.61141 153.456 12.6853 152.005 27.8483C150.553 43.0113 161.247 56.5215 175.89 58.0242C190.533 59.527 203.58 48.4533 205.031 33.2903Z" fill="#1D1D1B"/>
<path d="M178.414 60.6232C172.625 60.622 166.966 58.8433 162.153 55.5119C157.34 52.1805 153.59 47.4461 151.375 41.9073C149.16 36.3685 148.581 30.2739 149.712 24.3944C150.842 18.5149 153.63 13.1143 157.724 8.87579C161.818 4.63725 167.034 1.75112 172.712 0.582032C178.39 -0.587057 184.275 0.0134414 189.623 2.30783C194.972 4.60222 199.543 8.48733 202.759 13.4719C205.975 18.4565 207.692 24.3169 207.692 30.3117C207.683 38.3489 204.595 46.054 199.106 51.7366C193.617 57.4192 186.176 60.6152 178.414 60.6232ZM178.414 5.44398C173.665 5.44518 169.023 6.90492 165.074 9.63812C161.126 12.3713 158.049 16.2555 156.232 20.7995C154.416 25.3436 153.941 30.3434 154.868 35.1668C155.795 39.9902 158.083 44.4206 161.441 47.8978C164.8 51.375 169.079 53.7427 173.737 54.7018C178.396 55.6608 183.224 55.1678 187.611 53.2855C191.999 51.4032 195.749 48.2159 198.388 44.1266C201.026 40.0373 202.435 35.2297 202.435 30.3117C202.436 23.7121 199.907 17.382 195.402 12.7131C190.898 8.04425 184.787 5.41867 178.414 5.41386V5.44398Z" fill="#1D1D1B"/>
<path d="M132.914 131.221C132.055 125.233 130.408 107.817 141.279 91.5214C146.443 83.7787 156.928 72.5455 167.285 71.4023C168.453 71.2753 172.612 70.9426 177.554 70.7974C182.724 70.6341 187.368 70.7127 188.793 70.7974C201.002 71.5354 212.358 87.1297 214.151 89.6763C225.834 106.22 224.707 124.519 223.93 131.233L132.914 131.221Z" fill="#1D1D1B"/>
<path d="M226.26 133.944H130.647L130.314 131.621C129.058 122.874 128.532 105.834 139.117 89.9736C142.393 85.1102 146.272 80.7133 150.654 76.8956C156.32 72.0563 161.817 69.2679 167.01 68.6993C168.266 68.5601 172.478 68.2212 177.484 68.0639C182.601 67.9006 187.35 67.9732 188.951 68.0639C201.749 68.8322 213.105 83.5555 216.283 88.0257C227.715 104.207 227.615 122.221 226.541 131.518L226.26 133.944ZM135.232 128.5H221.523C222.218 119.541 221.476 104.667 212.007 91.2682C209.509 87.7686 206.69 84.5274 203.589 81.5897C198.262 76.5872 193.075 73.7986 188.618 73.5264C187.315 73.4477 182.776 73.3691 177.612 73.5264C172.805 73.6776 168.681 74.0042 167.536 74.1313C162.938 74.6394 152.681 79.2004 143.416 93.0829C134.747 106.1 134.368 120.098 135.232 128.5Z" fill="#1D1D1B"/>
<path d="M139.642 53.3117C141.094 38.1487 130.4 24.6385 115.757 23.1357C101.114 21.6329 88.0672 32.7066 86.616 47.8696C85.1647 63.0326 95.8588 76.543 110.502 78.0457C125.144 79.5485 138.191 68.4747 139.642 53.3117Z" fill="#D0D0D0"/>
<path d="M113.035 80.6219C107.245 80.6231 101.583 78.8461 96.768 75.5154C91.9526 72.1848 88.1991 67.4505 85.9823 61.9108C83.7654 56.3711 83.1848 50.2749 84.3138 44.3935C85.4428 38.512 88.2307 33.1093 92.325 28.8687C96.4193 24.628 101.636 21.7402 107.316 20.5699C112.995 19.3996 118.882 19.9994 124.232 22.2939C129.582 24.5884 134.155 28.4745 137.372 33.4603C140.59 38.4462 142.307 44.308 142.307 50.3045C142.298 58.3413 139.211 66.0461 133.724 71.7295C128.236 77.4129 120.796 80.6107 113.035 80.6219ZM113.035 25.4368C108.284 25.4356 103.639 26.8936 99.6882 29.6263C95.7372 32.3589 92.6576 36.2436 90.8388 40.7889C89.0201 45.3342 88.544 50.3359 89.4706 55.1615C90.3972 59.987 92.6851 64.4197 96.0447 67.8986C99.4043 71.3776 103.685 73.7469 108.345 74.7064C113.005 75.666 117.835 75.173 122.224 73.2896C126.614 71.4062 130.365 68.2171 133.004 64.1257C135.643 60.0343 137.051 55.2246 137.05 50.3045C137.042 43.7117 134.509 37.3911 130.007 32.7293C125.506 28.0675 119.402 25.4448 113.035 25.4368Z" fill="#1D1D1B"/>
<path d="M67.5309 151.26C66.6723 145.266 65.025 127.85 75.896 111.554C81.0599 103.812 91.5453 92.5846 101.902 91.4413C103.071 91.3143 107.23 90.9756 112.172 90.8364C117.341 90.6731 121.985 90.7518 123.411 90.8364C135.619 91.5744 146.975 107.169 148.774 109.715C160.457 126.265 159.324 144.558 158.547 151.278L67.5309 151.26Z" fill="#D0D0D0"/>
<path d="M160.876 153.969H65.2628L64.9298 151.646C63.6739 142.899 63.1774 125.853 73.733 109.992C77.0098 105.127 80.8907 100.73 85.2758 96.9142C90.9361 92.075 96.4388 89.2926 101.632 88.7179C102.888 88.5788 107.094 88.2462 112.106 88.0829C117.217 87.9256 121.972 87.9922 123.573 88.0829C136.371 88.8572 147.727 103.574 150.905 108.045C162.337 124.226 162.243 142.24 161.162 151.537L160.876 153.969ZM69.8484 148.525H156.162C156.857 139.566 156.115 124.685 146.646 111.293C144.15 107.782 141.331 104.531 138.229 101.584C132.901 96.5817 127.714 93.793 123.257 93.5208C121.954 93.4482 117.386 93.3635 112.252 93.5208C107.438 93.672 103.32 93.9987 102.181 94.1257C97.5779 94.6338 87.3202 99.201 78.0615 113.084C69.3635 126.125 68.9839 140.116 69.8484 148.525Z" fill="#1D1D1B"/>
</svg>
