<svg width="147" height="136" viewBox="0 0 147 136" fill="none" xmlns="http://www.w3.org/2000/svg">
<path d="M55.8848 49.9973L72.2682 3.70331C72.403 3.31943 72.6618 2.98581 73.0075 2.75001C73.3533 2.51422 73.7684 2.38832 74.1938 2.39016C74.6192 2.392 75.0333 2.52145 75.3768 2.76022C75.7203 2.999 75.9756 3.33482 76.1067 3.71984L91.9949 50.0072C92.1266 50.3929 92.3831 50.729 92.7279 50.9675C93.0726 51.206 93.4879 51.3347 93.9141 51.3351H142.59C143.018 51.3352 143.434 51.4643 143.779 51.7037C144.125 51.9432 144.382 52.2807 144.513 52.6677C144.644 53.0548 144.643 53.4714 144.509 53.8577C144.376 54.244 144.117 54.5801 143.77 54.8176L103.35 82.4844C102.998 82.7245 102.737 83.0659 102.605 83.4581C102.473 83.8503 102.477 84.2724 102.617 84.6622L118.826 129.99C118.969 130.381 118.975 130.805 118.844 131.2C118.714 131.594 118.452 131.938 118.1 132.18C117.747 132.422 117.321 132.55 116.886 132.543C116.451 132.537 116.03 132.397 115.686 132.145L75.4088 103.326C75.0597 103.078 74.6356 102.944 74.1997 102.944C73.7639 102.944 73.3398 103.078 72.9907 103.326L32.0648 132.261C31.7203 132.512 31.2998 132.652 30.8655 132.658C30.4312 132.665 30.0063 132.538 29.6538 132.296C29.3013 132.055 29.04 131.712 28.9085 131.318C28.7771 130.924 28.7826 130.5 28.9242 130.11L45.2206 83.5965C45.3584 83.2042 45.3595 82.7801 45.2237 82.3871C45.0879 81.9942 44.8224 81.6534 44.4668 81.4154L3.25149 53.8614C2.89659 53.6248 2.63103 53.2858 2.49411 52.8947C2.35719 52.5035 2.35611 52.0808 2.49105 51.689C2.62598 51.2972 2.88978 50.9571 3.24348 50.7188C3.59719 50.4806 4.02217 50.3567 4.45546 50.3658L53.9026 51.2986C54.3361 51.3128 54.7628 51.1939 55.1197 50.9595C55.4767 50.7252 55.7449 50.3879 55.8848 49.9973Z" fill="white"/>
<path d="M30.6795 135.049C30.025 135.047 29.3803 134.898 28.7982 134.613C28.2161 134.328 27.7131 133.915 27.3308 133.409C26.9484 132.903 26.6975 132.317 26.5986 131.701C26.4997 131.084 26.5555 130.454 26.7617 129.862L43.1088 83.1029L1.75901 55.4284C1.03429 54.9439 0.491996 54.2503 0.212051 53.4499C-0.0678943 52.6494 -0.070739 51.7845 0.204009 50.9824C0.478757 50.1804 1.01657 49.4837 1.73813 48.9949C2.4597 48.5062 3.3269 48.2512 4.21196 48.2676L53.8108 49.2061L70.2491 2.68095C70.5262 1.89682 71.0554 1.21581 71.7615 0.734561C72.4677 0.253313 73.3149 -0.00365766 74.183 3.93383e-05C75.0511 0.00373634 75.8958 0.268029 76.5975 0.755272C77.2991 1.24252 77.8218 1.92792 78.0915 2.71438L94.0428 49.2463H142.867C143.741 49.246 144.593 49.51 145.3 50.0003C146.007 50.4907 146.532 51.1821 146.8 51.9751C147.069 52.7681 147.066 53.6218 146.793 54.4133C146.521 55.2049 145.991 55.8936 145.282 56.3803L104.734 84.1851L120.994 129.738C121.28 130.535 121.291 131.398 121.024 132.201C120.757 133.004 120.227 133.704 119.511 134.199C118.795 134.693 117.932 134.955 117.049 134.947C116.165 134.939 115.307 134.661 114.602 134.154L74.1984 105.19L33.1429 134.267C32.4319 134.775 31.5676 135.049 30.6795 135.049V135.049ZM4.39778 52.2921L45.5864 79.8665C46.3105 80.3569 46.8509 81.0551 47.129 81.8591C47.407 82.6631 47.408 83.5309 47.1317 84.3355L30.8406 130.917L71.7489 101.943C72.4645 101.438 73.3319 101.164 74.2229 101.164C75.1139 101.164 75.9813 101.438 76.6969 101.943L116.95 130.8L100.736 85.4242C100.447 84.6253 100.437 83.7588 100.707 82.954C100.978 82.1493 101.514 81.4493 102.236 80.9587L142.639 53.2374H93.9866C93.1153 53.2384 92.2661 52.9762 91.5609 52.4883C90.8557 52.0004 90.331 51.312 90.062 50.522L74.1773 4.15733L57.7951 50.5287L55.8012 49.8908L57.7951 50.5287C57.5193 51.3092 56.9929 51.9873 56.2904 52.4668C55.5879 52.9463 54.745 53.2031 53.8809 53.2007H53.7967L4.39778 52.2921Z" fill="#1D1D1B"/>
<path d="M101.756 83.6587L72.9023 103.976L106.366 96.8943L101.756 83.6587Z" fill="#D0D0D0"/>
<path d="M63.3418 107.561L103.536 80.0732L109.952 97.9753L63.3418 107.561ZM101.345 86.5499L82.3769 99.5231L104.374 94.9972L101.345 86.5499Z" fill="#1D1D1B"/>
</svg>
