<svg width="152" height="93" viewBox="0 0 152 93" fill="none" xmlns="http://www.w3.org/2000/svg">
<path d="M71.5 65C84.4787 65 95 54.7025 95 42C95 29.2974 84.4787 19 71.5 19C58.5213 19 48 29.2974 48 42C48 54.7025 58.5213 65 71.5 65Z" fill="#1D1D1B"/>
<path d="M0 1.27467C0.574646 0.280612 1.45182 0 2.595 0C48.5443 0.0218912 94.4956 0.0288771 140.449 0.0209166C142.589 0.0209166 143.121 0.573188 143.127 2.72251C143.127 4.7375 143.127 6.75543 143.127 8.94057C145.361 8.94057 147.427 8.94057 149.494 8.94057C151.56 8.94057 152 9.42421 152 11.4482C152 37.7336 152 64.017 152 90.2984C152 92.5074 151.49 93 149.197 93H11.7864C9.31662 93 8.87944 92.5522 8.87333 90.0954C8.87333 88.2586 8.86421 86.4227 8.84587 84.5878C8.80312 84.4127 8.74374 84.2418 8.66856 84.0774C6.6573 84.0774 4.54521 84.1728 2.45142 84.0296C1.61696 83.9728 0.816126 83.3907 0.00611923 83.0444L0 1.27467ZM139.465 3.67775H3.75049V80.3488H139.465V3.67775ZM12.5658 89.3521H148.25V12.675H143.124V80.928C143.124 81.4116 143.292 81.9967 143.075 82.3549C142.697 83.0135 142.162 83.5735 141.516 83.9878C141.073 84.2445 140.36 84.0803 139.767 84.0803H12.5658V89.3521Z" fill="#1D1D1B"/>
<path d="M140 3V81H3V3H140ZM70.5373 75.728H115.488C115.936 75.728 116.389 75.7492 116.833 75.7097C118.052 75.6065 118.743 74.9961 118.811 73.7418C118.873 72.6121 118.975 71.4854 119.089 70.3618C119.731 64.0328 122.863 60.0818 128.398 58.7607C129.858 58.438 131.342 58.2349 132.835 58.1533C135.424 57.9681 135.689 57.7403 135.693 55.1164V36.8342C135.693 33.9825 135.693 31.1309 135.693 28.2793C135.693 26.9096 135.075 26.1747 133.628 26.1352C132.681 26.1078 131.731 26.0319 130.789 25.9135C126.47 25.3729 122.622 23.8545 120.916 19.5755C119.937 17.1065 119.438 14.3915 119.117 11.7402C118.74 8.63652 118.648 8.35404 115.414 8.35404H25.9721C25.5741 8.35404 25.173 8.33886 24.7749 8.35404C23.2013 8.42996 22.6582 8.96145 22.5255 10.5103C22.3589 12.4175 22.2417 14.3338 22.0011 16.2318C21.1371 23.0315 18.465 25.5278 11.5996 26.0289L11.0008 26.0714C8.91497 26.2324 8.47993 26.6788 8.47993 28.7044C8.47993 34.9969 8.47993 41.2904 8.47993 47.5849C8.47993 50.385 8.47993 53.187 8.47993 55.9911C8.47993 57.382 9.1742 58.0592 10.5812 58.1169C11.5779 58.1534 12.5745 58.2445 13.565 58.3508C17.8848 58.8093 20.3687 60.759 21.3561 64.9104C21.9732 67.4736 22.1768 70.137 22.4422 72.77C22.7076 75.403 22.9514 75.7249 25.7438 75.7249L70.5373 75.728Z" fill="#D0D0D0"/>
<path d="M11 89V83.6429H139.436C140.034 83.6429 140.753 83.8099 141.201 83.5488C141.854 83.1273 142.393 82.5576 142.775 81.8876C142.994 81.5232 142.824 80.9279 142.824 80.4359V11H148V89H11Z" fill="#1D1D1B"/>
<path d="M70.4659 74.9855H26.0984C23.3327 74.9855 23.0975 74.7059 22.8285 72.0917C22.5596 69.4776 22.3548 66.905 21.7528 64.3949C20.7749 60.3294 18.3056 58.4201 14.0363 57.971C13.0554 57.8669 12.0683 57.7777 11.0812 57.742C9.68763 57.6884 8.99695 57.0252 9.00001 55.6601C9.00001 52.9141 9.00001 50.1701 9.00001 47.428C9.00001 41.2658 9.00001 35.1025 9.00001 28.9383C9.00001 26.9487 9.43089 26.5175 11.4968 26.3599L12.0896 26.3182C18.8893 25.8275 21.5358 23.3829 22.3915 16.724C22.6298 14.8652 22.746 12.9886 22.9111 11.1209C23.0425 9.60706 23.5803 9.0836 25.1389 9.00925C25.5331 8.98843 25.9304 9.00925 26.3246 9.00925H114.916C118.116 9.00925 118.207 9.28588 118.583 12.3254C118.889 14.9217 119.396 17.5804 120.365 19.9983C122.049 24.1888 125.847 25.6758 130.144 26.2052C131.076 26.3212 132.017 26.3955 132.956 26.4223C134.38 26.461 135.003 27.1807 135 28.522C135 31.3146 135 34.1072 135 36.8999V54.8095C135 57.3672 134.734 57.5903 132.17 57.7836C130.691 57.8635 129.221 58.0624 127.775 58.3784C122.293 59.6721 119.191 63.5413 118.555 69.7392C118.442 70.8396 118.342 71.943 118.28 73.0494C118.213 74.2777 117.529 74.8754 116.322 74.9765C115.881 75.0152 115.432 74.9944 114.989 74.9944L70.4659 74.9855ZM114.907 12.6882H26.6454C26.3001 15.0674 26.0832 17.3664 25.6125 19.6207C24.5765 24.6022 21.765 28.0997 16.4903 29.3309C15.2495 29.6283 13.9752 29.7651 12.6947 29.9822V54.1731C13.1928 54.2564 13.6116 54.3367 14.0608 54.4021C21.3708 55.4787 24.8211 58.8334 25.9213 65.9801C26.1933 67.7258 26.3674 69.4865 26.5874 71.2679H114.711C115.42 61.1324 120.435 54.9464 131.266 54.2564V29.89C120.337 29.1405 115.438 22.8832 114.907 12.6882Z" fill="#1D1D1B"/>
<path d="M115.444 12C115.982 22.4422 120.94 28.8513 132 29.6189V54.576C121.039 55.2827 115.963 61.6187 115.246 72H26.0601C25.8375 70.1723 25.6613 68.372 25.386 66.5839C24.2726 59.2732 20.7807 55.828 13.3826 54.7253C12.9403 54.6583 12.5041 54.576 12 54.4907V29.7133C13.2959 29.491 14.5856 29.3448 15.8413 29.0462C21.1796 27.7851 24.0251 24.2029 25.0735 19.1006C25.5498 16.7916 25.7694 14.4308 26.1189 12H115.444ZM71.4045 68.3141C78.4655 68.3069 85.2344 65.5373 90.2221 60.6147C95.2097 55.6921 98.0075 49.0198 98.0001 42.0655C97.9927 35.1112 95.1807 28.4446 90.1826 23.5323C85.1846 18.62 78.4099 15.8644 71.349 15.8716C56.7074 15.8503 44.6947 27.6968 44.7164 42.1294C44.736 49.0855 47.5573 55.7497 52.561 60.659C57.5647 65.5682 64.3418 68.3214 71.4045 68.3141Z" fill="white"/>
<path d="M71.546 68C64.5188 68.0072 57.776 65.2762 52.7986 60.4069C47.8212 55.5376 45.0163 48.9281 45 42.0302C44.9785 27.7227 56.9271 15.9789 71.4908 16C78.5141 15.9928 85.2527 18.7246 90.2241 23.5943C95.1956 28.464 97.9926 35.0728 98 41.9668C98.0073 48.8608 95.2244 55.4753 90.2633 60.3552C85.3023 65.2351 78.5694 67.9807 71.546 67.9879V68ZM48.7347 41.9789C48.728 46.3979 50.0562 50.7196 52.5515 54.3977C55.0467 58.0758 58.5969 60.9451 62.7533 62.643C66.9096 64.3408 71.4855 64.7909 75.9024 63.9363C80.3193 63.0817 84.3789 60.9609 87.5681 57.8419C90.7572 54.7229 92.9325 50.7458 93.8192 46.4134C94.7059 42.081 94.2641 37.5877 92.5496 33.5017C90.8351 29.4157 87.925 25.9205 84.187 23.4578C80.4491 20.9951 76.0511 19.6756 71.5492 19.666C68.556 19.6513 65.5893 20.2178 62.82 21.3329C60.0506 22.448 57.5333 24.0897 55.4129 26.1635C53.2925 28.2373 51.6108 30.7022 50.4647 33.4165C49.3186 36.1307 48.7306 39.0407 48.7347 41.9789Z" fill="#1D1D1B"/>
<path d="M63.5164 43.7657C61.9031 43.7657 60.3588 43.8159 58.8176 43.748C57.7525 43.7007 57.1322 43.0602 57.0163 42.0595C56.9004 41.0589 57.4078 40.4301 58.3257 40.0848C58.7324 39.9745 59.1564 39.9316 59.5787 39.9579C60.7001 39.9579 61.8217 39.9579 63.0528 39.9579C62.8273 38.5056 62.5265 37.1565 62.4263 35.7957C62.1882 32.6314 63.3661 29.9983 66.2762 28.3217C69.3712 26.5506 72.6165 26.5772 75.7678 28.2951C77.6693 29.3312 78.6154 31.0403 79.0884 32.9915C79.2104 33.4789 79.1254 33.9918 78.8514 34.4209C78.5775 34.85 78.1363 35.1612 77.6223 35.288C76.5259 35.5832 75.5643 35.0282 75.0725 33.7826C74.0951 31.3148 71.9962 30.3614 69.3679 31.1909C67.7014 31.7163 66.4985 33.0594 66.5737 34.7124C66.6994 36.31 66.9391 37.8977 67.2911 39.4649C67.3318 39.6685 67.8299 39.9195 68.1244 39.9342C69.3774 39.9874 70.6086 39.9343 71.8491 39.9638C73.2963 39.9903 74.2078 40.7371 74.2234 41.8618C74.2391 42.9864 73.3307 43.7657 71.8928 43.8012C70.5458 43.8336 69.1988 43.8012 67.9708 43.8012C67.6576 46.08 67.3443 48.1935 67.0311 50.4133C69.2239 50.2096 71.2726 51.166 73.4466 51.7741C74.6275 52.1047 76.0216 51.7741 77.3122 51.7032C77.7696 51.6737 78.2081 51.4553 78.6655 51.4081C79.1595 51.3331 79.6655 51.434 80.0849 51.6913C80.5042 51.9487 80.8069 52.3439 80.934 52.7999C81.061 53.256 81.0034 53.7404 80.7723 54.1586C80.5411 54.5768 80.153 54.899 79.6835 55.0624C77.0052 56.0395 74.2235 56.4645 71.5389 55.2838C69.2678 54.2831 67.0123 54.1651 64.6284 54.5754C63.9807 54.6888 63.3231 54.7451 62.6643 54.7436C61.0228 54.7436 60.1176 53.2677 60.8976 51.8833C61.1014 51.5304 61.3427 51.1981 61.6181 50.8915C63.4318 48.8724 63.8015 46.5139 63.5164 43.7657Z" fill="white"/>
</svg>
