<svg width="129" height="130" viewBox="0 0 129 130" fill="none" xmlns="http://www.w3.org/2000/svg">
<path d="M66.2399 127.403C100.614 127.403 128.48 99.3304 128.48 64.7014C128.48 30.0724 100.614 2 66.2399 2C31.8658 2 4 30.0724 4 64.7014C4 99.3304 31.8658 127.403 66.2399 127.403Z" fill="#D0D0D0"/>
<path d="M64.039 129.017C49.2242 129.018 34.8674 123.844 23.4147 114.377C11.9621 104.91 4.12232 91.7347 1.23124 77.0971C-1.65985 62.4594 0.576653 47.2648 7.55964 34.1021C14.5426 20.9394 25.84 10.6232 39.5269 4.91132C53.2137 -0.800592 68.4431 -1.55476 82.6201 2.77725C96.797 7.10926 109.044 16.2594 117.275 28.6687C125.506 41.0779 129.211 55.9782 127.759 70.8309C126.307 85.6837 119.788 99.5698 109.312 110.123C103.381 116.132 96.3253 120.895 88.5542 124.138C80.783 127.382 72.4505 129.04 64.039 129.017V129.017ZM64.039 3.61083C30.7059 3.61083 3.58381 30.9311 3.58381 64.5143C3.58381 98.0975 30.7059 125.421 64.039 125.421C97.372 125.421 124.497 98.0975 124.497 64.5143C124.497 30.9311 97.375 3.59591 64.039 3.59591V3.61083Z" fill="#1D1D1B"/>
<path d="M94.3358 62.1016C97.5721 62.1016 100.773 63.459 103.503 65.9552C107.927 69.9377 110.767 76.5004 110.767 82.9372V87.9355H73.377V82.9372C73.377 76.4165 76.2534 69.8539 80.7123 65.9133C83.4072 63.4591 86.6078 62.1465 89.8085 62.1465L94.3358 62.1016Z" fill="#1D1D1B"/>
<path d="M92.0703 58.2904C89.3952 58.2904 86.7803 57.4913 84.556 55.9941C82.3318 54.4969 80.5982 52.3689 79.5745 49.8791C78.5508 47.3893 78.2829 44.6496 78.8048 42.0065C79.3267 39.3634 80.6149 36.9356 82.5064 35.03C84.398 33.1244 86.808 31.8266 89.4317 31.3009C92.0553 30.7751 94.7748 31.0449 97.2463 32.0762C99.7177 33.1075 101.83 34.854 103.316 37.0947C104.802 39.3354 105.596 41.9698 105.596 44.6647C105.592 48.2772 104.166 51.7407 101.63 54.2952C99.0942 56.8496 95.6563 58.2865 92.0703 58.2904V58.2904ZM92.0703 34.6351C90.1012 34.6351 88.1763 35.2233 86.5391 36.3254C84.9019 37.4274 83.6258 38.9939 82.8723 40.8266C82.1187 42.6593 81.9216 44.6759 82.3057 46.6214C82.6899 48.567 83.6381 50.3541 85.0304 51.7568C86.4228 53.1595 88.1968 54.1148 90.128 54.5018C92.0593 54.8888 94.0611 54.6901 95.8803 53.931C97.6995 53.1719 99.2544 51.8864 100.348 50.237C101.442 48.5876 102.026 46.6484 102.026 44.6647C102.027 43.3464 101.771 42.0409 101.271 40.8225C100.771 39.6041 100.038 38.4967 99.1139 37.5637C98.1894 36.6306 97.0916 35.8903 95.883 35.3847C94.6745 34.8791 93.3789 34.6183 92.0703 34.6171V34.6351Z" fill="#1D1D1B"/>
<path d="M39.1864 62.1016C42.4228 62.1016 45.6204 63.459 48.3541 65.9552C52.7743 69.9377 55.615 76.5004 55.615 82.9372V87.9355H18.2246V82.9372C18.2246 76.4165 21.101 69.8539 25.5599 65.9133C28.2549 63.4591 31.4555 62.1465 34.6561 62.1465L39.1864 62.1016Z" fill="#1D1D1B"/>
<path d="M36.9199 58.2904C34.2448 58.2904 31.6298 57.4913 29.4056 55.9941C27.1814 54.4969 25.4478 52.3689 24.4241 49.8791C23.4004 47.3893 23.1326 44.6496 23.6544 42.0065C24.1763 39.3634 25.4645 36.9356 27.356 35.03C29.2476 33.1244 31.6576 31.8266 34.2812 31.3009C36.9049 30.7751 39.6244 31.0449 42.0958 32.0762C44.5673 33.1075 46.6797 34.854 48.1659 37.0947C49.652 39.3354 50.4453 41.9698 50.4453 44.6647C50.4414 48.2772 49.0151 51.7407 46.4794 54.2952C43.9438 56.8496 40.5058 58.2865 36.9199 58.2904V58.2904ZM36.9199 34.6351C34.9508 34.6351 33.026 35.2233 31.3887 36.3254C29.7515 37.4274 28.4754 38.9939 27.7218 40.8266C26.9683 42.6593 26.7712 44.6759 27.1553 46.6214C27.5395 48.567 28.4877 50.3541 29.88 51.7568C31.2724 53.1595 33.0463 54.1148 34.9776 54.5018C36.9088 54.8888 38.9107 54.6901 40.7299 53.931C42.5491 53.1719 44.104 51.8864 45.1979 50.237C46.2919 48.5876 46.8758 46.6484 46.8758 44.6647C46.8774 42.0025 45.8295 39.4487 43.9626 37.5645C42.0957 35.6804 39.5625 34.6203 36.9199 34.6171V34.6351Z" fill="#1D1D1B"/>
<path d="M52.247 57.1312C51.2321 54.6561 50.9793 51.9334 51.5207 49.3075C52.0621 46.6815 53.3733 44.2701 55.2885 42.3783C57.2037 40.4866 59.6369 39.1993 62.2804 38.6793C64.9239 38.1594 67.6589 38.4301 70.1397 39.4573C72.6205 40.4844 74.7354 42.2219 76.2173 44.4499C77.6992 46.6779 78.4813 49.2965 78.4648 51.9744C78.4483 54.6523 77.6339 57.2694 76.1246 59.4946C74.6152 61.7198 72.4788 63.4532 69.9854 64.4757C66.6415 65.8434 62.8957 65.8383 59.57 64.4613C56.2443 63.0843 53.6105 60.448 52.247 57.1312ZM74.1337 48.1562C73.3866 46.3344 72.1121 44.7766 70.4712 43.6799C68.8304 42.5832 66.8969 41.9969 64.9153 41.995C62.9338 41.9931 60.993 42.5759 59.3387 43.6694C57.6843 44.763 56.3905 46.3184 55.621 48.1388C54.8515 49.9592 54.6408 51.963 55.0155 53.8967C55.3901 55.8303 56.3333 57.6072 57.7259 59.0023C59.1184 60.3975 60.8979 61.3484 62.839 61.7348C64.7801 62.1212 66.7957 61.9257 68.6311 61.1731C71.0902 60.1613 73.0505 58.2227 74.082 55.7824C75.1136 53.3422 75.1322 50.5996 74.1337 48.1562Z" fill="#1D1D1B"/>
<path d="M85.1426 97.0344H44.5962L44.3821 95.4852C43.8585 91.6525 43.6384 84.1849 48.0854 77.2057C50.6495 73.1903 55.3255 68.3027 60.067 67.7573C60.5905 67.6944 62.3484 67.5476 64.4336 67.4787C66.5188 67.4098 68.5475 67.4398 69.2197 67.4787C74.8149 67.8323 79.6515 74.3708 81.002 76.3666C85.803 83.4686 85.7613 91.3498 85.3151 95.4222L85.1426 97.0344ZM47.7612 93.4384H81.9033C82.1056 89.6327 81.6594 83.7324 78.0572 78.4044C75.856 75.1531 72.1646 71.2814 69.0026 71.0836C68.4791 71.0506 66.6408 71.0177 64.5407 71.0836C62.5864 71.1465 60.9236 71.2844 60.4655 71.3383C57.1935 71.7129 53.3266 75.6565 51.0808 79.1595C47.7969 84.3287 47.4875 89.8695 47.7612 93.4384V93.4384Z" fill="#1D1D1B"/>
</svg>
