<svg xmlns="http://www.w3.org/2000/svg" width="70" height="70" viewBox="0 0 70 70">
  <g id="Group_593" data-name="Group 593" transform="translate(-1684.475 -2266.794)">
    <circle id="Ellipse_204" data-name="Ellipse 204" cx="35" cy="35" r="35" transform="translate(1684.475 2266.794)" fill="#71e5bd"/>
    <g id="Group_592" data-name="Group 592" transform="translate(1707.985 2285.054)">
      <g id="Group_591" data-name="Group 591" transform="translate(0 0)">
        <path id="Path_383" data-name="Path 383" d="M1855.218,2423.959l-.538-.867c-.455-.734-.905-1.484-1.34-2.211q-.331-.552-.663-1.1l-7.047-11.654-.189-.31a11.574,11.574,0,0,1-1.137-2.208,10.974,10.974,0,0,1-.582-3.636,11.49,11.49,0,0,1,22.979,0,10.968,10.968,0,0,1-.971,4.606,21.025,21.025,0,0,1-1.549,2.63c-.267.407-.544.829-.8,1.247Zm-.007-32.229a10.251,10.251,0,0,0-10.24,10.24,9.734,9.734,0,0,0,.512,3.223,10.459,10.459,0,0,0,1.024,1.969q.1.157.192.316l7.047,11.655q.334.553.666,1.107c.261.435.527.879.8,1.322l7.107-11.755c.265-.438.548-.869.822-1.286a19.821,19.821,0,0,0,1.46-2.472,9.712,9.712,0,0,0,.854-4.078A10.251,10.251,0,0,0,1855.212,2391.73Z" transform="translate(-1843.722 -2390.48)" fill="#1d1d1b"/>
      </g>
      <circle id="Ellipse_205" data-name="Ellipse 205" cx="4.25" cy="4.25" r="4.25" transform="translate(7.239 6.791)" fill="#fff"/>
    </g>
  </g>
</svg>
