<svg viewBox="0 0 150 150" xmlns="http://www.w3.org/2000/svg"><path d="m80.7.88a67.43 67.43 0 1 0 .14 0z" fill="#f4f4f4"/><g stroke-linejoin="round" stroke-width="2.6"><path d="m99.17 19.14-10.66 10.66v-6.24h-8.81v15.04l-4.89 4.9v36.83h48.58v-36.52z" fill="#fff" stroke="#1d1d1b" stroke-linecap="round"/><path d="m114.72 79.14v-21.52h-12.69v21.52" fill="#d0d0d0" stroke="#1d1d1b" stroke-linecap="round"/><path d="m84.45 46.28h9.79v9.79h-9.79z" fill="#d0d0d0" stroke="#1d1d1b" stroke-linecap="round"/><path d="m59.22 45.07-14.72 14.71v-8.61h-12.16v20.77l-6.76 6.76v50.85h67.09v-50.42z" fill="#fff" stroke="#1d1d1b" stroke-linecap="round"/><path d="m80.7 128.36v-30.16h-17.53v30.16" fill="#fff" stroke="#70e4bc"/><path d="m38.9 82.54h13.52v13.52h-13.52z" fill="#fff" stroke="#70e4bc" stroke-linecap="round"/><path d="m103.57 116.53a40.59 40.59 0 0 0 15.7-25.31" fill="#fff" stroke="#1d1d1b" stroke-linecap="round"/><path d="m68.8 21.86a40.55 40.55 0 0 0 -30.95 18.45" fill="#fff" stroke="#1d1d1b" stroke-linecap="round"/></g></svg>