<svg viewBox="0 0 150 150" xmlns="http://www.w3.org/2000/svg"><path d="m122.24 26.53 20.35 7a4.7 4.7 0 0 1 3 5.93v.13l-24.78 71.41a54.72 54.72 0 1 1 -103.41-35.83l24.72-71.36a5.12 5.12 0 0 1 6.05-2.93z" fill="#f4f4f4"/><g stroke-linecap="round" stroke-linejoin="round" stroke-width="2.6"><path d="m119.29 99.92h6.12v-10.98h-6.12" fill="#d0d0d0" stroke="#1d1d1b"/><path d="m119.29 41.64v-10.99h-94.7v80.09h11.14v7.14h18.28v-7.14h36.81v7.14h18.28v-7.14h10.19v-10.82-10.98-.11-36.23" fill="#fff" stroke="#1d1d1b"/><path d="m119.29 41.64h6.12v10.97h-6.12z" fill="#d0d0d0" stroke="#1d1d1b"/><circle cx="79.35" cy="70.78" fill="#d0d0d0" r="25.53" stroke="#1d1d1b"/><path d="m79.35 57.65v4.5" fill="#fff" stroke="#1d1d1b"/><path d="m79.35 79.15v4.5" fill="#fff" stroke="#1d1d1b"/><path d="m68.09 64.15 3.9 2.25" fill="#fff" stroke="#1d1d1b"/><path d="m86.7 74.9 3.9 2.25" fill="#fff" stroke="#1d1d1b"/><path d="m68.09 77.15 3.9-2.25" fill="#fff" stroke="#1d1d1b"/><path d="m86.7 66.4 3.9-2.25" fill="#fff" stroke="#1d1d1b"/><path d="m39.31 49.11v43.38" fill="#fff" stroke="#70e4bc"/><circle cx="79.35" cy="70.78" fill="#fff" r="4.23" stroke="#1d1d1b" transform="matrix(.38268343 -.92387953 .92387953 .38268343 -16.41 117)"/></g></svg>