<svg viewBox="0 0 150 150" xmlns="http://www.w3.org/2000/svg"><path d="m71.12 11.19 18.82-10.46a4.69 4.69 0 0 1 6.41 1.73l.06.11 36.69 66a54.72 54.72 0 1 1 -95.66 53.17l-36.69-66a5.14 5.14 0 0 1 1.85-6.47z" fill="#f4f4f4"/><path d="m28.49 62.6h29.66v17.64h-29.66z" fill="#d0d0d0" stroke="#1d1d1b" stroke-linecap="round" stroke-linejoin="round" stroke-width="2.6"/><path d="m120.35 51.67-12.57 21.69h-59.56l26.16-47.08a9.26 9.26 0 0 1 12.62-3.63l29.76 16.43a9.27 9.27 0 0 1 3.59 12.59z" fill="#fff" stroke="#1d1d1b" stroke-linecap="round" stroke-linejoin="round" stroke-width="2.6"/><path d="m115.09 51.21-2.94 5.31a2.85 2.85 0 0 1 -2.5 1.47 2.79 2.79 0 0 1 -1.38-.36l-5.27-2.93a2.86 2.86 0 0 1 -1.12-3.88l2.94-5.32a2.86 2.86 0 0 1 3.88-1.11l5.3 2.93a2.87 2.87 0 0 1 1.09 3.89z" fill="#70e4bc"/><g stroke-linecap="round" stroke-linejoin="round" stroke-width="2.6"><path d="m86.66 32.09-11.88 21.18" fill="none" stroke="#70e4bc"/><path d="m76.8 36.52 4.23-7.58" fill="none" stroke="#70e4bc"/><path d="m70.14 48.03 4.35-7.5" fill="none" stroke="#70e4bc"/><path d="m28.49 73.6h83.29v54.91h-83.29z" fill="#fff" stroke="#1d1d1b"/><path d="m119.13 92.55v17h-12.82a8.51 8.51 0 1 1 0-17z" fill="#d0d0d0" stroke="#1d1d1b"/></g></svg>