<svg viewBox="0 0 150 150" xmlns="http://www.w3.org/2000/svg"><path d="m91 10.41 12.22-9.14-89.22 66.73-.07.06-12.27 9.16a3.33 3.33 0 0 0 -.74 4.67.35.35 0 0 0 .08.11l32.25 43.1a38.92 38.92 0 0 0 54.45 8l.16-.12a39.43 39.43 0 0 0 15.29-26.27 39.43 39.43 0 0 0 29.52-7.26 38.91 38.91 0 0 0 8-54.45l-.12-.15-32.29-43.15a4.52 4.52 0 0 0 -5.09-.43" fill="#f4f4f4"/><g stroke-linecap="round" stroke-linejoin="round" stroke-width="2.6"><path d="m57.04 57.07h65.09v65.09h-65.09z" fill="#d0d0d0" stroke="#1d1d1b"/><circle cx="74.3" cy="74.95" fill="#fff" r="37.84" stroke="#1d1d1b"/><path d="m30.72 27.84h30.68a2.85 2.85 0 0 1 2 .83l4.73 4.73a2.84 2.84 0 0 0 2 .84h19.87a2.84 2.84 0 0 1 2.84 2.84v53a2.84 2.84 0 0 1 -2.84 2.81h-59.28a2.85 2.85 0 0 1 -2.85-2.84v-59.36a2.85 2.85 0 0 1 2.85-2.85z" fill="#fff" stroke="#70e4bc"/></g></svg>