<svg viewBox="0 0 150 150" xmlns="http://www.w3.org/2000/svg"><path d="m68.09 2.11a67.43 67.43 0 1 0 .14 0z" fill="#f4f4f4"/><g stroke-linecap="round" stroke-linejoin="round" stroke-width="2.6"><path d="m79.81 74.9 25.15-25 25 25h-14.07s1.75 21.1-19.46 34.1c0 0-18.82 12.9-41.83-.77l15.13-15.06s9.09 2.74 16.39-3.17c.23-.19 7.34-5.72 7.86-15.1z" fill="#fff" stroke="#1d1d1b"/><path d="m70.19 75.11-25.09 25.1-25.1-24.99h14.11s-1.8-21.13 19.38-34.22c0 0 18.79-13 41.83.66l-15.1 15.15s-9.6-3.12-17.84 3.64c-1.91 1.55-5.86 5.29-6.38 14.67z" fill="#d0d0d0" stroke="#000"/><circle cx="74.62" cy="74.76" fill="#fff" r="13.47" stroke="#70e4bc"/></g><path d="m70.63 74a5.41 5.41 0 0 1 -.5-2.25 4.18 4.18 0 0 1 4.43-4.09c3.36 0 4.43 2.19 4.5 3.94l-2.37.4a2 2 0 0 0 -2.08-2.17 1.9 1.9 0 0 0 -2 2 5.62 5.62 0 0 0 .58 2.17h4v2h-3.38a4.38 4.38 0 0 1 0 .51 3.49 3.49 0 0 1 -1.78 3.14h3.8a1.85 1.85 0 0 0 1.9-2l2.32.26a3.66 3.66 0 0 1 -3.72 4h-7.18v-2.26a3.21 3.21 0 0 0 2.3-2.86 4.91 4.91 0 0 0 -.09-.77h-2.11v-2.02z" fill="#1d1d1b"/></svg>