<svg viewBox="0 0 150 150" xmlns="http://www.w3.org/2000/svg"><path d="m28.74 131.2-21.11-4.2a4.69 4.69 0 0 1 -3.76-5.47v-.13l14.84-74a54.72 54.72 0 1 1 107.34 21.44l-14.85 74a5.13 5.13 0 0 1 -5.6 3.73z" fill="#f4f4f4"/><g stroke-linecap="round" stroke-linejoin="round" stroke-width="2.6"><path d="m46.79 59.23 28.34-28.34 28.35 28.34h-12.29v24.78l-32.11.14v-24.92z" fill="#fff" stroke="#1d1d1b"/><path d="m21.15 84.15 13.77-13.77 13.78 13.77h-5.97v15.61h-15.61v-15.61z" fill="#d0d0d0" stroke="#1d1d1b"/><path d="m101.3 84.15 13.78-13.77 13.77 13.77h-5.97v15.61h-15.61v-15.61z" fill="#d0d0d0" stroke="#1d1d1b"/><circle cx="75.13" cy="95.82" fill="#fff" r="23.29" stroke="#70e4bc"/></g><text fill="#1d1d1b" font-family="CircularStd-Medium, Circular Std" font-size="32.81" font-weight="500" transform="translate(65.46 105.88)">£</text></svg>