<svg id="Layer_1" data-name="Layer 1" xmlns="http://www.w3.org/2000/svg" viewBox="0 0 150 150"><defs><style>.cls-1{fill:#f4f4f4;}.cls-2{fill:none;stroke-miterlimit:10;}.cls-2,.cls-3,.cls-4{stroke:#1d1d1b;}.cls-2,.cls-3,.cls-4,.cls-5{stroke-width:2.6px;}.cls-3,.cls-5{fill:#fff;}.cls-3,.cls-4,.cls-5{stroke-linecap:round;stroke-linejoin:round;}.cls-4{fill:#d0d0d0;}.cls-5{stroke:#70e4bc;}</style></defs><title>Artboard 1 copy 125</title><path id="Path_2" data-name="Path 2" class="cls-1" d="M79.34,10.17,98.78.89A4.69,4.69,0,0,1,105.06,3l.06.12,32.54,68.15a54.72,54.72,0,0,1-98.77,47.14L6.36,50.28A5.12,5.12,0,0,1,8.6,43.94Z"/><rect class="cls-2" x="30.59" y="23.81" width="88.62" height="9.31"/><rect class="cls-3" x="35.47" y="53.96" width="5.32" height="15.08" transform="translate(-23.37 99.63) rotate(-90)"/><rect class="cls-3" x="35.47" y="84.41" width="5.32" height="15.08" transform="translate(-53.82 130.08) rotate(-90)"/><rect class="cls-4" x="40.9" y="119.75" width="14.85" height="5.6"/><rect class="cls-3" x="109.22" y="53.96" width="5.32" height="15.08" transform="translate(50.38 173.38) rotate(-90)"/><rect class="cls-3" x="109.22" y="84.41" width="5.32" height="15.08" transform="translate(19.93 203.83) rotate(-90)"/><rect class="cls-4" x="94.26" y="119.75" width="14.85" height="5.6" transform="translate(203.37 245.09) rotate(-180)"/><rect class="cls-3" x="45.67" y="33.12" width="5.32" height="86.63"/><rect class="cls-3" x="99.02" y="33.12" width="5.32" height="86.63" transform="translate(203.37 152.87) rotate(-180)"/><rect class="cls-5" x="73.34" y="11.36" width="5.32" height="125.18" transform="translate(-29.82 80.82) rotate(-47.93)"/><rect class="cls-5" x="71.32" y="11.43" width="5.32" height="125.1" transform="translate(68.64 178.46) rotate(-132.07)"/><rect class="cls-4" x="20.5" y="124.4" width="14.85" height="5.6"/><rect class="cls-4" x="114.65" y="124.4" width="14.85" height="5.6" transform="translate(244.16 254.4) rotate(-180)"/><rect class="cls-3" x="25.27" y="21.32" width="5.32" height="103.09"/><rect class="cls-3" x="119.42" y="21.32" width="5.32" height="103.09" transform="translate(244.16 145.72) rotate(-180)"/><rect class="cls-4" x="30.8" y="23.81" width="88.62" height="9.31" transform="translate(150.21 56.93) rotate(-180)"/></svg>