<svg viewBox="0 0 150 150" xmlns="http://www.w3.org/2000/svg"><path d="m67.5 14.22a67.43 67.43 0 1 0 .14 0z" fill="#70e4bc"/><g stroke="#1d1d1b" stroke-linecap="round" stroke-linejoin="round" stroke-width="2.6"><path d="m35.76 39.5h-15.76v15.75h15.76c9.65 0 14.35 9 19 19.72 2.55-5.91 5.08-12.34 8.41-18.09-5.57-9.66-13.39-17.38-27.41-17.38z" fill="#fff"/><path d="m130 102.53-24-24v16.16h-15.42c-9.76 0-14.46-9-19.07-19.72-2.54 5.91-5 12.34-8.35 18.09 5.6 9.67 13.44 17.39 27.42 17.39h15.42v16.06z" fill="#fff"/><path d="m130 47.47-24-24v16h-15.42c-14 0-21.82 7.72-27.42 17.38-3.33 5.78-5.86 12.21-8.41 18.15-4.64 10.73-9.34 19.72-19 19.72h-15.75v15.76h15.76c14 0 21.84-7.72 27.4-17.39 3.31-5.78 5.84-12.21 8.35-18.09 4.61-10.72 9.31-19.72 19.07-19.72h15.42v16.18z" fill="#d0d0d0"/></g></svg>