<svg viewBox="0 0 150 150" xmlns="http://www.w3.org/2000/svg"><path d="m134.89 74 12.65 8.54-92.39-62.28-.07-.05-12.66-8.54a3.36 3.36 0 0 0 -4.66.84.22.22 0 0 1 0 .08l-30.14 44.64a38.91 38.91 0 0 0 10.38 54l.16.11a39.37 39.37 0 0 0 29.84 5.84 39.41 39.41 0 0 0 16.57 25.49 38.92 38.92 0 0 0 54-10.39l.11-.15 30.09-44.64a4.49 4.49 0 0 0 -1.27-4.94" fill="#f4f4f4"/><g stroke-linecap="round" stroke-linejoin="round" stroke-width="2.6"><path d="m98.24 56.78v10.06h-46.48v-10.06a23.24 23.24 0 1 1 46.48 0z" fill="none" stroke="#1d1d1b"/><path d="m109.08 58.43v8.41h-10.84v-10.06a23.24 23.24 0 1 0 -46.48 0v10.06h-10.84v-8.41c0-19.43 15.26-35.18 34.08-35.18s34.08 15.75 34.08 35.18z" fill="#d0d0d0" stroke="#1d1d1b"/><path d="m98.24 56.78v10.06h-46.48v-10.06a23.24 23.24 0 1 1 46.48 0z" fill="none" stroke="#1d1d1b"/><rect fill="#fff" height="59.92" rx="1.91" stroke="#1d1d1b" width="82.62" x="33.69" y="66.84"/><path d="m67.39 80.22h15.22" fill="none" stroke="#70e4bc"/><path d="m67.39 91.46h15.22" fill="none" stroke="#70e4bc"/><path d="m67.39 102.7h15.22" fill="none" stroke="#70e4bc"/><path d="m67.39 113.94h15.22" fill="none" stroke="#70e4bc"/></g></svg>