<svg viewBox="0 0 150 150" xmlns="http://www.w3.org/2000/svg"><path d="m69.59 12.87a67.43 67.43 0 1 0 .14 0z" fill="#70e4bc"/><g stroke-linecap="round" stroke-linejoin="round" stroke-width="2.6"><circle cx="76.08" cy="75.15" fill="#fff" r="10.35" stroke="#70e4bc"/><path d="m88.33 50.64 14.27 14c4.33 3.48 7.6 0 7.6 0 3.27-3.52 0-8.15 0-8.15s-14.79-15-18.43-18.41a10 10 0 0 0 -6.29-3h-27.54l-11.37 10.17 1.5 1 9.66 10.17s2 2.79 6.8 2.79h19.47s5.36 0 5.36-5.09a5.77 5.77 0 0 0 -5.36-5.88h-13.93" fill="#fff" stroke="#000"/><path d="m53.57 25.25 7.41 7.42-15.25 15.25-7.38-7.38z" fill="#d0d0d0" stroke="#1d1d1b"/><path d="m61.67 99.36-14.27-14c-4.33-3.48-7.6 0-7.6 0-3.27 3.52 0 8.15 0 8.15s14.79 15 18.43 18.41a10 10 0 0 0 6.29 3h27.54l11.37-10.18-1.5-1-8.58-9s-3.09-3.92-7.88-3.92h-19.47s-5.36 0-5.36 5.09a5.77 5.77 0 0 0 5.36 5.85h13.93" fill="#fff" stroke="#000"/><path d="m96.43 124.75-7.41-7.42 15.25-15.25 7.38 7.38z" fill="#d0d0d0" stroke="#1d1d1b"/><circle cx="76.08" cy="75.15" fill="#d0d0d0" r="10.35" stroke="#1d1d1b"/></g><path d="m73.07 74.41a4.14 4.14 0 0 1 -.37-1.7 3.14 3.14 0 0 1 3.3-3.08c2.53 0 3.34 1.65 3.38 3l-1.78.29a1.47 1.47 0 0 0 -1.57-1.63 1.43 1.43 0 0 0 -1.51 1.49 4.23 4.23 0 0 0 .48 1.63h3v1.59h-2.53a2.56 2.56 0 0 1 0 .39 2.61 2.61 0 0 1 -1.34 2.36h2.87a1.39 1.39 0 0 0 1.42-1.52l1.75.2a2.75 2.75 0 0 1 -2.8 3h-5.37v-1.74a2.42 2.42 0 0 0 1.74-2.16 3.83 3.83 0 0 0 -.07-.58h-1.67v-1.54z" fill="#1d1d1b"/></svg>