<svg viewBox="0 0 150 150" xmlns="http://www.w3.org/2000/svg"><path d="m53.64 143-20.46 6.7a4.68 4.68 0 0 1 -6-2.91.5.5 0 0 1 0-.13l-23.53-71.72a54.72 54.72 0 1 1 104-34.08l23.52 71.76a5.14 5.14 0 0 1 -3 6z" fill="#f4f4f4"/><g stroke-linecap="round" stroke-linejoin="round" stroke-width="2.6"><path d="m97.19 113.37a28.88 28.88 0 0 0 -44.42.42z" fill="#d0d0d0" stroke="#1d1d1b"/><path d="m80.6 103.71v-74.45h-11.1v74.5" fill="#fff" stroke="#1d1d1b"/><path d="m80.6 45.53 35.29-9.98" fill="#fff" stroke="#1d1d1b"/><path d="m33.53 58.83 35.97-10.17" fill="#fff" stroke="#1d1d1b"/><path d="m29.2 84.74 10.04-27.52 9.92 27.52" fill="none" stroke="#1d1d1b"/><path d="m54 85.06a14.81 14.81 0 0 1 -29.61 0z" fill="#fff" stroke="#70e4bc"/><path d="m100.72 64.69 10.04-27.53 9.92 27.53" fill="none" stroke="#1d1d1b"/><path d="m125.57 65a14.81 14.81 0 1 1 -29.57 0z" fill="#fff" stroke="#70e4bc"/><path d="m56 111.22a26.93 26.93 0 0 1 38.26-.17" fill="#d0d0d0" stroke="#1d1d1b"/><path d="m56.92 111.92h36.46a8.83 8.83 0 0 1 8.83 8.83 0 0 0 0 1 0 0h-54.11a0 0 0 0 1 0 0 8.83 8.83 0 0 1 8.82-8.83z" fill="#fff" stroke="#1d1d1b"/></g></svg>