<svg viewBox="0 0 150 150" xmlns="http://www.w3.org/2000/svg"><path d="m75.61 10.26 19.39-9.39a4.69 4.69 0 0 1 6.29 2.13l.06.12 32.93 68a54.72 54.72 0 0 1 -98.5 47.71l-32.92-68a5.14 5.14 0 0 1 2.2-6.36z" fill="#f4f4f4"/><g stroke-linecap="round" stroke-linejoin="round" stroke-width="2.6"><path d="m73.52 85.78-17.13-17.14" fill="none" stroke="#70e4bc"/><path d="m61.78 48.84 35.81-9.62" fill="none" stroke="#70e4bc"/><path d="m117.76 104.09a25.91 25.91 0 1 0 -39.94 21.78 14.18 14.18 0 0 1 28.06 0 25.91 25.91 0 0 0 11.88-21.78zm-25.91 9.64a11.42 11.42 0 1 1 11.42-11.42 11.42 11.42 0 0 1 -11.42 11.42z" fill="#fff" stroke="#1d1d1b"/><circle cx="91.85" cy="102.31" fill="#fff" r="11.42" stroke="#1d1d1b" transform="matrix(.61538637 -.78822561 .78822561 .61538637 -45.32 111.75)"/><path d="m91.85 113.74a14.18 14.18 0 0 0 -14 12.13 25.9 25.9 0 0 0 28.06 0 14.18 14.18 0 0 0 -14.06-12.13z" fill="#d0d0d0" stroke="#1d1d1b"/><path d="m62.53 54.28a19.9 19.9 0 1 0 -30.67 16.72 10.89 10.89 0 0 1 21.55 0 19.9 19.9 0 0 0 9.12-16.72zm-19.89 7.4a8.77 8.77 0 1 1 8.76-8.77 8.77 8.77 0 0 1 -8.76 8.77z" fill="#fff" stroke="#1d1d1b"/><circle cx="42.64" cy="52.91" fill="#fff" r="8.77" stroke="#1d1d1b" transform="matrix(.61538637 -.78822561 .78822561 .61538637 -25.31 53.95)"/><path d="m42.64 61.68a10.9 10.9 0 0 0 -10.78 9.32 19.9 19.9 0 0 0 21.55 0 10.9 10.9 0 0 0 -10.77-9.32z" fill="#d0d0d0" stroke="#1d1d1b"/><path d="m127.26 35.12a15.12 15.12 0 1 0 -23.26 12.7 8.27 8.27 0 0 1 16.37 0 15.09 15.09 0 0 0 6.89-12.7zm-15.12 5.62a6.66 6.66 0 1 1 6.67-6.66 6.66 6.66 0 0 1 -6.67 6.66z" fill="#fff" stroke="#1d1d1b"/><circle cx="112.14" cy="34.08" fill="#fff" r="6.66" stroke="#1d1d1b" transform="matrix(.61538637 -.78822561 .78822561 .61538637 16.27 101.5)"/><path d="m112.14 40.74a8.27 8.27 0 0 0 -8.14 7.08 15.1 15.1 0 0 0 16.37 0 8.28 8.28 0 0 0 -8.23-7.08z" fill="#d0d0d0" stroke="#1d1d1b"/></g></svg>