<svg viewBox="0 0 150 150" xmlns="http://www.w3.org/2000/svg"><path d="m45 128.67s-20.87-5.28-20.87-5.28a4.7 4.7 0 0 1 -3.48-5.66v-.12l18.59-73.21a54.72 54.72 0 1 1 106.1 26.86l-18.53 73.21a5.16 5.16 0 0 1 -5.79 3.45z" fill="#70e4bc"/><g stroke-linecap="round" stroke-linejoin="round" stroke-width="2.6"><path d="m99.91 85 12 12v-12h10.45a4.9 4.9 0 0 0 4.9-4.91v-40.79a4.9 4.9 0 0 0 -4.9-4.91h-53.36a4.9 4.9 0 0 0 -4.9 4.91v40.75a4.9 4.9 0 0 0 4.9 4.95z" fill="#d0d0d0" stroke="#1d1d1b"/><path d="m71.92 43.2h31.45" fill="#1d1d1b" stroke="#fff"/><path d="m71.92 50.77h31.45" fill="#1d1d1b" stroke="#fff"/><path d="m71.92 58.34h23.74" fill="#1d1d1b" stroke="#fff"/><path d="m50.82 103.61-12 12v-12h-11.18a4.9 4.9 0 0 1 -4.9-4.91v-40.7a4.9 4.9 0 0 1 4.9-5h53.36a4.9 4.9 0 0 1 4.94 5v40.7a4.9 4.9 0 0 1 -4.9 4.91z" fill="#fff" stroke="#1d1d1b"/></g><path d="m47.81 77.35a9.14 9.14 0 0 1 -.81-3.79c0-3.75 3-6.86 7.44-6.86 5.63 0 7.44 3.68 7.55 6.61l-3.99.69c0-2.39-1.4-3.65-3.5-3.65a3.19 3.19 0 0 0 -3.36 3.32 9.38 9.38 0 0 0 1 3.72h6.76v3.43h-5.74a8.5 8.5 0 0 1 .07.87 5.84 5.84 0 0 1 -3 5.27h6.39a3.1 3.1 0 0 0 3.18-3.39l3.9.43c0 3.86-2.42 6.68-6.25 6.68h-12.13v-3.8c2.38-.9 3.86-2.74 3.86-4.8a8.2 8.2 0 0 0 -.14-1.3h-3.54v-3.43z" fill="#70e4bc"/></svg>