<svg id="Layer_1" data-name="Layer 1" xmlns="http://www.w3.org/2000/svg" viewBox="0 0 150 150"><defs><style>.cls-1{fill:#f4f4f4;}.cls-2,.cls-6{fill:#fff;}.cls-2,.cls-3,.cls-5{stroke:#1d1d1b;}.cls-2,.cls-3,.cls-5,.cls-6{stroke-linecap:round;stroke-linejoin:round;stroke-width:2.6px;}.cls-3,.cls-4{fill:#d0d0d0;}.cls-5{fill:none;}.cls-6{stroke:#70e4bc;}</style></defs><title>Artboard 1 copy 50</title><path id="Path_1" data-name="Path 1" class="cls-1" d="M133.78,64.66l14,6.07L45.56,26.4l-.09,0-14-6.07A3.35,3.35,0,0,0,27,22l0,.09L5.59,71.45a38.92,38.92,0,0,0,20.1,51.23l.18.08a39.39,39.39,0,0,0,30.39.24,39.4,39.4,0,0,0,21,22,38.91,38.91,0,0,0,51.23-20.1c0-.06.05-.12.07-.17l21.42-49.39a4.52,4.52,0,0,0-2.15-4.63"/><circle class="cls-2" cx="53.03" cy="49.56" r="29.56"/><circle class="cls-2" cx="53.03" cy="46.86" r="13.05" transform="translate(-16.54 59.82) rotate(-52.02)"/><path class="cls-3" d="M69.05,73.77a16.19,16.19,0,0,0-32,0"/><polygon class="cls-4" points="38.55 73.86 39.66 71.09 66.78 71.61 67.87 75.12 51.45 79.92 38.55 73.86"/><path class="cls-5" d="M82.58,49.56a29.56,29.56,0,0,1-59.11,0"/><circle class="cls-2" cx="88.09" cy="91.56" r="38.44"/><circle class="cls-6" cx="88.09" cy="88.06" r="16.97" transform="matrix(0.62, -0.79, 0.79, 0.62, -35.53, 103.3)"/><path class="cls-6" d="M108.94,123.05a21.07,21.07,0,0,0-41.69,0"/><path class="cls-5" d="M126.53,91.56a38.44,38.44,0,1,1-76.88,0"/><path class="cls-5" d="M25.39,79.11a43.12,43.12,0,0,0,15.13,22"/><path class="cls-5" d="M105.25,47.59A43.29,43.29,0,0,0,86.62,28.71"/></svg>