<svg id="Layer_1" data-name="Layer 1" xmlns="http://www.w3.org/2000/svg" viewBox="0 0 150 150"><defs><style>.cls-1{fill:#f4f4f4;}.cls-2{fill:#d0d0d0;stroke:#1d1d1b;}.cls-2,.cls-3,.cls-4{stroke-linecap:round;stroke-linejoin:round;stroke-width:2.6px;}.cls-3,.cls-4{fill:#fff;}.cls-3{stroke:#000;}.cls-4{stroke:#70e4bc;}</style></defs><title>Artboard 1 copy 44</title><path id="Path_1" data-name="Path 1" class="cls-1" d="M85.81,17.06,97.16,6.86,14.28,81.34l-.07.06L2.86,91.6a3.35,3.35,0,0,0-.32,4.72.46.46,0,0,0,.07.07l36,40a38.91,38.91,0,0,0,54.94,3.08l.15-.13a39.45,39.45,0,0,0,12.88-27.54A39.41,39.41,0,0,0,135.31,102,38.91,38.91,0,0,0,138.37,47l-.12-.14-36-40a4.52,4.52,0,0,0-5.11,0"/><polygon class="cls-2" points="22.73 72.07 34.55 81.01 59.01 48.1 47.19 39.17 22.73 72.07"/><path class="cls-3" d="M78.56,110l-4-3.13L43,83.68c-.75-.16-1.89-1.72-2.64-2.86a11.68,11.68,0,0,1-1.16-2.25l-1-2.45L56.15,52a24.69,24.69,0,0,1,11.08,1.15L102.88,78.4l1.24,10.18-9.2,7.08Z"/><path class="cls-3" d="M67.23,53.11,102.88,78.4l4.52,3.77c1.81,1.47,1.86,4.66.38,6.48l-.68.84a4.22,4.22,0,0,1-5.95.62l-3.38-2.57"/><path class="cls-3" d="M81.36,99.93l3.13,2.54a4.22,4.22,0,0,1,.62,6l-.68.85a4.24,4.24,0,0,1-5.87.69l-1.5-1.17"/><path class="cls-3" d="M94.49,84.88,99,88.65c1.82,1.48,1.86,4.66.39,6.48l-.69.84a4.23,4.23,0,0,1-5.95.63L89.39,94"/><path class="cls-3" d="M86.25,91.47l5.1,4.14a4.22,4.22,0,0,1,.62,6l-.68.85a4.24,4.24,0,0,1-6,.62l-4-3.1"/><path class="cls-4" d="M101.54,48.89l-3.25,1a6.51,6.51,0,0,1-2,.29H74.14a6.71,6.71,0,0,0-3.42.94l-5.35,3.16a6.65,6.65,0,0,0-2.13,2L59.6,61.57c-2.34,3.83,2.12,8.55,5.85,5.53l2.76-2.4a10.3,10.3,0,0,1,12.92-.48l22.73,17a3.53,3.53,0,0,0,2.12.71h6.07"/><rect class="cls-4" x="40.9" y="79.67" width="9.55" height="15.74" rx="4.78" transform="translate(65.34 -9.22) rotate(39.04)"/><rect class="cls-4" x="56.88" y="90.71" width="9.55" height="15.74" rx="4.78" transform="translate(75.86 -16.82) rotate(39.04)"/><rect class="cls-4" x="64.81" y="98.33" width="9.55" height="11.54" rx="4.78" transform="translate(81.11 -20.59) rotate(39.04)"/><rect class="cls-4" x="48.57" y="84.24" width="9.55" height="18.31" rx="4.78" transform="translate(70.74 -12.74) rotate(39.04)"/><rect class="cls-4" x="106.51" y="42.84" width="14.89" height="41" transform="translate(-13.84 37.53) rotate(-17.65)"/></svg>