<svg viewBox="0 0 150 150" xmlns="http://www.w3.org/2000/svg"><path d="m85.27 16.16 11.27-10.29-82.27 75.13a.23.23 0 0 0 -.07.07l-11.27 10.3a3.34 3.34 0 0 0 -.28 4.72l.06.07 36.29 39.75a38.91 38.91 0 0 0 55 2.63.86.86 0 0 1 .14-.13 39.48 39.48 0 0 0 12.66-27.64 39.41 39.41 0 0 0 28.67-10.11 38.92 38.92 0 0 0 2.62-55 .86.86 0 0 1 -.13-.14l-36.32-39.72a4.51 4.51 0 0 0 -5.1.07" fill="#70e4bc"/><g stroke-linecap="round" stroke-linejoin="round" stroke-width="2.6"><path d="m38.63 40.15h72.73v84.03h-72.73z" fill="#fff" stroke="#1d1d1b"/><path d="m49.92 86.45 3.56 4.01 7.44-9.29" fill="none" stroke="#70e4bc"/><path d="m93.42 49.2h-36.84a1.16 1.16 0 0 1 -1.16-1.2v-6a8.22 8.22 0 0 1 8.21-8.21h2.37v-2.67a5.31 5.31 0 0 1 5.3-5.3h7.58a5.31 5.31 0 0 1 5.3 5.3v2.75h2.18a8.22 8.22 0 0 1 8.21 8.21v6a1.16 1.16 0 0 1 -1.15 1.12z" fill="#d0d0d0" stroke="#1d1d1b"/><path d="m70.23 66.09h31.84" fill="none" stroke="#1d1d1b"/><path d="m70.23 86.92h31.84" fill="none" stroke="#1d1d1b"/><path d="m70.23 107.76h31.84" fill="none" stroke="#1d1d1b"/></g><circle cx="53.84" cy="66.09" fill="#1d1d1b" r="1.58"/><circle cx="53.84" cy="107.76" fill="#1d1d1b" r="1.58"/></svg>