<svg viewBox="0 0 150 150" xmlns="http://www.w3.org/2000/svg"><path d="m127.48 38.34 18.88 10.35a4.69 4.69 0 0 1 1.95 6.31l-.06.12-36.25 66.25a54.72 54.72 0 1 1 -96-52.6l36.28-66.22a5.14 5.14 0 0 1 6.46-1.89z" fill="#70e4bc"/><g stroke-linecap="round" stroke-linejoin="round" stroke-width="2.6"><path d="m109 32.24h13.74s1.49 34.93-23.38 47.54a53.38 53.38 0 0 1 -24.36 5.61 53.38 53.38 0 0 1 -24.36-5.61c-24.87-12.61-23.38-47.54-23.38-47.54z" fill="#fff" stroke="#1d1d1b"/><path d="m46.17 124.35h57.66" fill="#fff" stroke="#1d1d1b"/><path d="m67.07 108h16.85a16.32 16.32 0 0 1 16.32 16.32 0 0 0 0 1 0 0h-49.49a0 0 0 0 1 0 0 16.32 16.32 0 0 1 16.32-16.32z" fill="#fff" stroke="#1d1d1b"/><path d="m66.47 89.99v18.05h18.05v-18.05" fill="#d0d0d0" stroke="#1d1d1b"/><path d="m109 25.65c0 18.51-12.71 66.35-33.5 66.35s-33.5-47.84-33.5-66.35z" fill="#fff" stroke="#1d1d1b"/><circle cx="75.5" cy="53.55" fill="none" r="13.53" stroke="#70e4bc"/></g></svg>