<svg viewBox="0 0 150 150" xmlns="http://www.w3.org/2000/svg"><path d="m83 9.49 19.85-8.34a4.69 4.69 0 0 1 6.18 2.42.61.61 0 0 1 0 .12l29.26 69.62a54.73 54.73 0 1 1 -100.83 42.39l-29.25-69.62a5.14 5.14 0 0 1 2.55-6.23z" fill="#f4f4f4"/><g stroke-linecap="round" stroke-linejoin="round" stroke-width="2.6"><path d="m103.7 88.29a26 26 0 0 1 26 26h-51.62a26 26 0 0 1 26-26" fill="#fff" stroke="#70e4bc"/><circle cx="103.52" cy="67.24" fill="#fff" r="20.91" stroke="#70e4bc"/><path d="m45.88 88.29a26 26 0 0 1 26 26h-51.62a26 26 0 0 1 26-26" fill="#fff" stroke="#70e4bc"/><circle cx="45.7" cy="67.24" fill="#fff" r="20.91" stroke="#70e4bc"/><circle cx="75.3" cy="57.93" fill="#fff" r="27.49" stroke="#1d1d1b"/><path d="m109.43 119.56a34.13 34.13 0 0 0 -68.26 0z" fill="#d0d0d0" stroke="#1d1d1b"/></g></svg>