<svg xmlns="http://www.w3.org/2000/svg" width="70" height="70" viewBox="0 0 70 70">
  <g id="Group_583" data-name="Group 583" transform="translate(-726.569 -2826.308)">
    <circle id="Ellipse_202" data-name="Ellipse 202" cx="35" cy="35" r="35" transform="translate(726.569 2826.308)" fill="#71e5bd"/>
    <g id="Group_582" data-name="Group 582" transform="translate(744.83 2845.899)">
      <path id="Path_377" data-name="Path 377" d="M922.88,3070.475a1.113,1.113,0,1,0-2,.959l-3.8,5.886a1.118,1.118,0,0,0-.6.05,1.028,1.028,0,0,0-.1.044l-3.461-3.164a1.113,1.113,0,0,0-1.481-1.251,1.115,1.115,0,0,0-.675,1.373l-3.417,3.774a1.112,1.112,0,1,0,.738.682l-.008-.022,3.367-3.719a1.111,1.111,0,0,0,.771,0,1.057,1.057,0,0,0,.108-.048l3.456,3.159a1.113,1.113,0,1,0,2.135-.172,1.081,1.081,0,0,0-.048-.11l3.844-5.947a1.113,1.113,0,0,0,1.172-1.494Z" transform="translate(-897.706 -3053.4)" fill="#fefdf7"/>
      <path id="Path_378" data-name="Path 378" d="M905.437,3061.578a.609.609,0,0,0-.622.623v13.836h-21.7V3062.65a.605.605,0,0,0-1.21,0v14.013a.6.6,0,0,0,.587.59h22.941a.6.6,0,0,0,.588-.59V3062.2A.6.6,0,0,0,905.437,3061.578Z" transform="translate(-877.236 -3046.435)" fill="#1d1d1b"/>
      <path id="Path_379" data-name="Path 379" d="M883.561,2975.425l-16.152-16.22a.58.58,0,0,0-.4-.2.592.592,0,0,0-.442.2l-16.114,16.112a.634.634,0,0,0-.192.467.493.493,0,0,0,.173.364l.037.036a.5.5,0,0,0,.385.176.643.643,0,0,0,.449-.195l15.706-15.668,15.668,15.814a.605.605,0,0,0,.442.146.719.719,0,0,0,.44-.146l.018-.013.015-.017A.657.657,0,0,0,883.561,2975.425Z" transform="translate(-850.255 -2959.006)" fill="#1d1d1b"/>
      <path id="Path_380" data-name="Path 380" d="M1043.264,2989.222a.641.641,0,0,0-.64.64v5.211a.64.64,0,0,0,1.279,0v-5.211A.641.641,0,0,0,1043.264,2989.222Z" transform="translate(-1014.224 -2984.761)" fill="#1d1d1b"/>
    </g>
  </g>
</svg>
