<svg viewBox="0 0 150 150" xmlns="http://www.w3.org/2000/svg"><path d="m68 11.52a67.43 67.43 0 1 0 .14 0z" fill="#70e4bc"/><circle cx="74.65" cy="74.97" fill="#fff" r="27.66"/><path d="m46.87 110.43a1 1 0 0 1 -1.13-.93 1 1 0 0 1 .23-.76l9.28-11.31a1 1 0 0 1 1.6 1.32l-9.28 11.31a1 1 0 0 1 -.7.37z" fill="#1d1d1b"/><path d="m53 57.94a1.06 1.06 0 0 1 -.76-.23l-12.3-10.13a1 1 0 1 1 1.32-1.58l12.34 10.1a1 1 0 0 1 -.55 1.84z" fill="#1d1d1b"/><path d="m93.19 54a1 1 0 0 1 -1.13-.93 1 1 0 0 1 .23-.76l10.13-12.31a1 1 0 0 1 1.46-.15 1 1 0 0 1 .14 1.47l-10.13 12.29a1 1 0 0 1 -.7.39z" fill="#1d1d1b"/><path d="m109.49 104.26a1 1 0 0 1 -.76-.23l-12.37-10.15a1 1 0 0 1 1.32-1.6l12.37 10.15a1 1 0 0 1 -.56 1.83z" fill="#1d1d1b"/><path d="m77.89 104.42a29.56 29.56 0 1 1 26.52-32.31 29.59 29.59 0 0 1 -26.52 32.31zm-5.59-56.77a27.49 27.49 0 1 0 30.05 24.66 27.48 27.48 0 0 0 -30-24.66z" fill="#1d1d1b"/><circle cx="39.77" cy="117.93" fill="#d0d0d0" r="11.04"/><path d="m41 129.94a12.07 12.07 0 1 1 8.15-4.35 12 12 0 0 1 -8.15 4.35zm-2.16-22a10 10 0 1 0 7.32 2.22 10 10 0 0 0 -7.37-2.16zm9.51 17" fill="#1d1d1b"/><circle cx="32.06" cy="39.78" fill="#d0d0d0" r="11.04"/><path d="m33.25 51.78a12.06 12.06 0 1 1 8.15-4.35 12.07 12.07 0 0 1 -8.15 4.35zm-2.17-22a10 10 0 1 0 7.33 2.22 9.41 9.41 0 0 0 -7.09-2.22z" fill="#1d1d1b"/><circle cx="110.22" cy="32.07" fill="#d0d0d0" r="11.04"/><path d="m111.4 44.08a12.08 12.08 0 1 1 8.15-4.35 12.06 12.06 0 0 1 -8.15 4.35zm-2.16-22a10 10 0 1 0 7.32 2.22 10 10 0 0 0 -7.32-2.22z" fill="#1d1d1b"/><circle cx="117.92" cy="110.23" fill="#d0d0d0" r="11.04"/><g fill="#1d1d1b"><path d="m119.1 122.24a12.07 12.07 0 1 1 8.15-4.35 12.06 12.06 0 0 1 -8.15 4.35zm-2.16-22a10 10 0 1 0 7.32 2.22 10 10 0 0 0 -7.32-2.22z"/><circle cx="115.61" cy="71" r="4.3"/><circle cx="34.19" cy="79.02" r="4.3"/><circle cx="70.89" cy="34.3" r="4.3"/><circle cx="78.91" cy="115.72" r="4.3"/><path d="m67.23 73.16a10.91 10.91 0 0 1 -1-4.51c0-4.46 3.61-8.15 8.84-8.15 6.69 0 8.84 4.38 9 7.85l-4.72.77c0-2.83-1.67-4.33-4.16-4.33a3.79 3.79 0 0 0 -4 3.95 11.11 11.11 0 0 0 1.16 4.42h8.05v4.07h-6.82a9.15 9.15 0 0 1 .09 1 7 7 0 0 1 -3.57 6.27h7.6c2.49 0 3.77-1.85 3.77-4l4.64.52c0 4.59-2.88 7.94-7.42 7.94h-14.42v-4.47c2.83-1.08 4.59-3.27 4.59-5.71a10.21 10.21 0 0 0 -.17-1.55h-4.21v-4.07z"/></g></svg>