<svg viewBox="0 0 150 150" xmlns="http://www.w3.org/2000/svg"><path d="m63.44 140.9-20.1 7.73a4.69 4.69 0 0 1 -6.1-2.62l-.05-.12-27.09-70.49a54.72 54.72 0 1 1 102.16-39.26l27.09 70.49a5.14 5.14 0 0 1 -2.74 6.15z" fill="#f4f4f4"/><g stroke-linejoin="round" stroke-width="2.6"><path d="m75.15 22.81-9.71 9.7v-5.68h-8.02v13.7l-4.46 4.46v33.54h44.25v-33.26z" fill="#fff" stroke="#1d1d1b" stroke-linecap="round"/><circle cx="39.04" cy="97.34" fill="#fff" r="8.32" stroke="#1d1d1b" stroke-linecap="round"/><path d="m53.62 120.24a14.58 14.58 0 1 0 -29.16 0z" fill="#d0d0d0" stroke="#1d1d1b" stroke-linecap="round"/><circle cx="110.96" cy="97.34" fill="#fff" r="8.32" stroke="#1d1d1b" stroke-linecap="round"/><path d="m125.54 120.24a14.58 14.58 0 0 0 -29.16 0z" fill="#d0d0d0" stroke="#1d1d1b" stroke-linecap="round"/><circle cx="75.01" cy="103.16" fill="#fff" r="8.32" stroke="#1d1d1b" stroke-linecap="round"/><path d="m89.59 126.06a14.59 14.59 0 0 0 -29.17 0z" fill="#d0d0d0" stroke="#1d1d1b" stroke-linecap="round"/><path d="m111 81.91v-3.74a14.2 14.2 0 0 0 -4.16-10l-2.93-2.92" fill="none" stroke="#1d1d1b" stroke-linecap="round"/><path d="m39 81.91v-3.16a15.63 15.63 0 0 1 4.57-11l2.52-2.51" fill="none" stroke="#1d1d1b" stroke-linecap="round"/><path d="m75.09 88.43v-3.25" fill="none" stroke="#1d1d1b" stroke-linecap="round"/><path d="m89.31 77.33v-19.48h-11.56v19.48" fill="#fff" stroke="#70e4bc"/><path d="m61.74 47.52h8.92v8.92h-8.92z" fill="#fff" stroke="#70e4bc" stroke-linecap="round"/></g></svg>