<svg viewBox="0 0 150 150" xmlns="http://www.w3.org/2000/svg"><path d="m82.61.92a67.43 67.43 0 1 0 .14 0z" fill="#f4f4f4"/><g fill="#fff" stroke-linecap="round" stroke-linejoin="round" stroke-width="2.6"><path d="m75 116.38h-41.39v-41.38h13.5v6.38a7.2 7.2 0 1 0 14.4 0v-6.38h13.49v13.47h6.4a7.2 7.2 0 0 1 0 14.4h-6.4z" stroke="#1d1d1b"/><path d="m33.62 75v-41.39h41.38v13.5h-6.38a7.2 7.2 0 0 0 0 14.4h6.38v13.49h-13.47l-.05 6.4a7.2 7.2 0 1 1 -14.4 0l.05-6.4z" stroke="#1d1d1b"/><path d="m116.38 75v41.39h-41.38v-13.5h6.38a7.2 7.2 0 0 0 0-14.4h-6.38v-13.49h13.47v-6.4a7.2 7.2 0 0 1 14.4 0v6.4z" stroke="#1d1d1b"/><path d="m75 33.62h41.39v41.38h-13.5v-6.38a7.2 7.2 0 0 0 -14.4 0v6.38h-13.49v-13.47l-6.4-.05a7.2 7.2 0 0 1 0-14.4l6.4.05z" stroke="#70e4bc"/></g></svg>