<svg viewBox="0 0 150 150" xmlns="http://www.w3.org/2000/svg"><path d="m91.92 132.36s-15.17 15.28-15.17 15.28a4.68 4.68 0 0 1 -6.63.12l-.1-.09-53.62-53.17a54.72 54.72 0 0 1 77.07-77.71l53.62 53.21a5.13 5.13 0 0 1 0 6.73z" fill="#70e4bc"/><g stroke-linecap="round" stroke-linejoin="round" stroke-width="2.6"><path d="m36.53 64.88-.17-24.77c-.72-6.85-6.64-6.68-6.64-6.68-5.95.19-7.17 7.12-7.17 7.12s-.28 26.14-.09 32.29c.18 5.48 2.87 8.15 2.87 8.15l22.3 22.46 1.76 1.77 18.89 1.12-.47-2.15.45-15.46s.75-6.14-3.43-10.36l-17-17.13s-4.68-4.74-9.18-.24a7.16 7.16 0 0 0 -.45 9.81l12.18 12.24" fill="#fff" stroke="#000"/><path d="m44.57 117.64.05-13 26.75.09-.04 12.95z" fill="#d0d0d0" stroke="#1d1d1b"/><path d="m113.47 65 .17-24.77c.72-6.85 6.64-6.68 6.64-6.68 6 .19 7.17 7.12 7.17 7.12s.28 26.13.09 32.29c-.18 5.47-2.87 8.15-2.87 8.15l-22.3 22.46-1.76 1.77-18.89 1.11.47-2.15-.45-15.45s-.74-6.16 3.43-10.37l17-17.13s4.66-4.75 9.16-.27a7.16 7.16 0 0 1 .45 9.81l-12.16 12.26" fill="#fff" stroke="#000"/><path d="m105.43 117.75-.05-13-26.75.09.04 12.94z" fill="#d0d0d0" stroke="#1d1d1b"/><circle cx="75.2" cy="48.55" fill="#d0d0d0" r="16.34" stroke="#1d1d1b"/></g><path d="m70.4 47.61a6.54 6.54 0 0 1 -.6-2.72 5 5 0 0 1 5.34-4.89c4 0 5.33 2.64 5.41 4.74l-2.85.46a2.37 2.37 0 0 0 -2.51-2.61 2.29 2.29 0 0 0 -2.41 2.38 6.87 6.87 0 0 0 .7 2.67h4.87v2.46h-4.12a4.32 4.32 0 0 1 0 .62 4.18 4.18 0 0 1 -2.15 3.78h4.59a2.23 2.23 0 0 0 2.33-2.5l2.79.31c0 2.77-1.73 4.79-4.48 4.79h-8.7v-2.7a3.83 3.83 0 0 0 2.77-3.4 5.88 5.88 0 0 0 -.1-.93h-2.54v-2.46z" fill="#1d1d1b"/></svg>