<svg viewBox="0 0 150 150" xmlns="http://www.w3.org/2000/svg"><path d="m68.4 2a67.43 67.43 0 1 0 .14 0z" fill="#70e4bc"/><path d="m110.65 52.59v-6.38l-5.84-2a21.88 21.88 0 0 0 -2.62-6.34l2.72-5.54-4.51-4.51-5.54 2.72a22 22 0 0 0 -6.34-2.63l-2-5.83h-6.37l-2 5.83a22 22 0 0 0 -6.34 2.63l-5.54-2.72-4.51 4.51 2.72 5.54a22.18 22.18 0 0 0 -2.63 6.34l-5.83 2v6.38l5.83 2a22.3 22.3 0 0 0 2.63 6.34l-2.72 5.53 4.52 4.54 5.54-2.73a21.74 21.74 0 0 0 6.34 2.63l2 5.84h6.38l2-5.84a21.74 21.74 0 0 0 6.34-2.63l5.52 2.73 4.51-4.52-2.72-5.53a22 22 0 0 0 2.62-6.34z" fill="#fff" stroke="#1d1d1b" stroke-linecap="round" stroke-linejoin="round" stroke-width="2.6"/><circle cx="83.34" cy="49.4" fill="none" r="14.94" stroke="#d0d0d0" stroke-linecap="round" stroke-linejoin="round" stroke-width="2.6"/><path d="m83.32 54.3a1.71 1.71 0 1 1 0 3.41 1.71 1.71 0 0 1 0-3.41zm1-1.63h-2l-.67-11.58h3.35z" fill="#1d1d1b"/><g stroke-linecap="round" stroke-linejoin="round" stroke-width="2.6"><path d="m93.05 93.55 19.32-18.92c5.86-4.72 10.29 0 10.29 0 4.42 4.75 0 11 0 11s-20 20.33-25 24.91c-4.38 4.08-8.53 4.05-8.53 4.05h-37.23l-15.39-13.74 2-1.29 11.65-12.24s4.18-5.32 10.67-5.32h26.36s7.26 0 7.26 6.89a7.81 7.81 0 0 1 -7.26 7.9h-18.87" fill="#fff" stroke="#000"/><path d="m45.99 127.92 10.04-10.04-20.66-20.66-9.99 10z" fill="#d0d0d0" stroke="#1d1d1b"/></g></svg>