<svg viewBox="0 0 150 150" xmlns="http://www.w3.org/2000/svg"><path d="m81.65 4.75a67.43 67.43 0 1 0 .14 0z" fill="#70e4bc"/><g stroke="#1d1d1b" stroke-linecap="round" stroke-linejoin="round" stroke-width="2.6"><path d="m116.47 75.11h-21.64" fill="#fff"/><path d="m33.53 75.11h22.74" fill="#fff"/><path d="m75 33.64v13.68" fill="#fff"/><path d="m75 116.59v-21.65" fill="#fff"/><path d="m75.23 47.32-8.3 8.29v-4.85h-6.85v11.71l-3.81 3.81v28.66h37.82v-28.42z" fill="#fff"/><path d="m86.94 93.47v-11.71h-9.88v11.71" fill="#d0d0d0"/><path d="m63.77 68.44h7.62v7.62h-7.62z" fill="#d0d0d0"/><circle cx="123.12" cy="72.25" fill="#fff" r="6.65"/><circle cx="26.88" cy="75.11" fill="#fff" r="6.65"/><circle cx="75" cy="123.23" fill="#fff" r="6.65"/><circle cx="106.81" cy="43.27" fill="#d0d0d0" r="9.63"/><circle cx="43.15" cy="106.95" fill="#d0d0d0" r="9.63"/><circle cx="106.82" cy="106.95" fill="#d0d0d0" r="9.63"/><circle cx="43.14" cy="43.28" fill="#d0d0d0" r="9.63"/><circle cx="75" cy="26.77" fill="#fff" r="6.65"/></g></svg>