<svg viewBox="0 0 150 150" xmlns="http://www.w3.org/2000/svg"><path d="m83.32 136.56-17.53 12.5a4.68 4.68 0 0 1 -6.56-1l-.08-.11-43.84-61.48a54.72 54.72 0 1 1 89.11-63.54l43.84 61.49a5.14 5.14 0 0 1 -1.11 6.64z" fill="#70e4bc"/><g stroke-linecap="round" stroke-linejoin="round" stroke-width="2.6"><path d="m35 38.85h-16v16h16c9.83 0 14.62 9.15 19.34 20.07 2.6-6 5.18-12.56 8.56-18.41-5.62-9.8-13.58-17.66-27.9-17.66z" fill="#d0d0d0" stroke="#1d1d1b"/><path d="m131 103-24.42-24.39v16.44h-15.72c-9.93 0-14.72-9.16-19.41-20.08-2.59 6-5.14 12.57-8.51 18.42 5.7 9.84 13.69 17.7 27.92 17.7h15.72v16.36z" fill="#d0d0d0" stroke="#1d1d1b"/><path d="m131 47-24.42-24.45v16.3h-15.72c-14.23 0-22.22 7.86-27.92 17.71-3.38 5.85-5.94 12.44-8.56 18.44-4.72 10.89-9.51 20.05-19.38 20.05h-16v16h16c14.28 0 22.24-7.86 27.9-17.7 3.41-5.81 5.96-12.35 8.55-18.35 4.69-10.95 9.48-20.1 19.41-20.1h15.72v16.49z" fill="#fff" stroke="#000"/></g></svg>