<svg viewBox="0 0 150 150" xmlns="http://www.w3.org/2000/svg"><path d="m87.74 9 20.17-7.53a4.7 4.7 0 0 1 6.09 2.66l.05.12 26.4 70.75a54.72 54.72 0 0 1 -102.54 38.27l-26.4-70.75a5.13 5.13 0 0 1 2.79-6.13z" fill="#f4f4f4"/><g stroke-linecap="round" stroke-linejoin="round" stroke-width="2.6"><ellipse cx="75" cy="75" fill="#fff" rx="46.62" ry="47.05" stroke="#1d1d1b"/><path d="m75.06 46.39-8.95 8.95v-5.24h-7.4v12.63l-4.11 4.12v30.92h40.8v-30.66z" fill="#d0d0d0" stroke="#1d1d1b"/><circle cx="122.05" cy="75" fill="#fff" r="6.97" stroke="#70e4bc"/><circle cx="27.95" cy="75" fill="#fff" r="6.97" stroke="#70e4bc"/><circle cx="75" cy="27.95" fill="#fff" r="6.97" stroke="#70e4bc"/><circle cx="75" cy="122.05" fill="#fff" r="6.97" stroke="#70e4bc"/><circle cx="108.27" cy="108.27" fill="#fff" r="6.97" stroke="#70e4bc"/><circle cx="108.27" cy="41.73" fill="#fff" r="6.97" stroke="#70e4bc"/><circle cx="41.73" cy="41.73" fill="#fff" r="6.97" stroke="#70e4bc"/><circle cx="41.73" cy="108.27" fill="#fff" r="6.97" stroke="#70e4bc"/><path d="m62.69 69.18h8.23v8.23h-8.23z" fill="#fff" stroke="#1d1d1b"/><path d="m88.27 96.51v-16.21h-10.66v16.21" fill="#fff" stroke="#1d1d1b"/></g></svg>