<svg viewBox="0 0 150 150" xmlns="http://www.w3.org/2000/svg"><path d="m104.32 18.82 21.11 4.25a4.68 4.68 0 0 1 3.75 5.47.51.51 0 0 1 0 .13l-14.87 74a54.72 54.72 0 1 1 -107.31-21.52l14.87-74a5.15 5.15 0 0 1 5.61-3.73z" fill="#70e4bc"/><g stroke="#1d1d1b" stroke-linecap="round" stroke-linejoin="round" stroke-width="2.6"><path d="m97.87 114.55a29.79 29.79 0 0 0 -45.79.43z" fill="#d0d0d0"/><path d="m80.78 104.59v-76.74h-11.45v76.79" fill="#fff"/><path d="m80.77 44.62 36.37-10.28" fill="#fff"/><path d="m32.26 58.33 37.07-10.48" fill="#fff"/><path d="m27.79 85.04 10.35-28.37 10.22 28.37" fill="none"/><path d="m53.4 85.37a15.26 15.26 0 0 1 -30.52 0z" fill="#d0d0d0"/><path d="m101.52 64.37 10.34-28.37 10.23 28.37" fill="none"/><path d="m127.12 64.7a15.26 15.26 0 0 1 -30.52 0z" fill="#d0d0d0"/><path d="m55.36 112.33a27.79 27.79 0 0 1 39.45-.17" fill="#d0d0d0"/><path d="m56.21 113.05h37.9a8.94 8.94 0 0 1 8.89 8.95v.16a0 0 0 0 1 0 0h-55.73a0 0 0 0 1 0 0v-.16a8.94 8.94 0 0 1 8.94-8.95z" fill="#fff"/></g></svg>