<svg viewBox="0 0 150 150" xmlns="http://www.w3.org/2000/svg"><path d="m134.7 80.33 11.07 10.51-80.83-76.69a.46.46 0 0 0 -.07-.07l-11.07-10.5a3.34 3.34 0 0 0 -4.73.06l-.07.06-37 39.06a38.92 38.92 0 0 0 1.31 55 .86.86 0 0 1 .14.13 39.45 39.45 0 0 0 28.48 10.65 39.37 39.37 0 0 0 12.07 27.89 38.91 38.91 0 0 0 55-1.32l.12-.13 37.06-39.06a4.49 4.49 0 0 0 -.44-5.08" fill="#70e4bc"/><g stroke-linecap="round" stroke-linejoin="round" stroke-width="2.6"><circle cx="68.2" cy="78.61" fill="#fff" r="44.74" stroke="#000"/><path d="m94.19 44.33h32.34v23.51h-32.34z" fill="#d0d0d0" stroke="#1d1d1b"/><path d="m123.72 44.33v-4.33a13.36 13.36 0 0 0 -26.72 0v4.32z" fill="none" stroke="#1d1d1b"/></g><path d="m58.14 62.06a8.76 8.76 0 1 1 -.06 17.52 8.76 8.76 0 1 1 .06-17.52zm-4 35.86 25.18-35.37h5.68l-25.17 35.37zm4-23a3.82 3.82 0 0 0 3.82-4 3.78 3.78 0 0 0 -3.82-4 3.82 3.82 0 0 0 -3.88 4 3.86 3.86 0 0 0 3.88 3.97zm22.81 6a8.76 8.76 0 1 1 0 17.52 8.76 8.76 0 1 1 0-17.52zm0 12.83a3.81 3.81 0 0 0 3.82-4 3.76 3.76 0 0 0 -3.82-4 3.81 3.81 0 0 0 -3.87 4 3.86 3.86 0 0 0 3.92 3.97z"/></svg>