<svg viewBox="0 0 150 150" xmlns="http://www.w3.org/2000/svg"><path d="m95.35 11.28 12.78-8.28-93.35 60.78h-.07l-12.79 8.39a3.34 3.34 0 0 0 -1 4.61.35.35 0 0 0 .05.08l29.35 45.14a38.91 38.91 0 0 0 53.82 11.49l.16-.11a39.43 39.43 0 0 0 17-25.22 39.42 39.42 0 0 0 29.92-5.34 38.91 38.91 0 0 0 11.46-53.82l-.11-.15-29.39-45.14a4.49 4.49 0 0 0 -5.05-.71" fill="#f4f4f4"/><g stroke-linecap="round" stroke-linejoin="round" stroke-width="2.6"><circle cx="75" cy="114.47" fill="#fff" r="12.99" stroke="#1d1d1b"/><path d="m75 101.48v-5.37" fill="#fff" stroke="#1d1d1b"/><circle cx="35.68" cy="97.46" fill="#fff" r="12.99" stroke="#1d1d1b"/><path d="m35.68 84.47v-10.88l4.56-2.49" fill="none" stroke="#1d1d1b"/><circle cx="114.32" cy="97.46" fill="#fff" r="12.99" stroke="#1d1d1b"/><path d="m114.32 84.47v-11.57l-4.68-1.8" fill="none" stroke="#1d1d1b"/><path d="m108.58 59.86v-7.81l-7.14-2.43a26.7 26.7 0 0 0 -3.22-7.76l3.33-6.77-5.55-5.52-6.74 3.33a26.73 26.73 0 0 0 -7.75-3.21l-2.44-7.15h-7.8l-2.43 7.15a26.68 26.68 0 0 0 -7.76 3.21l-6.77-3.33-5.52 5.52 3.33 6.77a27 27 0 0 0 -3.22 7.76l-7.14 2.43v7.81l7.14 2.43a27 27 0 0 0 3.22 7.76l-3.33 6.77 5.52 5.52 6.77-3.34a27 27 0 0 0 7.76 3.21l2.43 7.14h7.8l2.44-7.14a27 27 0 0 0 7.75-3.21l6.74 3.34 5.52-5.52-3.33-6.77a26.7 26.7 0 0 0 3.22-7.76z" fill="#fff" stroke="#1d1d1b"/><circle cx="75.17" cy="55.95" fill="#fff" r="16.95" stroke="#70e4bc"/><circle cx="75" cy="114.47" fill="#d0d0d0" r="5.08" stroke="#1d1d1b"/><circle cx="114.32" cy="97.46" fill="#d0d0d0" r="5.08" stroke="#1d1d1b"/><circle cx="35.68" cy="97.46" fill="#d0d0d0" r="5.08" stroke="#1d1d1b"/></g><path d="m69.79 54.89a7.29 7.29 0 0 1 -.67-3c0-3 2.44-5.51 6-5.51 4.52 0 6 2.95 6.06 5.3l-3.18.49a2.65 2.65 0 0 0 -2.81-2.93 2.56 2.56 0 0 0 -2.7 2.67 7.49 7.49 0 0 0 .78 3h5.43v2.76h-4.62a5.36 5.36 0 0 1 .06.7 4.68 4.68 0 0 1 -2.41 4.23h5.14a2.49 2.49 0 0 0 2.55-2.72l3.13.34c0 3.11-1.94 5.37-5 5.37h-9.76v-3a4.3 4.3 0 0 0 3.1-3.85 6.26 6.26 0 0 0 -.12-1.05h-2.84v-2.8z" fill="#1d1d1b"/></svg>