<svg viewBox="0 0 150 150" xmlns="http://www.w3.org/2000/svg"><path d="m97.56 20.13 13.12-7.8-95.8 56.9h-.08l-13.12 7.84a3.34 3.34 0 0 0 -1.23 4.57s0 0 0 .08l27.55 46.28a38.93 38.93 0 0 0 53.3 13.72l.16-.1a39.4 39.4 0 0 0 18-24.5 39.45 39.45 0 0 0 30.13-4.08 38.92 38.92 0 0 0 13.71-53.3 1.4 1.4 0 0 0 -.1-.16l-27.51-46.28a4.51 4.51 0 0 0 -5-1" fill="#f4f4f4"/><g stroke-linecap="round" stroke-linejoin="round" stroke-width="2.6"><path d="m102.76 90.52-27.89 27.89-27.89-27.89h12.08v-24.39l31.61-.14v24.53z" fill="#fff" stroke="#1d1d1b"/><path d="m128 65.99-13.56 13.56-13.55-13.56h5.87v-15.36h15.36v15.36z" fill="#d0d0d0" stroke="#1d1d1b"/><path d="m49.11 65.99-13.55 13.56-13.56-13.56h5.88v-15.36h15.36v15.36z" fill="#d0d0d0" stroke="#1d1d1b"/><circle cx="74.87" cy="54.51" fill="#fff" r="22.92" stroke="#70e4bc"/></g><path d="m68.83 53.19a8.52 8.52 0 0 1 -.77-3.5c0-3.46 2.8-6.32 6.86-6.32 5.19 0 6.85 3.4 7 6.09l-3.66.6c0-2.2-1.3-3.36-3.23-3.36a2.94 2.94 0 0 0 -3.09 3.06 8.69 8.69 0 0 0 .9 3.43h6.16v3.16h-5.25a5.27 5.27 0 0 1 .07.79 5.38 5.38 0 0 1 -2.76 4.86h5.94a2.86 2.86 0 0 0 2.92-3.13l3.6.4c0 3.56-2.23 6.16-5.76 6.16h-11.23v-3.43c2.2-.83 3.56-2.53 3.56-4.43a6.77 6.77 0 0 0 -.09-1.22h-3.3v-3.16z" fill="#1d1d1b"/></svg>