<svg viewBox="0 0 150 150" xmlns="http://www.w3.org/2000/svg"><path d="m136.25 70.14 12.41 8.86-90.6-64.83-.06-.06-12.43-8.88a3.34 3.34 0 0 0 -4.68.71v.07l-31.39 43.78a38.92 38.92 0 0 0 8.86 54.31l.16.11a39.41 39.41 0 0 0 29.66 6.64 39.4 39.4 0 0 0 15.82 25.94 38.91 38.91 0 0 0 54.31-8.86l.11-.15 31.37-43.78a4.51 4.51 0 0 0 -1.13-5" fill="#f4f4f4"/><path d="m57.38 31.25h-20.3a3.42 3.42 0 0 0 -3.43 3.42v28.44a3.42 3.42 0 0 0 3.43 3.42h11.92l8.37 8.37v-8.37h3.43s1.66 0 2.29-.75" fill="#d0d0d0" stroke="#1d1d1b" stroke-linecap="round" stroke-linejoin="round" stroke-width="2.6"/><path d="m94.94 64.43-10.54 10.57v-10.57h-21.35a4.31 4.31 0 0 1 -4.31-4.31v-35.81a4.31 4.31 0 0 1 4.31-4.31h46.95a4.31 4.31 0 0 1 4.31 4.31v35.81a4.31 4.31 0 0 1 -4.31 4.31z" fill="#fff" stroke="#1d1d1b" stroke-linecap="round" stroke-linejoin="round" stroke-width="2.6"/><path d="m54.07 93.09-4.56 18.41 4.07 4.39 1.57-2.47 24.84.71 10.44-23.92-23.51-4.32z" fill="#fff"/><g stroke-linecap="round" stroke-linejoin="round" stroke-width="2.6"><path d="m93.5 93.87 18.7-18.62a5.15 5.15 0 0 1 .81-.67c1.57-1.06 6.53-3.84 10.82-.19 4.68 4 .19 10.2-.7 11.33a2.08 2.08 0 0 1 -.27.32l-25.61 25.73s-3.68 3.31-6.25 3.31h-38.2" fill="#fff" stroke="#1d1d1b"/><path d="m24.08 108.39 11.29-11.56 21.06 22.05-11.12 11.12z" fill="#fff" stroke="#1d1d1b"/><path d="m51.85 114.13-13.52-14.19 14-14.16a17.43 17.43 0 0 1 7.51-3.78 16.62 16.62 0 0 1 4.44-.6h19.72a14.05 14.05 0 0 1 7.48 2.06c1.9 1.17 3.6 2.88 3.56 5.19a6.84 6.84 0 0 1 -3.04 6.5 9.76 9.76 0 0 1 -5.55 1.69h-18.34" fill="#fff" stroke="#1d1d1b"/><path d="m39 37.92h11.66" fill="none" stroke="#fff"/><path d="m39 44.57h11.66" fill="none" stroke="#fff"/><path d="m39 51.22h5.83" fill="none" stroke="#fff"/><circle cx="87.09" cy="36.97" fill="none" r="7.24" stroke="#70e4bc"/><path d="m96.08 53.2a9 9 0 1 0 -18 0z" fill="none" stroke="#70e4bc"/></g></svg>