<svg viewBox="0 0 150 150" xmlns="http://www.w3.org/2000/svg"><path d="m43.54 126-20.68-6a4.69 4.69 0 0 1 -3.28-5.77v-.13l21-72.53a54.72 54.72 0 1 1 105.16 30.43l-21 72.54a5.12 5.12 0 0 1 -5.89 3.24z" fill="#f4f4f4"/><g stroke-linecap="round" stroke-linejoin="round" stroke-width="2.6"><path d="m46.89 36.42h70.02v90.47h-69.88z" fill="#d0d0d0" stroke="#1d1d1b"/><path d="m39.48 29.89h70.02v90.48h-69.88z" fill="#d0d0d0" stroke="#000"/><path d="m102.97 95.62-17.96 17.96h-5.75-46.17v-90.47h69.88v66.94z" fill="#fff" stroke="#000"/><path d="m102.97 94.96h-17.96v17.96" fill="none" stroke="#000"/><path d="m42.59 32.96h51.4" fill="#fff" stroke="#70e4bc"/><path d="m42.59 42.82h51.4" fill="#fff" stroke="#70e4bc"/><path d="m42.59 52.68h51.4" fill="#fff" stroke="#70e4bc"/><path d="m42.59 62.53h51.4" fill="#fff" stroke="#70e4bc"/></g></svg>