<svg viewBox="0 0 150 150" xmlns="http://www.w3.org/2000/svg"><path d="m70.23 1.27a67.43 67.43 0 1 0 .15 0z" fill="#f4f4f4"/><g stroke-linecap="round" stroke-linejoin="round" stroke-width="2.6"><path d="m29.49 110.69 10.1-10.33 18.82 19.7-9.94 9.94z" fill="#fff" stroke="#1d1d1b"/><path d="m68.82 100.4h16.4a8.76 8.76 0 0 0 5-1.51 6.14 6.14 0 0 0 2.69-5.89c0-2.07-1.49-3.59-3.18-4.64a12.58 12.58 0 0 0 -6.73-1.81c-4.06 0-13.67 0-17.62 0a14.77 14.77 0 0 0 -4 .52 15.72 15.72 0 0 0 -6.74 3.42l-12.41 12.64 12.93 13.53h34.14c2.3 0 5.58-3 5.58-3l22.89-23a2.09 2.09 0 0 0 .24-.28c.8-1 4.81-6.56.62-10.12-3.83-3.27-8.26-.78-9.66.16a4.76 4.76 0 0 0 -.73.6l-16.71 16.7" fill="#fff" stroke="#1d1d1b"/><path d="m109.79 78.11c-.78-5-5.73-7.37-9.34-7.14a7.94 7.94 0 0 0 -1.65.29 7.62 7.62 0 0 0 -1.26.48 12.67 12.67 0 0 0 -12.79-3.62l-.83.28a4.82 4.82 0 0 0 -9.32 1.86 8.59 8.59 0 0 0 -11.54 5.91 7.13 7.13 0 0 0 -9.43 8 12.55 12.55 0 0 0 1.9 3.67c1 1.43 2.88.27 2.88.27l1.4-.49a11.8 11.8 0 0 1 3.38-.62c4.46-.13 16.2-.46 19.85-.47 2.45 0 5.14.53 6.69 1.84a9.29 9.29 0 0 1 3.18 4.63 5.1 5.1 0 0 1 -.28 2.63l.57.4 5.57-5.56 6.06-6 3.41-3.4c1.9-1.67 1.55-2.96 1.55-2.96z" fill="#d0d0d0" stroke="#1d1d1b"/><path d="m94.77 78.61a7.34 7.34 0 0 0 -10.07-2.49" fill="none" stroke="#1d1d1b"/><path d="m74.2 76.94a3.44 3.44 0 0 0 -4 2.79" fill="none" stroke="#1d1d1b"/><path d="m99.69 20.07c-6.11 2.36-34 14.24-24.77 31.77a8.65 8.65 0 0 0 1.37 1.91l3.36 3.81c1 1-.21 0 1.13.38l4.4 1.44a5.93 5.93 0 0 0 .93.2c24.26 3 16.78-31.79 15-38.74a1.11 1.11 0 0 0 -1.42-.77z" fill="#fff" stroke="#70e4bc"/><path d="m75.79 53-.21-.28a11.12 11.12 0 0 1 -1.13-1.95 12.63 12.63 0 0 1 -.52-1.33l-.15-.44a14.33 14.33 0 0 1 -.53-2.44 10.36 10.36 0 0 1 -.08-1.25v-2a23.66 23.66 0 0 0 -13.55 4.86s7.38 8.88 13.59 8.88a11.51 11.51 0 0 0 5.44-.82l-1.76-1.86a10.79 10.79 0 0 1 -1.1-1.37z" fill="#fff" stroke="#70e4bc"/><path d="m79.22 65.28c.37-5.82 1.87-14.46 7.41-22.34" fill="none" stroke="#1d1d1b"/></g></svg>