<svg viewBox="0 0 150 150" xmlns="http://www.w3.org/2000/svg"><path d="m23.66 101-17-13.18a4.7 4.7 0 0 1 -.93-6.57.76.76 0 0 0 .08-.11l46.19-59.73a54.72 54.72 0 1 1 86.55 67l-46.22 59.7a5.12 5.12 0 0 1 -6.67.85z" fill="#70e4bc"/><g stroke-linecap="round" stroke-linejoin="round" stroke-width="2.6"><path d="m98.08 79.36s-1.87 7.88-3.75 14.46c-2.43 8.49-4.51 16.55-4.51 16.55l22.31 19.45s6.14-36.34-14.05-50.46z" fill="#fff" stroke="#1d1d1b"/><path d="m51.92 79.36s1.87 7.88 3.75 14.46c2.43 8.49 4.51 16.55 4.51 16.55l-22.31 19.45s-6.14-36.34 14.05-50.46z" fill="#fff" stroke="#1d1d1b"/><path d="m75 20.18c-35.56 29.11-26.47 49.95-13.24 96.06h26.47c13.23-46.11 22.31-66.95-13.23-96.06" fill="#fff" stroke="#1d1d1b"/><path d="m92.71 39.39h-35.43a62.38 62.38 0 0 1 17.72-19.21 84.88 84.88 0 0 1 17.71 19.21z" fill="#d0d0d0" stroke="#1d1d1b"/><path d="m74.99 83.38v46.44" fill="#fff" stroke="#1d1d1b"/><circle cx="74.99" cy="58.54" fill="none" r="9.67" stroke="#d0d0d0"/></g></svg>