<svg viewBox="0 0 150 150" xmlns="http://www.w3.org/2000/svg"><path d="m112.41 19.32 14.59-4.43-106.61 32.37h-.09l-14.6 4.46a3.34 3.34 0 0 0 -2.29 4.14v.09l15.63 51.51a38.91 38.91 0 0 0 48.48 26.05h.18a39.42 39.42 0 0 0 23.36-19.51 39.44 39.44 0 0 0 30.23 3.23 38.92 38.92 0 0 0 26.05-48.48l-.06-.18-15.63-51.57a4.53 4.53 0 0 0 -4.65-2.11" fill="#70e4bc"/><g stroke="#1d1d1b" stroke-linecap="round" stroke-linejoin="round" stroke-width="2.6"><path d="m113.2 121.27h-75.68v-7.76c0-4.23 0-13.69 0-13.69 4.35-8.82 16.21-13 26.71-13h22.29c13.27 0 24.58 3.25 26.64 15.93v10.75z" fill="#fff"/><path d="m37.48 102.76s8 5.77 16.14 5.77 11.48-5.77 21.7-5.77 11.66 5.77 19.55 5.77 18.29-5.77 18.29-5.77v-2.94a13 13 0 0 0 -13-13h-49.7a13 13 0 0 0 -13 13v2.94" fill="#d0d0d0"/><path d="m33.04 129.34h83.92" fill="#fff"/><path d="m67.79 38.42a6.33 6.33 0 0 1 -6 6 6 6 0 0 1 -6-6c0-3.34 6-17.76 6-17.76s6 14.91 6 17.76z" fill="#fff"/><path d="m93.88 38.42a6 6 0 0 1 -12 0c0-3.68 6-17.76 6-17.76s6 14.04 6 17.76z" fill="#fff"/></g><path d="m56.5 72a5.42 5.42 0 0 0 5.62 5.19 5 5 0 0 0 5.27-5.06c0-3.45-2.53-5.13-5.39-5.13a6.22 6.22 0 0 0 -4.63 1.93l-4.84-1.76 3.43-14h15.25v4.51h-11.75l-1.71 7a7.66 7.66 0 0 1 5.31-1.93c5.53 0 9.52 3.43 9.52 9.26 0 5.23-4 9.6-10.46 9.6-6 0-10.12-4-10.46-8.36z" fill="#1d1d1b"/><path d="m81 72a5.43 5.43 0 0 0 5.62 5.19 5 5 0 0 0 5.28-5.06c0-3.43-2.53-5.15-5.36-5.15a6.23 6.23 0 0 0 -4.64 1.93l-4.9-1.78 3.43-14h15.26v4.51h-11.75l-1.71 7a7.66 7.66 0 0 1 5.31-1.93c5.54 0 9.52 3.43 9.52 9.26 0 5.23-4 9.6-10.46 9.6-6 0-10.12-4-10.46-8.36z" fill="#1d1d1b"/></svg>