<svg viewBox="0 0 150 150" xmlns="http://www.w3.org/2000/svg"><path d="m114.18 33.6 14.73-4-107.48 29.4h-.09l-14.72 4a3.35 3.35 0 0 0 -2.4 4.08v.09l14.21 51.92a38.91 38.91 0 0 0 47.73 27.38h.19a39.44 39.44 0 0 0 23.86-18.84 39.4 39.4 0 0 0 30.13 4.06 38.91 38.91 0 0 0 27.37-47.74c0-.06 0-.12-.05-.18l-14.18-51.93a4.52 4.52 0 0 0 -4.57-2.27" fill="#70e4bc"/><g stroke-linecap="round" stroke-linejoin="round" stroke-width="2.6"><path d="m113.21 122.79c11.64-11.74 16.7-27.54 16.7-39.25 0-31.13-25.72-56.33-55.64-56.33s-54.18 25.24-54.18 56.37c0 11.11 5.57 30.23 14.76 39.21z" fill="#fff" stroke="#1d1d1b"/><path d="m76.25 75.4 21.32 6.5-21.32 6.5a6.56 6.56 0 0 1 -4.92-.4c-1.67-.87-3.33-2.61-3.33-6.1s1.68-5.23 3.35-6.1a6.56 6.56 0 0 1 4.9-.4z" fill="#d0d0d0" stroke="#1d1d1b"/><path d="m74.27 36.09v11.57" fill="none" stroke="#d0d0d0"/><path d="m113.21 106.32-9.63-5.79" fill="none" stroke="#d0d0d0"/><path d="m113.56 60.1-9.72 5.63" fill="none" stroke="#d0d0d0"/><path d="m97.57 42.86-5.76 9.89" fill="none" stroke="#d0d0d0"/><path d="m119.25 83.45-11.12-.14" fill="none" stroke="#d0d0d0"/><path d="m35.12 59.84 9.68 5.7" fill="none" stroke="#d0d0d0"/><path d="m51.42 42.58 5.65 9.96" fill="none" stroke="#d0d0d0"/><path d="m29.29 83.64 11.12-.19" fill="none" stroke="#d0d0d0"/><path d="m35.37 106.39 9.61-5.81" fill="none" stroke="#d0d0d0"/><path d="m54.24 111.05h40.45v11.74h-40.45z" fill="#d0d0d0" stroke="#1d1d1b"/></g></svg>