<svg viewBox="0 0 150 150" xmlns="http://www.w3.org/2000/svg"><path d="m130.46 48.7 14.64 4.3-106.83-31.64h-.09l-14.63-4.36a3.35 3.35 0 0 0 -4.19 2.2v.09l-15.36 51.6a38.92 38.92 0 0 0 26.13 48.44h.18a39.46 39.46 0 0 0 30.23-3.33 39.42 39.42 0 0 0 23.46 19.3 38.92 38.92 0 0 0 48.44-26.13 1.21 1.21 0 0 1 0-.18l15.31-51.61a4.51 4.51 0 0 0 -2.65-4.38" fill="#f4f4f4"/><g stroke="#1d1d1b" stroke-linecap="round" stroke-linejoin="round" stroke-width="2.6"><path d="m108.66 91.25c-13 1.68-13.85-10-13.85-10a10 10 0 0 1 -9.87 10c-9.52.08-9.88-10-9.88-10a10.06 10.06 0 0 1 -9.88 10c-9 .23-9.88-10-9.88-10-.47 7.68-5.8 9.62-9.5 10h-3.56v38.52h66.42z" fill="#fff"/><path d="m66.78 128.46v-27.79h-15.04v27.79" fill="#d0d0d0"/><path d="m75.42 100.67h24.02v14.29h-24.02z" fill="none"/><path d="m75.06 81s.27 10.12 9.79 10a10.06 10.06 0 0 0 10-10s1.12 10.29 9.82 10.12a10 10 0 0 0 9.88-10l-6.57-29.79h-65.92l-6.57 29.79a10 10 0 0 0 9.88 10c8.7.17 10-10.06 10-10.06a9.91 9.91 0 0 0 9.83 10c9.52.08 9.91-10 9.91-10z" fill="#d0d0d0"/><path d="m55.3 81.21 1.82-10.25" fill="#d0d0d0"/><path d="m94.81 81.21-1.81-10.25" fill="#d0d0d0"/><path d="m75.06 81.21.06-10.25" fill="#d0d0d0"/></g><path d="m70.66 40.8a6.87 6.87 0 0 1 -.45-2.39 5 5 0 0 1 5.29-4.9c3.89 0 5.18 2.68 5.21 4.77l-3 .46c0-1.52-.82-2.4-2.18-2.4a2 2 0 0 0 -2.14 2.12 6.26 6.26 0 0 0 .61 2.34h4.5v2.58h-3.75v.53a3.9 3.9 0 0 1 -1.75 3.43h3.85a2 2 0 0 0 2-2.12l3 .25c0 2.78-1.76 4.79-4.44 4.79h-8.41v-2.8a3.54 3.54 0 0 0 2.64-3.2 5 5 0 0 0 -.1-.88h-2.4v-2.58z" fill="#70e4bc"/><path d="m60.34 61h30a23.57 23.57 0 0 0 7.45-17.65 22.77 22.77 0 1 0 -45.53 0 23.25 23.25 0 0 0 8.08 17.65" fill="#fff" stroke="#70e4bc" stroke-linecap="round" stroke-linejoin="round" stroke-width="2.6"/><path d="m70.57 40.92a6.88 6.88 0 0 1 -.6-2.79 5.11 5.11 0 0 1 5.39-5.05c4.08 0 5.38 2.71 5.46 4.86l-2.82.48a2.41 2.41 0 0 0 -2.54-2.68 2.32 2.32 0 0 0 -2.46 2.44 7.21 7.21 0 0 0 .7 2.74h4.9v2.52h-4.16a4.72 4.72 0 0 1 0 .64 4.31 4.31 0 0 1 -2.12 3.92h4.68a2.27 2.27 0 0 0 2.3-2.5l2.83.32c0 2.85-1.76 4.92-4.53 4.92h-8.83v-2.8a4 4 0 0 0 2.8-3.54 6.27 6.27 0 0 0 -.11-1h-2.56v-2.48z" fill="#1d1d1b"/><path d="m51.16 61.02h47.68" fill="none" stroke="#1d1d1b" stroke-linecap="round" stroke-linejoin="round" stroke-width="2.6"/></svg>