<svg viewBox="0 0 150 150" xmlns="http://www.w3.org/2000/svg"><path d="m69.45 12.92a67.43 67.43 0 1 0 .14 0z" fill="#70e4bc"/><g stroke="#1d1d1b" stroke-linecap="round" stroke-linejoin="round" stroke-width="2.6"><path d="m53.54 107.13 9.67-18.43" fill="none"/><path d="m99.24 107.4-8.93-19.12" fill="none"/><path d="m62.31 54.86h34.2s7.52 0 7.52 7.52" fill="none"/><path d="m76.61 74.16v-19.3" fill="none"/><path d="m89.2 74.16v-19.3" fill="none"/><path d="m100.9 88.7h-49.19l-.71-6.42c-.08-.28-3.85-32.28-5-40.28a6.82 6.82 0 0 0 -4-5.26 13 13 0 0 0 -3.84-1.19c-10.09-.78-9-15.28 1.12-14.5 6.32.49 18.87 5 21.13 18.67v.16c.83 5.84 3.05 24.34 4.23 34.28h36.26c9.21 0 9.21 14.54 0 14.54z" fill="#fdfffe"/><path d="m46.77 102.79a49.66 49.66 0 0 0 18.32 10c14.16 4.11 28 .65 41.24-10.3 8.39-7 17.67 4.24 9.28 11.19-14.09 11.66-27.61 15.32-39.04 15.32a55.87 55.87 0 0 1 -16.2-2.44 63.84 63.84 0 0 1 -23.62-13.21c-7.11-6.78 2.91-17.35 10.02-10.56z" fill="#d0d0d0"/></g></svg>