<svg viewBox="0 0 150 150" xmlns="http://www.w3.org/2000/svg"><path d="m67.79 4.84a67.43 67.43 0 1 0 .14 0z" fill="#70e4bc"/><g stroke-linecap="round" stroke-linejoin="round" stroke-width="2.6"><path d="m129.9 128.77-82.89-.29-.17-107.25h83.06z" fill="#fff" stroke="#1d1d1b"/><circle cx="46.84" cy="101.74" fill="#d0d0d0" r="26.74" stroke="#1d1d1b"/><path d="m57.65 32.94h23.33" fill="none" stroke="#d0d0d0"/><path d="m57.65 44.66h23.33" fill="none" stroke="#d0d0d0"/><path d="m57.65 56.38h23.33" fill="none" stroke="#d0d0d0"/><path d="m38.25 110.34 16.83-16.84" fill="none" stroke="#1d1d1b"/><path d="m38.25 93.5 16.83 16.84" fill="none" stroke="#1d1d1b"/></g><path d="m95.31 31.07a6.8 6.8 0 1 1 0 13.59 6.8 6.8 0 1 1 0-13.59zm-3.13 27.81 19.55-27.42h4.4l-19.51 27.42zm3.13-17.88a3 3 0 0 0 3-3.13 2.93 2.93 0 0 0 -3-3.09 3 3 0 0 0 -3 3.09 3 3 0 0 0 3 3.13zm17.69 4.67a6.8 6.8 0 1 1 0 13.59 6.8 6.8 0 1 1 0-13.59zm0 9.95a3 3 0 0 0 3-3.13 2.93 2.93 0 0 0 -3-3.09 3 3 0 0 0 -3 3.09 3 3 0 0 0 3 3.13z" fill="#d0d0d0"/></svg>