<svg viewBox="0 0 150 150" xmlns="http://www.w3.org/2000/svg"><path d="m79.73 2.56a67.43 67.43 0 1 0 .14 0z" fill="#70e4bc"/><g stroke="#1d1d1b" stroke-linecap="round" stroke-linejoin="round" stroke-width="2.6"><path d="m38.08 106.8c0-3.42.43-11.45.2-19-.2-6.95 7.46-14.29 9.52-14.37 0 0-5.54.52-7.27.55a11.38 11.38 0 0 1 -1.2-22.69 9.06 9.06 0 0 1 3.59 0 15.47 15.47 0 0 0 -.68 9.74s1.87 9.56 10.14 10.6c1.67.26-10.12 2.37-10.12 2.37-.37 0-1.35 0-1.73 0a14.12 14.12 0 0 0 -14.13 14.17v18.63z" fill="#d0d0d0"/><path d="m111.92 106.85c0-3.41-.43-11.45-.2-18.95.2-7-7.46-14.28-9.52-14.37 0 0 5.54.53 7.27.56a11.38 11.38 0 0 0 1.2-22.69 8.84 8.84 0 0 0 -3.59 0 15.45 15.45 0 0 1 .68 9.73s-1.87 9.57-10.14 10.61c-1.67.21 10.12 2.32 10.12 2.32h1.73a14.13 14.13 0 0 1 14.13 14.16v18.63z" fill="#d0d0d0"/><path d="m57 42.16a14 14 0 0 0 -2.35-.2c-8 0-14.46 6.79-14.46 15.16s6.47 15.17 14.46 15.17a14 14 0 0 0 8.8-3.13l22.78.06a14 14 0 0 0 8.77 3.12c8 0 14.46-6.79 14.46-15.16s-6.46-15.18-14.46-15.18a14 14 0 0 0 -2.35.21z" fill="#fff"/><path d="m98.51 116h14.49v-24.82c0-12.82-8-18.83-18-18.83l-16-.86h-7.34l-17 .8c-9.92 0-18 6-18 18.83v24.88h14.47z" fill="#fff"/><ellipse cx="74.82" cy="45.05" fill="#fff" rx="21.23" ry="20.8"/><path d="m101.18 91.69c0-14.26-11.8-25.83-26.36-25.83s-26.36 11.57-26.36 25.83v34.07h52.72z" fill="#fff"/></g></svg>