<svg viewBox="0 0 150 150" xmlns="http://www.w3.org/2000/svg"><path d="m81.38 0a67.43 67.43 0 1 0 .14 0z" fill="#70e4bc"/><path d="m116.53 101.84-26.32 26.13h-51.29v-100.48h77.61z" fill="#d0d0d0" stroke="#1d1d1b" stroke-linecap="round" stroke-linejoin="round" stroke-width="2.6"/><path d="m85.74 42.21a10.9 10.9 0 0 1 -.74-3.76c0-4 3.25-7.67 8.43-7.67 6.21 0 8.27 4.19 8.3 7.47l-4.73.75c0-2.38-1.31-3.76-3.48-3.76a3.18 3.18 0 0 0 -3.41 3.32 9.74 9.74 0 0 0 .89 3.65h7.23v4h-6v.84a6.07 6.07 0 0 1 -2.85 5.37h6.13a3.11 3.11 0 0 0 3.21-3.32l4.71.4c0 4.35-2.81 7.51-7.09 7.51h-13.17v-4.36c2.53-.91 4.2-2.73 4.2-5a7.78 7.78 0 0 0 -.16-1.39h-3.88v-4z" fill="#70e4bc"/><g stroke-linecap="round" stroke-linejoin="round" stroke-width="2.6"><path d="m111.08 96.38-26.33 26.13h-51.28v-100.48h77.61z" fill="#fff" stroke="#1d1d1b"/><path d="m111.08 95.84h-26.67v26.67z" fill="none" stroke="#1d1d1b"/><path d="m43.73 32.98h30.62" fill="none" stroke="#d0d0d0"/><path d="m43.73 43.93h30.62" fill="none" stroke="#d0d0d0"/><path d="m43.73 54.87h30.62" fill="none" stroke="#d0d0d0"/></g><path d="m85.74 42.21a10.9 10.9 0 0 1 -.74-3.76c0-4 3.25-7.67 8.43-7.67 6.21 0 8.27 4.19 8.3 7.47l-4.73.75c0-2.38-1.31-3.76-3.48-3.76a3.18 3.18 0 0 0 -3.41 3.32 9.74 9.74 0 0 0 .89 3.65h7.23v4h-6v.84a6.07 6.07 0 0 1 -2.85 5.37h6.13a3.11 3.11 0 0 0 3.21-3.32l4.71.4c0 4.35-2.81 7.51-7.09 7.51h-13.17v-4.36c2.53-.91 4.2-2.73 4.2-5a7.78 7.78 0 0 0 -.16-1.39h-3.88v-4z" fill="#d0d0d0"/></svg>