<svg viewBox="0 0 150 150" xmlns="http://www.w3.org/2000/svg"><path d="m126.35 29.88 20.05 7.86a4.69 4.69 0 0 1 2.74 6v.12l-27.56 70.31a54.72 54.72 0 0 1 -101.89-40l27.52-70.17a5.13 5.13 0 0 1 6.16-2.69z" fill="#70e4bc"/><path d="m45.86 35.57a1.06 1.06 0 0 1 -1.44-.44l-5.81-10.94a1.06 1.06 0 1 1 1.88-1l5.81 11a1 1 0 0 1 -.44 1.38z" fill="#1d1d1b"/><path d="m78.59 36.77-11 5.81a1.06 1.06 0 1 1 -1-1.88l11-5.81a1.06 1.06 0 1 1 1 1.87z" fill="#1d1d1b"/><path d="m58.19 34.74a1 1 0 0 1 -1.43-.43 1.07 1.07 0 0 1 -.08-.84l3.87-11.77a1.06 1.06 0 0 1 2 .66l-3.85 11.78a1 1 0 0 1 -.51.6z" fill="#70e4bc"/><path d="m37.56 45.31a1.07 1.07 0 0 1 -.84.07l-11.72-3.92a1.07 1.07 0 1 1 .68-2l11.72 3.9a1.06 1.06 0 0 1 .67 1.34 1 1 0 0 1 -.51.61z" fill="#1d1d1b"/><path d="m39.2 57.69-11 5.81a1 1 0 0 1 -1.43-.44 1.06 1.06 0 0 1 .44-1.44l10.99-5.81a1.06 1.06 0 0 1 1 1.88z" fill="#1d1d1b"/><path d="m58.19 34.74a1 1 0 0 1 -1.43-.43 1.07 1.07 0 0 1 -.08-.84l3.87-11.77a1.06 1.06 0 0 1 2 .66l-3.85 11.78a1 1 0 0 1 -.51.6z" fill="#1d1d1b"/><g fill="#fff" stroke="#1d1d1b" stroke-linecap="round" stroke-linejoin="round" stroke-width="2.6"><path d="m125.2 111.86-32.1 17a1.07 1.07 0 0 1 -1.44-.44l-3.78-7.12c-.34-.64-2.51-.72-4.41-.8-3.22-.13-7.23-.28-10.3-2.57-.7-.52-1.68-1.2-2.82-2-4.28-2.94-10.15-7-11.82-10.12-1.22-2.28-.74-5.16-.29-7.95.34-2.09.7-4.24.09-5.4l-1.53-2.8a5 5 0 0 1 1.87-6.85l.31-.16a5.46 5.46 0 0 1 3.15-.65l-15.57-29.3a7.78 7.78 0 0 1 -.71-6.2 7.41 7.41 0 0 1 8.89-4.72 7.81 7.81 0 0 1 4.73 4.06l9.73 18.32a6.7 6.7 0 0 1 3.45-4.23c4.14-2.19 8.15.12 10 3.54a6.55 6.55 0 0 1 3.18-3.77 6.41 6.41 0 0 1 8 1.47 6.77 6.77 0 0 1 8.29-4.8 7.14 7.14 0 0 1 4.35 3.72l17.45 32.85c.9 1.7.62 3.65.3 5.91-.45 3.09-1 6.94 1.46 11.57a1.07 1.07 0 0 1 -.44 1.44z"/><path d="m62.13 82.03 10.48 17.93"/><path d="m67.37 60.72 1.83 3.44 5.1 10"/><path d="m84.77 67.44-2.13-3.97"/><path d="m95.32 63.92-1.54-2.75"/></g></svg>