<svg viewBox="0 0 150 150" xmlns="http://www.w3.org/2000/svg"><path d="m82.34 7.65 21.12-4.23a4.69 4.69 0 0 1 5.54 3.58v.12l14.9 74.08a54.72 54.72 0 1 1 -107.31 21.5l-14.84-74a5.14 5.14 0 0 1 3.73-5.6z" fill="#70e4bc"/><path d="m74.75 112.52c-17 0-33.31-3.5-43.75-9.36-7-3.92-8.12-12-8.3-15l105.12-.78a18.22 18.22 0 0 1 -8.93 15.8c-8.29 5.13-28.09 9.34-44.14 9.34z" fill="#d0d0d0"/><path d="m126.47 88.66a17 17 0 0 1 -8.27 13.39c-8.12 5-27.61 9.17-43.45 9.17-16.74 0-32.86-3.44-43.11-9.19-5.58-3.14-7.11-9.21-7.52-12.61zm2.58-2.66-107.67.8s-.55 12.1 9 17.45c11.55 6.49 28.63 9.53 44.38 9.53s36.05-4.1 44.82-9.57a19.6 19.6 0 0 0 9.47-18.21z" fill="#1d1d1b"/><path d="m75 84.74a137.1 137.1 0 0 1 -34.31-4.34c-10.86-3-17.1-7.08-17.1-11.21a4.71 4.71 0 0 1 1.48-3 10.48 10.48 0 0 1 7.64-3.26l83.34-.61a12.73 12.73 0 0 1 8.7 3.25c1.42 1.29 2.14 2.53 2.14 3.67 0 8.76-27.89 15.5-51.89 15.5z" fill="#d0d0d0"/><path d="m116.14 63.57a11.36 11.36 0 0 1 7.73 2.91c.79.71 1.72 1.76 1.72 2.71 0 3.39-6.27 7.21-16.37 10a140.4 140.4 0 0 1 -34.22 4.25 135.85 135.85 0 0 1 -34-4.29c-10.1-2.79-16.14-6.51-16.14-10a3.72 3.72 0 0 1 1.14-2.15 9.17 9.17 0 0 1 6.69-2.84l83.33-.61h.09m0-2.6h-.11l-83.33.61a11.73 11.73 0 0 0 -8.58 3.68 5.92 5.92 0 0 0 -1.83 3.93c.03 10.83 30.6 16.83 52.74 16.83s53.19-6 53.19-16.81c0-1.6-.94-3.15-2.56-4.63a14 14 0 0 0 -9.49-3.56z" fill="#1d1d1b"/><g stroke="#1d1d1b" stroke-linecap="round" stroke-linejoin="round" stroke-width="2.6"><path d="m117 83.42c1.11-2.73 2-9.49 2.41-12.56 1.22-9.83-4.68-27.59-14.51-28.8s-19.9 14.56-21.1 24.39a69 69 0 0 0 -.29 12.82s3.15 1.32 6.16 2.28a39.71 39.71 0 0 0 7.77 1.67l4.32.47a51.4 51.4 0 0 0 7.75.25z" fill="#fff"/><path d="m33.36 83.42c-1.11-2.73-2-9.49-2.41-12.56-1.22-9.86 4.68-27.59 14.51-28.8s19.89 14.56 21.11 24.39a69 69 0 0 1 .29 12.82s-3.15 1.32-6.15 2.28a39.81 39.81 0 0 1 -7.78 1.67l-4.32.47a51.4 51.4 0 0 1 -7.75.25z" fill="#fff"/><path d="m95.59 83.3c.92-3.39 1-11.51 1-15.2 0-11.8-9.57-31.92-21.37-31.92s-21.35 20.12-21.35 31.92c0 3.69.6 11.81 1.52 15.2 0 0 3.92 1.09 7.62 1.79a47.26 47.26 0 0 0 9.43.83l5.17-.07a61.82 61.82 0 0 0 9.2-.84z" fill="#d0d0d0"/><path d="m114.55 78.48c-11.19 3.62-26.38 5.85-39.49 5.85-14.87 0-33.54-2.74-44.2-7.8" fill="none"/><path d="m126 72s9.22 7.27-.75 16.72c-8.46 8-32.75 10.78-50.55 10.78s-41-2.47-50-10.74c-10.06-9.21-.38-17.28-.38-17.28s7.34 5.16 12.39 7.06a53.78 53.78 0 0 0 10.89 3.08c7.4 1.54 8.25 1.81 16.4 2.25l8.13.43c1.17 0 7.11 0 8.28-.08 4.66-.23 8.59-.75 12.17-1 2.08-.22 2.42-.22 10.77-1.84 1.58-.29 10.1-2.67 13.45-3.77.47-.16 2.9-1.36 4.35-2.08a11.23 11.23 0 0 0 1.85-1.19z" fill="#fff"/></g></svg>