<svg viewBox="0 0 150 150" xmlns="http://www.w3.org/2000/svg"><path d="m24.31 129.19-20.76-5.69a4.69 4.69 0 0 1 -3.37-5.72v-.13l20-72.83a54.72 54.72 0 0 1 105.54 28.91l-20 72.84a5.13 5.13 0 0 1 -5.84 3.33z" fill="#70e4bc"/><g stroke="#1d1d1b" stroke-linecap="round" stroke-linejoin="round" stroke-width="2.6"><path d="m103.1 117.96h10.8v-58.46l-38.79-39.5-17.07 17.06v-9.98h-14.1v24.08l-7.84 7.84v58.96h9.27z" fill="#fff"/><path d="m48.34 63.26h15.52v15.52h-15.52z" fill="#d0d0d0"/><path d="m87.07 63.26h15.52v15.52h-15.52z" fill="#d0d0d0"/><circle cx="75" cy="107.28" fill="#fff" r="22.72"/></g><path d="m70.24 106.22a6.74 6.74 0 0 1 -.45-2.36 5 5 0 0 1 5.28-4.81c3.9 0 5.19 2.63 5.21 4.69l-3 .44a2.1 2.1 0 0 0 -2.19-2.36 2 2 0 0 0 -2.09 2.09 6.16 6.16 0 0 0 .55 2.31h4.54v2.53h-3.76v.52a3.82 3.82 0 0 1 -1.78 3.37h3.84a1.94 1.94 0 0 0 2-2.08l3 .25a4.37 4.37 0 0 1 -4.44 4.71h-8.33v-2.75a3.49 3.49 0 0 0 2.63-3.15 4.82 4.82 0 0 0 -.1-.87h-2.43v-2.53z" fill="#1d1d1b"/></svg>