<svg viewBox="0 0 150 150" xmlns="http://www.w3.org/2000/svg"><path d="m74.75 9.62 19.77-8.53a4.69 4.69 0 0 1 6.2 2.36l.06.12 29.92 69.34a54.73 54.73 0 0 1 -100.5 43.35l-29.91-69.34a5.13 5.13 0 0 1 2.48-6.25z" fill="#f4f4f4"/><g stroke-linecap="round" stroke-linejoin="round" stroke-width="2.6"><path d="m96.48 107.17-9.68-18.46" fill="none" stroke="#70e4bc"/><path d="m50.73 107.44 8.94-19.14" fill="none" stroke="#70e4bc"/><path d="m87.71 54.83h-34.25s-7.53 0-7.53 7.53" fill="none" stroke="#70e4bc"/><path d="m73.39 74.15v-19.32" fill="none" stroke="#70e4bc"/><path d="m60.78 74.15v-19.32" fill="none" stroke="#70e4bc"/><path d="m49.07 88.71h49.25l.76-6.42c0-.33 3.81-32.36 4.94-40.31a6.81 6.81 0 0 1 4.06-5.28 12.91 12.91 0 0 1 3.85-1.2c10.1-.78 9-15.3-1.13-14.51-6.32.49-18.89 5-21.16 18.68v.16c-.84 5.86-3.06 24.37-4.24 34.32h-36.33c-9.22 0-9.22 14.56 0 14.56z" fill="#fdfffe" stroke="#1d1d1b"/><path d="m103.27 102.82a49.78 49.78 0 0 1 -18.35 10c-14.18 4.12-28.07.64-41.29-10.31-8.4-7-17.69 4.24-9.29 11.2 14.1 11.7 27.66 15.29 39.09 15.29a55.72 55.72 0 0 0 16.22-2.44 63.64 63.64 0 0 0 23.65-13.23c7.12-6.72-2.91-17.27-10.03-10.51z" fill="#d0d0d0" stroke="#1d1d1b"/></g></svg>