<svg viewBox="0 0 150 150" xmlns="http://www.w3.org/2000/svg"><path d="m80.33.74a67.43 67.43 0 1 0 .14 0z" fill="#f4f4f4"/><g stroke-linecap="round" stroke-linejoin="round" stroke-width="2.6"><path d="m27.86 34.57h94.28v28.5h-94.28z" fill="#d0d0d0" stroke="#1d1d1b"/><path d="m41.34 34.57h67.47v80.85h-67.47z" fill="#fff" stroke="#1d1d1b"/><path d="m47.4 97.6s11.92-1.91 11.6 11.64" fill="#fff" stroke="#70e4bc"/><path d="m102 97.6s-12-1.91-11.69 11.64" fill="#fff" stroke="#70e4bc"/><circle cx="75.07" cy="59.02" fill="#fff" r="17.34" stroke="#70e4bc"/></g><path d="m71.24 58.26a5.38 5.38 0 0 1 -.47-2.16 4 4 0 0 1 4.23-3.93c3.22 0 4.25 2.11 4.32 3.78l-2.27.37a1.89 1.89 0 0 0 -2-2.08 1.82 1.82 0 0 0 -1.92 1.9 5.38 5.38 0 0 0 .56 2.12h3.88v2h-3.27a4.21 4.21 0 0 1 0 .5 3.34 3.34 0 0 1 -1.71 3h3.65a1.77 1.77 0 0 0 1.82-1.94l2.23.25a3.52 3.52 0 0 1 -3.57 3.82h-6.9v-2.18a3.07 3.07 0 0 0 2.18-2.71 4.78 4.78 0 0 0 -.08-.75h-2v-2z" fill="#1d1d1b"/></svg>