<svg viewBox="0 0 150 150" xmlns="http://www.w3.org/2000/svg"><path d="m121.71 20.15 21 4.94a4.69 4.69 0 0 1 3.57 5.59v.13l-17.3 73.51a54.72 54.72 0 1 1 -106.6-25.08l17.3-73.51a5.13 5.13 0 0 1 5.72-3.54z" fill="#f4f4f4"/><g stroke-linecap="round" stroke-linejoin="round" stroke-width="2.6"><path d="m69.38 94.71v14.78h-7.57l13.28 17.8 13.42-17.8h-7.42v-14.78z" fill="#d0d0d0" stroke="#1d1d1b"/><path d="m55.45 55.67-13.26-10.28 4.63-5.98-22.2-.4 5.85 21.51 4.54-5.86 14.4 11.15z" fill="#d0d0d0" stroke="#1d1d1b"/><path d="m94.8 55.81 13.01-10.08-4.63-5.98 22.2-.41-5.85 21.52-4.54-5.87-13.88 11.4z" fill="#d0d0d0" stroke="#1d1d1b"/><path d="m75.09 22.71 42.94 72.09h-85.89z" fill="#fff" stroke="#70e4bc"/></g><path d="m75.11 77.93a3.85 3.85 0 0 1 3.82 3.82 3.81 3.81 0 0 1 -3.82 3.77 3.75 3.75 0 0 1 -3.72-3.77 3.79 3.79 0 0 1 3.72-3.82zm2.22-3.61h-4.33l-1.5-25.75h7.27z" fill="#1d1d1b"/></svg>