<svg viewBox="0 0 150 150" xmlns="http://www.w3.org/2000/svg"><path d="m79.77 8.06 20.79-5.64a4.68 4.68 0 0 1 5.8 3.22.56.56 0 0 0 0 .12l19.79 72.88a54.72 54.72 0 0 1 -105.58 28.68l-19.79-72.88a5.13 5.13 0 0 1 3.35-5.84z" fill="#f4f4f4"/><g stroke-linecap="round" stroke-linejoin="round" stroke-width="2.6"><path d="m39.86 43.21h-14.11v14.11h14.11c8.64 0 12.85 8.05 17 17.66 2.29-5.29 4.56-11.05 7.54-16.2-4.98-8.66-11.98-15.57-24.54-15.57z" fill="#fff" stroke="#1d1d1b"/><path d="m124.25 99.65-21.48-21.48v14.46h-13.77c-8.74 0-13-8-17.07-17.65-2.28 5.29-4.52 11-7.48 16.19 5 8.66 12 15.57 24.55 15.57h13.82v14.38z" fill="#d0d0d0" stroke="#1d1d1b"/><path d="m124.25 50.35-21.48-21.47v14.33h-13.77c-12.51 0-19.54 6.91-24.55 15.57-3 5.15-5.25 10.91-7.54 16.2-4.15 9.6-8.36 17.65-17 17.65h-14.16v14.11h14.11c12.56 0 19.56-6.91 24.54-15.57 3-5.14 5.2-10.9 7.48-16.19 4.12-9.61 8.33-17.66 17.12-17.66h13.82v14.51z" fill="#fff" stroke="#70e4bc"/></g></svg>