<svg viewBox="0 0 150 150" xmlns="http://www.w3.org/2000/svg"><path d="m73.31 138-18.31 11.27a4.68 4.68 0 0 1 -6.48-1.44l-.07-.11-39.67-64.27a54.72 54.72 0 0 1 93.15-57.45l39.65 64.28a5.13 5.13 0 0 1 -1.58 6.53z" fill="#f4f4f4"/><g stroke-linecap="round" stroke-linejoin="round" stroke-width="2.6"><path d="m25.06 93.53v-59.43a9.43 9.43 0 0 1 9.43-9.43h81.11a9.43 9.43 0 0 1 9.4 9.43v59.43z" fill="#fff" stroke="#1d1d1b"/><path d="m124.94 93.43c0 9-2 13.77-9.43 13.77h-81.11c-7.79 0-9.42-4.54-9.42-13.77z" fill="#fff" stroke="#1d1d1b"/><path d="m96.83 115.51h-8v-8.21h-27.7v8.21h-8.8a5.25 5.25 0 0 0 -5.25 5.25v4.57h55v-4.57a5.25 5.25 0 0 0 -5.25-5.25z" fill="#d0d0d0" stroke="#1d1d1b"/><path d="m36.05 35.66h77.82v46.89h-77.82z" fill="#fff" stroke="#70e4bc"/></g></svg>