<svg viewBox="0 0 150 150" xmlns="http://www.w3.org/2000/svg"><path d="m81.43 14.36a67.43 67.43 0 1 0 .15 0z" fill="#f4f4f4"/><g stroke-linecap="round" stroke-linejoin="round" stroke-width="2.6"><path d="m75 92c15.21 0 28.35-3.83 34.72-9.4a2.41 2.41 0 0 1 4.08 1.57v5.46c0 9.38-17.4 17-38.85 17s-38.8-7.63-38.8-17.06v-5.46a2.41 2.41 0 0 1 4.08-1.57h.05c6.37 5.62 19.51 9.46 34.72 9.46z" fill="#d0d0d0" stroke="#1d1d1b"/><path d="m75 106.78c15.21 0 28.35-3.84 34.72-9.41a2.39 2.39 0 0 1 1.68-.69 2.42 2.42 0 0 1 2.4 2.25v5.46c0 9.38-17.4 17-38.85 17s-38.85-7.61-38.85-17v-5.5a2.42 2.42 0 0 1 2.4-2.25 2.39 2.39 0 0 1 1.68.69h.05c6.42 5.61 19.56 9.45 34.77 9.45z" fill="#d0d0d0" stroke="#1d1d1b"/><path d="m111.45 67.08a2.42 2.42 0 0 1 2.4 2.26v5.87c0 9.39-17.4 17-38.85 17s-38.85-7.61-38.85-17v-5.87a2.42 2.42 0 0 1 2.4-2.26z" fill="#d0d0d0" stroke="#1d1d1b"/><path d="m36.15 45.65v14.57c0 9.39 17.4 17 38.85 17s38.85-7.6 38.85-17v-14.57" fill="#fff" stroke="#70e4bc"/><ellipse cx="75" cy="45.65" fill="#fff" rx="38.85" ry="16.99" stroke="#70e4bc"/></g></svg>