<svg viewBox="0 0 150 150" xmlns="http://www.w3.org/2000/svg"><path d="m132.37 54.16 14.78 3.84-107.91-27.79h-.09l-14.78-3.8a3.33 3.33 0 0 0 -4.11 2.35.29.29 0 0 0 0 .09l-13.43 52.15a38.91 38.91 0 0 0 27.88 47.45l.18.05a39.41 39.41 0 0 0 30.11-4.57 39.44 39.44 0 0 0 24.1 18.47 38.92 38.92 0 0 0 47.45-27.88c0-.06 0-.12 0-.19l13.45-52.13a4.5 4.5 0 0 0 -2.85-4.2" fill="#f4f4f4"/><path d="m41.21 74.54 66.12-.17 5.56 1.43 5.32 3.09.86 4.19-2.59 3.51-8.61 4.34-18.31 3.99-20.89.64-21.53-3.56-11.68-4.85-4.77-5.43 1.09-2.85" fill="#d0d0d0"/><path d="m74.76 117.6c-14.09 0-27.67-2.91-36.34-7.77-5.58-3.14-6.61-9.45-6.79-12.12l87.11-.64a15 15 0 0 1 -7.33 12.76c-6.88 4.28-23.32 7.77-36.65 7.77z" fill="#d0d0d0"/><path d="m117.36 98.38a13.7 13.7 0 0 1 -6.64 10.34c-6.7 4.18-22.83 7.58-36 7.58-13.88 0-27.22-2.85-35.7-7.61-4.24-2.37-5.56-6.88-6-9.69l84.28-.62m2.7-2.62-89.68.66s-.47 10.08 7.47 14.58c9.62 5.4 23.85 7.94 37 7.94s30-3.42 37.34-8a16.31 16.31 0 0 0 7.87-15.18z" fill="#1d1d1b"/><path d="m31 83a3.89 3.89 0 0 1 .75-4.17c1.82-2 5.59-3.56 9.43-4.33 22-2.71 39.1-3 66.12-.17 4.37.78 8 2.17 9.81 3.49a4.86 4.86 0 0 1 2.13 3.86" fill="none" stroke="#1d1d1b" stroke-linecap="round" stroke-linejoin="round" stroke-width="2.6"/><path d="m104.53 92.08a113.81 113.81 0 0 0 1.47-14.26c0-17.28-14-46.72-31.26-46.72s-31.27 29.44-31.27 46.72c0 5.38 2.23 14.26 2.23 14.26l7.89 1.84c4.48 1.25 6.58 1.32 11.22 1.71l5.26.53a73.6 73.6 0 0 0 10.68-.5l7.47-.66a51.23 51.23 0 0 0 7.29-1.06z" fill="#fff" stroke="#70e4bc" stroke-linecap="round" stroke-linejoin="round" stroke-width="2.6"/><path d="m68.78 70.59a8.89 8.89 0 0 1 -.6-3.16c0-3.36 2.73-6.45 7.09-6.45 5.22 0 7 3.52 7 6.29l-4 .6c0-2-1.1-3.17-2.93-3.17a2.67 2.67 0 0 0 -2.86 2.8 8.23 8.23 0 0 0 .73 3.09h6.09v3.41h-5v.7a5.08 5.08 0 0 1 -2.4 4.52h5.16a2.61 2.61 0 0 0 2.7-2.79l4 .33c0 3.66-2.36 6.32-6 6.32h-11.15v-3.7c2.13-.76 3.53-2.3 3.53-4.23a7.22 7.22 0 0 0 -.14-1.15h-3.25v-3.4z" fill="#70e4bc"/><path d="m29.41 87.64 3.06-2.81 7.6 4.69 8.03 2.75 11.78 2.39 15.09 1.1 17.63-1.33 18.77-4.85 5.11-2.99 2.13-1.88 2.03 2.86.31 3.37-1.33 3.32-3.77 4.15-6.9 3.53-10.26 2.62-7.31 1.07-10.19.78h-12.22l-14.94-1.28-12.02-2.74-6.84-3.16-4.87-4.84-1.33-4.8z" fill="#fff"/><g fill="none" stroke="#1d1d1b" stroke-linecap="round" stroke-linejoin="round" stroke-width="2.6"><path d="m118.6 84.71s6.54 5-1.76 12.85c-7 6.68-27.28 9-42.11 9s-34.16-2.06-41.69-9c-8.38-7.67-1.28-13.27-1.28-13.27"/><path d="m119.27 81.72c0 9-25.86 14-44.3 14s-39.5-5.29-43.97-12.72"/></g></svg>