<svg viewBox="0 0 150 150" xmlns="http://www.w3.org/2000/svg"><path d="m83.84 7.58 20.75-5.77a4.69 4.69 0 0 1 5.82 3.19.93.93 0 0 1 0 .13l20.23 72.76a54.72 54.72 0 1 1 -105.41 29.3l-20.23-72.76a5.13 5.13 0 0 1 3.31-5.86z" fill="#f4f4f4"/><g stroke-linecap="round" stroke-linejoin="round" stroke-width="2.6"><path d="m34.75 41h93.37v55.2h-93.37z" fill="#d0d0d0" stroke="#000"/><path d="m28.55 46.84h93.37v55.2h-93.37z" fill="#d0d0d0" stroke="#000"/><path d="m21.88 53.79h93.37v55.2h-93.37z" fill="#fff" stroke="#000"/><circle cx="68.57" cy="81.4" fill="#fff" r="15.94" stroke="#70e4bc"/><path d="m28 66.19a5.85 5.85 0 0 0 5.86-5.85" fill="#fff" stroke="#000"/><path d="m103.94 60.34a5.85 5.85 0 0 0 5.85 5.85" fill="#fff" stroke="#000"/><path d="m27.68 98.11a5.85 5.85 0 0 1 5.85 5.89" fill="#fff" stroke="#000"/><path d="m103.6 104a5.85 5.85 0 0 1 5.85-5.85" fill="#fff" stroke="#000"/></g><path d="m64.67 80.63a5.37 5.37 0 0 1 -.48-2.2 4.07 4.07 0 0 1 4.32-4c3.28 0 4.32 2.14 4.39 3.84l-2.31.38a1.92 1.92 0 0 0 -2-2.12 1.86 1.86 0 0 0 -2 1.93 5.54 5.54 0 0 0 .57 2.16h3.94v2h-3.32a4.38 4.38 0 0 1 0 .51 3.4 3.4 0 0 1 -1.74 3.06h3.71a1.8 1.8 0 0 0 1.85-2l2.26.25a3.56 3.56 0 0 1 -3.62 3.88h-7.01v-2.15a3.11 3.11 0 0 0 2.24-2.79 5 5 0 0 0 -.08-.76h-2.06v-2z" fill="#1d1d1b"/></svg>