<svg viewBox="0 0 150 150" xmlns="http://www.w3.org/2000/svg"><path d="m110.9 23.84 14.78-3.84-107.9 27.83h-.09l-14.78 3.83a3.36 3.36 0 0 0 -2.47 4v.09l13.46 52.17a38.91 38.91 0 0 0 47.32 28.08l.18-.05a39.38 39.38 0 0 0 24.14-18.48 39.43 39.43 0 0 0 30.07 4.53 38.91 38.91 0 0 0 28.08-47.33c0-.06 0-.12 0-.18l-13.47-52.12a4.5 4.5 0 0 0 -4.54-2.37" fill="#f4f4f4"/><g stroke="#1d1d1b" stroke-linecap="round" stroke-linejoin="round" stroke-width="2.6"><path d="m116.89 128.79h-21.59l2.95-9.92h15.89z" fill="#d0d0d0"/><path d="m101.24 44v74.85h9.93v-74c0-9.63-8-18.32-17.63-18.32s-17.42 8.86-17.42 18.47l.16 9.43a4.81 4.81 0 1 0 9.61 0v-3.65c0-3.5 0-.26 0-6.27 0-5.55 3.4-7.32 6.16-7.84a7.67 7.67 0 0 1 9.21 6.9v.45" fill="#d0d0d0"/><path d="m56.65 43.07h6.24a5 5 0 0 1 3.54 1.46l.34.35a5.5 5.5 0 0 0 3.89 1.61h15.39c5.9 0 5.9-9.37 0-9.37h-7.68l4.48-4.48a6.89 6.89 0 0 1 4.87-2h12.55a8.53 8.53 0 0 1 6 2.51l6.57 6.57c4.71 4.71 11.78-2.36 7.07-7.08l-8.91-8.9a8.55 8.55 0 0 0 -6-2.51h-37.23a11 11 0 0 0 -4.87 1.14l-6.25 3.08z" fill="#fff"/><path d="m28.49 21.21h28.16v25.28h-28.16z" fill="#70e4bc"/></g></svg>