<svg viewBox="0 0 150 150" xmlns="http://www.w3.org/2000/svg"><path d="m105.65 21 14-6-102.33 44h-.08l-14 6a3.36 3.36 0 0 0 -1.84 4.48.3.3 0 0 1 0 .08l21.33 49.44a38.9 38.9 0 0 0 51.07 20.49l.18-.07a39.4 39.4 0 0 0 21-22 39.46 39.46 0 0 0 30.4-.16 38.91 38.91 0 0 0 20.48-51.08l-.08-.18-21.27-49.41a4.5 4.5 0 0 0 -4.84-1.59" fill="#f4f4f4"/><g stroke-linecap="round" stroke-linejoin="round" stroke-width="2.6"><path d="m36.53 121.83v-97.15l37.17.24 20.8 13.45v83.46z" fill="#fff" stroke="#1d1d1b"/><path d="m36.59 37h28.83v10.18h-28.83z" fill="#d0d0d0" stroke="#1d1d1b"/><path d="m36.59 57.08h28.83v10.18h-28.83z" fill="#d0d0d0" stroke="#1d1d1b"/><path d="m36.59 77.37h28.73l.1 9.95h-28.83z" fill="#d0d0d0" stroke="#1d1d1b"/><path d="m48.77 121.94-.11-21.2h-12.07v21.2z" fill="#d0d0d0" stroke="#1d1d1b"/><circle cx="94" cy="105.85" fill="#fff" r="19.47" stroke="#70e4bc"/></g><path d="m89.05 104.88a6.73 6.73 0 0 1 -.61-2.8 5.17 5.17 0 0 1 5.49-5.08c4.17 0 5.5 2.72 5.58 4.88l-2.93.48a2.44 2.44 0 0 0 -2.58-2.68 2.35 2.35 0 0 0 -2.48 2.45 6.89 6.89 0 0 0 .72 2.75h5v2.54h-4.24a4.48 4.48 0 0 1 0 .64 4.31 4.31 0 0 1 -2.16 3.94h4.72a2.3 2.3 0 0 0 2.35-2.51l2.88.32c0 2.86-1.79 4.94-4.61 4.94h-9v-2.77a4 4 0 0 0 2.86-3.55 6.27 6.27 0 0 0 -.11-1h-2.59v-2.54z" fill="#1d1d1b"/></svg>