<svg viewBox="0 0 150 150" xmlns="http://www.w3.org/2000/svg"><path d="m25.48 122.37-20.17-7.54a4.7 4.7 0 0 1 -2.84-6v-.12l26.46-70.71a54.72 54.72 0 1 1 102.53 38.25l-26.46 70.75a5.14 5.14 0 0 1 -6.12 2.79z" fill="#f4f4f4"/><g stroke-linecap="round" stroke-linejoin="round" stroke-width="2.6"><path d="m112.4 120.3h-74.1v-7.59c0-4.14 0-13.41 0-13.41 4.26-8.64 15.87-12.71 26.16-12.71h21.82c13 0 24.07 3.17 26.08 15.59v10.53z" fill="#fff" stroke="#1d1d1b"/><path d="m38.26 102.18s7.85 5.66 15.8 5.66 11.24-5.66 21.25-5.66 11.42 5.66 19.14 5.66 17.91-5.66 17.91-5.66v-2.88a12.71 12.71 0 0 0 -12.71-12.71h-48.65a12.71 12.71 0 0 0 -12.74 12.71z" fill="#d0d0d0" stroke="#1d1d1b"/><path d="m33.91 128.21h82.18" fill="#fff" stroke="#1d1d1b"/><path d="m67.94 39.18a6.19 6.19 0 0 1 -5.88 5.88 5.87 5.87 0 0 1 -5.89-5.88c0-3.27 5.89-17.39 5.89-17.39s5.88 14.6 5.88 17.39z" fill="#fff" stroke="#70e4bc"/><path d="m93.49 39.18a5.89 5.89 0 0 1 -11.77 0c0-3.6 5.89-17.39 5.89-17.39s5.88 13.74 5.88 17.39z" fill="#fff" stroke="#70e4bc"/></g><path d="m56.89 72a5.3 5.3 0 0 0 5.5 5.08 4.88 4.88 0 0 0 5.16-5c0-3.36-2.48-5-5.25-5a6.05 6.05 0 0 0 -4.53 1.92l-4.77-1.7 3.36-13.73h14.93v4.43h-11.51l-1.68 6.86a7.6 7.6 0 0 1 5.21-1.86c5.42 0 9.32 3.36 9.32 9.07 0 5.12-3.95 9.41-10.24 9.41-5.88 0-9.91-3.91-10.25-8.19z" fill="#1d1d1b"/><path d="m80.86 72a5.3 5.3 0 0 0 5.5 5.08 4.88 4.88 0 0 0 5.16-5c0-3.36-2.47-5-5.25-5a6.07 6.07 0 0 0 -4.53 1.92l-4.74-1.7 3.36-13.73h14.9v4.43h-11.5l-1.68 6.88a7.56 7.56 0 0 1 5.2-1.88c5.42 0 9.32 3.33 9.32 9 0 5.12-3.94 9.41-10.24 9.41-5.88 0-9.91-3.91-10.24-8.19z" fill="#1d1d1b"/></svg>