<svg viewBox="0 0 150 150" xmlns="http://www.w3.org/2000/svg"><path d="m57.5 141.44-20.45 6.74a4.7 4.7 0 0 1 -6-2.91.65.65 0 0 1 0-.13l-23.63-71.73a54.72 54.72 0 1 1 104-34.21l23.58 71.73a5.15 5.15 0 0 1 -3 6z" fill="#f4f4f4"/><g stroke-linecap="round" stroke-linejoin="round" stroke-width="2.6"><circle cx="75.06" cy="75" fill="#fff" r="16.39" stroke="#70e4bc"/><path d="m91.45 75h15.99" fill="#fff" stroke="#70e4bc"/><path d="m42.56 75h16.11" fill="#fff" stroke="#70e4bc"/><path d="m86.68 86.6 11.3 11.3" fill="#fff" stroke="#70e4bc"/><path d="m52.1 52.02 11.38 11.38" fill="#fff" stroke="#70e4bc"/><path d="m75.06 91.39.02 16.05" fill="#fff" stroke="#70e4bc"/><path d="m75.08 42.56-.02 16.05" fill="#fff" stroke="#70e4bc"/><path d="m63.48 86.6-10.69 10.69" fill="#fff" stroke="#70e4bc"/><path d="m98.2 51.89-11.52 11.51" fill="#fff" stroke="#70e4bc"/><circle cx="115.42" cy="75" fill="#d0d0d0" r="7.98" stroke="#1d1d1b"/><circle cx="34.58" cy="75" fill="#d0d0d0" r="7.98" stroke="#1d1d1b"/><circle cx="103.58" cy="103.58" fill="#d0d0d0" r="7.98" stroke="#1d1d1b"/><circle cx="46.42" cy="46.42" fill="#d0d0d0" r="7.98" stroke="#1d1d1b"/><circle cx="75" cy="115.42" fill="#d0d0d0" r="7.98" stroke="#1d1d1b"/><circle cx="75" cy="34.58" fill="#d0d0d0" r="7.98" stroke="#1d1d1b"/><circle cx="46.42" cy="103.58" fill="#d0d0d0" r="7.98" stroke="#1d1d1b"/><circle cx="103.58" cy="46.42" fill="#d0d0d0" r="7.98" stroke="#1d1d1b"/></g></svg>