<svg viewBox="0 0 150 150" xmlns="http://www.w3.org/2000/svg"><path d="m122.45 25.4 20.55 6.46a4.69 4.69 0 0 1 3.16 5.84s0 .08 0 .12l-22.62 72.05a54.72 54.72 0 0 1 -104.47-32.78l22.63-72.09a5.13 5.13 0 0 1 6-3.12z" fill="#f4f4f4"/><g stroke-linecap="round" stroke-linejoin="round" stroke-width="2.6"><path d="m42.9 33.44h69.89v90.32h-69.75z" fill="#d0d0d0" stroke="#1d1d1b"/><path d="m106.96 98.64-17.92 17.92h-5.74-46.09v-90.32h69.75v66.83z" fill="#fff" stroke="#70e4bc"/><path d="m106.96 97.97h-17.92v17.93" fill="#fff" stroke="#70e4bc"/><path d="m46.69 55.04h51.31" fill="#fff" stroke="#70e4bc"/><path d="m46.69 46.27h51.31" fill="#fff" stroke="#70e4bc"/><path d="m46.69 37.5h51.31" fill="#fff" stroke="#70e4bc"/></g></svg>