<svg viewBox="0 0 150 150" xmlns="http://www.w3.org/2000/svg"><path d="m133.05 52.5 14.43 5-105.34-36.35h-.09l-14.42-5a3.35 3.35 0 0 0 -4.29 2v.09l-17.57 50.9a38.92 38.92 0 0 0 24 49.54l.18.06a39.47 39.47 0 0 0 30.33-2.1 39.4 39.4 0 0 0 22.56 20.36 38.9 38.9 0 0 0 49.53-24l.06-.17 17.57-50.91a4.51 4.51 0 0 0 -2.5-4.45" fill="#f4f4f4"/><g stroke-linecap="round" stroke-linejoin="round" stroke-width="2.6"><path d="m103.95 34.83 10.98.03-.24 94.02-79.88-.2.24-94.02 11.11.02z" fill="#fff" stroke="#1d1d1b"/><path d="m87.91 29.78a8 8 0 0 1 8 8v6.76l-41.79-.11v-6.74a8 8 0 0 1 8-8h4v-4.4a4.68 4.68 0 0 1 4.7-4.68h8.6a4.69 4.69 0 0 1 4.68 4.71v4.43z" fill="#d0d0d0" stroke="#1d1d1b"/><path d="m45.81 85.1 5.11 5.78 10.74-13.33" fill="none" stroke="#70e4bc"/><path d="m70.2 63.02 33.5.09" fill="none" stroke="#1d1d1b"/><path d="m70.14 86.72 33.5.09" fill="none" stroke="#1d1d1b"/><path d="m69.12 109.72 33.48.64" fill="none" stroke="#1d1d1b"/><path d="m51.58 62.97v.17" fill="none" stroke="#1d1d1b"/><path d="m50.5 109.27v.17" fill="none" stroke="#1d1d1b"/></g></svg>