<svg xmlns="http://www.w3.org/2000/svg" width="44.001" height="44.001" viewBox="0 0 44.001 44.001">
  <path id="Subtraction_19" data-name="Subtraction 19" d="M1357-180a21.861,21.861,0,0,1-8.563-1.729,21.928,21.928,0,0,1-6.993-4.715,21.933,21.933,0,0,1-4.715-6.993A21.862,21.862,0,0,1,1335-202a21.862,21.862,0,0,1,1.729-8.563,21.931,21.931,0,0,1,4.715-6.993,21.928,21.928,0,0,1,6.993-4.715A21.861,21.861,0,0,1,1357-224a21.861,21.861,0,0,1,8.563,1.729,21.928,21.928,0,0,1,6.993,4.715,21.932,21.932,0,0,1,4.715,6.993A21.862,21.862,0,0,1,1379-202a21.862,21.862,0,0,1-1.729,8.563,21.931,21.931,0,0,1-4.715,6.993,21.928,21.928,0,0,1-6.993,4.715A21.861,21.861,0,0,1,1357-180Zm-8.469-22.667a2.1,2.1,0,0,0-1.5.62,2.1,2.1,0,0,0-.62,1.5,2.1,2.1,0,0,0,.62,1.5l4.976,4.976a2.1,2.1,0,0,0,1.5.62,2.125,2.125,0,0,0,.378-.033,2.141,2.141,0,0,0,.373.033,2.107,2.107,0,0,0,1.5-.62l12.947-12.947a2.1,2.1,0,0,0,.62-1.5,2.1,2.1,0,0,0-.62-1.5,2.1,2.1,0,0,0-1.5-.62,2.1,2.1,0,0,0-1.5.62l-11.826,11.827-3.856-3.856A2.1,2.1,0,0,0,1348.532-202.666Z" transform="translate(-1335 224)" fill="#71e5bd"/>
</svg>
