<svg xmlns="http://www.w3.org/2000/svg" width="70" height="70" viewBox="0 0 70 70">
  <g id="Group_590" data-name="Group 590" transform="translate(-2582.409 -2266.794)">
    <circle id="Ellipse_203" data-name="Ellipse 203" cx="35" cy="35" r="35" transform="translate(2582.409 2266.794)" fill="#71e5bd"/>
    <g id="Group_588" data-name="Group 588" transform="translate(2602.441 2293.798)">
      <g id="Group_586" data-name="Group 586" transform="translate(0 0)">
        <path id="Path_381" data-name="Path 381" d="M2725.464,2467.606a7.372,7.372,0,0,1-7.364-7.364l0-9.35a1.189,1.189,0,0,1,1.188-1.188h2.626a1.189,1.189,0,0,1,1.188,1.188v9.35a2.367,2.367,0,0,0,4.734,0v-9.35a1.189,1.189,0,0,1,1.188-1.187h2.626a1.189,1.189,0,0,1,1.188,1.188l0,9.351A7.372,7.372,0,0,1,2725.464,2467.606Zm-6.181-16.76a.047.047,0,0,0-.046.047l0,9.35a6.223,6.223,0,1,0,12.446,0h0l.005-9.35a.047.047,0,0,0-.047-.046h-2.626a.047.047,0,0,0-.047.047v9.35a3.508,3.508,0,0,1-7.016,0v-9.35a.046.046,0,0,0-.047-.047Z" transform="translate(-2718.095 -2449.705)" fill="#1d1d1b"/>
      </g>
      <g id="Group_587" data-name="Group 587" transform="translate(15.578 0)">
        <path id="Path_382" data-name="Path 382" d="M2832.563,2467.606a8.951,8.951,0,1,1,8.951-8.951A8.961,8.961,0,0,1,2832.563,2467.606Zm0-16.76a7.81,7.81,0,1,0,7.81,7.81A7.819,7.819,0,0,0,2832.563,2450.846Zm0,13.149a5.338,5.338,0,1,1,2.584-.666h0A5.345,5.345,0,0,1,2832.563,2464Zm0-9.538a4.2,4.2,0,1,0,2.031,7.874h0a4.2,4.2,0,0,0-2.031-7.874Z" transform="translate(-2823.612 -2449.705)" fill="#fff"/>
      </g>
    </g>
  </g>
</svg>
